<svg width="53" height="53" viewBox="0 0 53 53" fill="none" xmlns="http://www.w3.org/2000/svg">
<circle cx="26.2907" cy="26.2907" r="26.2907" fill="white"/>
<path d="M13 19.8998V32.1363C13 33.4358 13.5162 34.6821 14.4351 35.601C15.354 36.5199 16.6003 37.0361 17.8998 37.0361H20.3496V40.7045L27.7506 37.0361H35.1002C36.3997 37.0361 37.646 36.5199 38.5649 35.601C39.4838 34.6821 40 33.4358 40 32.1363V19.8998C40 18.6003 39.4838 17.354 38.5649 16.4351C37.646 15.5162 36.3997 15 35.1002 15H17.8998C16.6003 15 15.354 15.5162 14.4351 16.4351C13.5162 17.354 13 18.6003 13 19.8998Z" stroke="#313F4A" stroke-width="2" stroke-miterlimit="10"/>
</svg>
