<svg xmlns="http://www.w3.org/2000/svg" width="37" height="36" viewBox="0 0 37 36" fill="none">
	<path d="M21.7475 18L17.0225 15.3V20.7L21.7475 18Z" fill="currentColor"></path>
	<path fill-rule="evenodd" clip-rule="evenodd" d="M0.82251 18C0.82251 8.05888 8.88138 0 18.8225 0C28.7636 0 36.8225 8.05888 36.8225 18C36.8225 27.9411 28.7636 36 18.8225 36C8.88138 36 0.82251 27.9411 0.82251 18ZM25.7975 12.0375C26.585 12.2625 27.1475 12.825 27.3725 13.6125C27.8225 15.075 27.8225 18 27.8225 18C27.8225 18 27.8225 20.925 27.485 22.3875C27.26 23.175 26.6975 23.7375 25.91 23.9625C24.4475 24.3 18.8225 24.3 18.8225 24.3C18.8225 24.3 13.085 24.3 11.735 23.9625C10.9475 23.7375 10.385 23.175 10.16 22.3875C9.82251 20.925 9.82251 18 9.82251 18C9.82251 18 9.82251 15.075 10.0475 13.6125C10.2725 12.825 10.835 12.2625 11.6225 12.0375C13.085 11.7 18.71 11.7 18.71 11.7C18.71 11.7 24.4475 11.7 25.7975 12.0375Z" fill="currentColor"></path>
</svg>