<svg width="53" height="53" viewBox="0 0 53 53" fill="none" xmlns="http://www.w3.org/2000/svg">
<circle cx="26.5" cy="26.5" r="26.5" fill="white"/>
<path d="M42 27C42 28.2857 40.4286 29.3429 40.1143 30.5143C39.8 31.6857 40.6143 33.4429 40 34.5C39.3857 35.5571 37.4714 35.7143 36.6 36.6C35.7286 37.4857 35.5857 39.3714 34.5 39.9857C33.4143 40.6 31.7286 39.7857 30.5143 40.1143C29.3 40.4429 28.2714 42 27 42C25.7286 42 24.6714 40.4286 23.4857 40.1143C22.3 39.8 20.6286 40.6143 19.5 39.9857C18.3714 39.3571 18.2857 37.4714 17.4 36.6C16.5143 35.7286 14.6286 35.5714 14 34.5C13.3714 33.4286 14.2143 31.7429 13.8857 30.5143C13.5571 29.2857 12 28.2857 12 27C12 25.7143 13.5714 24.6571 13.8857 23.4857C14.2 22.3143 13.3857 20.6286 14 19.5C14.6143 18.3714 16.5143 18.2857 17.4 17.4C18.2857 16.5143 18.4286 14.6286 19.5 14C20.5714 13.3714 22.2571 14.2143 23.4857 13.8857C24.7143 13.5571 25.7143 12 27 12C28.2857 12 29.3429 13.5714 30.5143 13.8857C31.6857 14.2 33.3714 13.3857 34.5 14C35.6286 14.6143 35.7143 16.5143 36.6 17.4C37.4857 18.2857 39.3714 18.4286 40 19.5C40.6286 20.5714 39.7857 22.2571 40.1143 23.4857C40.4429 24.7143 42 25.7143 42 27Z" stroke="#313F4A" stroke-width="2" stroke-miterlimit="10" stroke-linecap="square"/>
<path d="M20.1857 33.8143V21.5428" stroke="#313F4A" stroke-width="2" stroke-miterlimit="10"/>
<path d="M20.0858 31.0857H21.5144L24.243 32.5143H30.5287C31.0709 32.5143 31.5976 32.3329 32.0247 31.999C32.4519 31.665 32.755 31.1977 32.8858 30.6714L33.7144 27.3429C33.767 27.1522 33.7911 26.9548 33.7858 26.7571C33.7858 26.113 33.5299 25.4953 33.0745 25.0399C32.6191 24.5844 32.0013 24.3286 31.3572 24.3286H28.4287L29.3858 22.4143C29.6569 21.8834 29.7989 21.2961 29.8001 20.7C29.802 20.4605 29.7565 20.2231 29.6661 20.0013C29.5758 19.7795 29.4424 19.5779 29.2738 19.4079C29.1051 19.2379 28.9045 19.103 28.6834 19.0109C28.4624 18.9188 28.2253 18.8714 27.9858 18.8714C27.708 18.8763 27.4349 18.9445 27.1874 19.0708C26.9399 19.197 26.7244 19.378 26.5572 19.6L22.9144 24.2714H20.1858" stroke="#313F4A" stroke-width="2" stroke-miterlimit="10"/>
</svg>
