<svg width="53" height="53" viewBox="0 0 53 53" fill="none" xmlns="http://www.w3.org/2000/svg">
<circle cx="26.5" cy="26.5" r="26.5" fill="white"/>
<path d="M38.0001 15H17.1367V37.9509H38.0001V15Z" stroke="#313F4A" stroke-width="2" stroke-miterlimit="10"/>
<path d="M28.612 26.5191C30.3383 26.5191 31.7377 25.1197 31.7377 23.3935C31.7377 21.6672 30.3383 20.2678 28.612 20.2678C26.8857 20.2678 25.4863 21.6672 25.4863 23.3935C25.4863 25.1197 26.8857 26.5191 28.612 26.5191Z" stroke="#313F4A" stroke-width="2" stroke-miterlimit="10"/>
<path d="M23.3879 31.7432L23.6174 30.6503C23.8478 29.496 24.4717 28.4574 25.3826 27.712C26.2935 26.9665 27.4349 26.5603 28.612 26.5629C29.7877 26.5608 30.9276 26.9673 31.8367 27.713C32.7458 28.4586 33.3676 29.4969 33.5956 30.6503L33.8251 31.7432" stroke="#313F4A" stroke-width="2" stroke-miterlimit="10"/>
<path d="M14 19.1749H20.2623" stroke="#313F4A" stroke-width="2" stroke-miterlimit="10"/>
<path d="M14 24.388H20.2623" stroke="#313F4A" stroke-width="2" stroke-miterlimit="10"/>
<path d="M14 29.6011H20.2623" stroke="#313F4A" stroke-width="2" stroke-miterlimit="10"/>
<path d="M14 34.8252H20.2623" stroke="#313F4A" stroke-width="2" stroke-miterlimit="10"/>
</svg>
