<svg width="53" height="53" viewBox="0 0 53 53" fill="none" xmlns="http://www.w3.org/2000/svg">
<circle cx="26.5" cy="26.5" r="26.5" fill="white"/>
<path d="M21.9998 18L26.9998 13L31.9998 18" stroke="#313F4A" stroke-width="2" stroke-miterlimit="10"/>
<path d="M27 13V20.5C27 20.8283 26.9353 21.1534 26.8097 21.4567C26.6841 21.76 26.4999 22.0356 26.2678 22.2678C26.0356 22.4999 25.76 22.6841 25.4567 22.8097C25.1534 22.9353 24.8283 23 24.5 23H20.1283C19.7181 22.9983 19.3116 23.0776 18.9321 23.2334C18.5527 23.3891 18.2077 23.6183 17.917 23.9078C17.6264 24.1972 17.3957 24.5412 17.2384 24.92C17.081 25.2988 17 25.705 17 26.1152C17 26.9449 17.3296 27.7405 17.9162 28.3272C18.5029 28.9139 19.2986 29.2435 20.1283 29.2435H33.8717C34.7014 29.2435 35.4971 29.573 36.0838 30.1597C36.6704 30.7464 37 31.5421 37 32.3717C36.9965 33.1991 36.6654 33.9915 36.0791 34.5753C35.4928 35.1591 34.6991 35.4869 33.8717 35.4869H29.5C28.837 35.4869 28.2011 35.7503 27.7322 36.2191C27.2634 36.688 27 37.3239 27 37.9869V40.4869" stroke="#313F4A" stroke-width="2" stroke-miterlimit="10"/>
</svg>
