<svg width="53" height="53" viewBox="0 0 53 53" fill="none" xmlns="http://www.w3.org/2000/svg">
<circle cx="26.5" cy="26.5" r="26.5" fill="white"/>
<path d="M25.6825 36.6561H24.5167L19.8658 31.9561H17.5219C16.5879 31.9561 15.692 32.3272 15.0315 32.9877C14.3711 33.6482 14 34.544 14 35.4781V39" stroke="#313F4A" stroke-width="2" stroke-miterlimit="10"/>
<path d="M17.522 29.6C18.8165 29.6 19.8659 28.5506 19.8659 27.2562C19.8659 25.9617 18.8165 24.9123 17.522 24.9123C16.2275 24.9123 15.1782 25.9617 15.1782 27.2562C15.1782 28.5506 16.2275 29.6 17.522 29.6Z" stroke="#313F4A" stroke-width="2" stroke-miterlimit="10"/>
<path d="M28.1368 36.6561H29.3026L34.0026 31.9561H36.3465C37.2806 31.9561 38.1764 32.3272 38.8369 32.9877C39.4974 33.6482 39.8684 34.544 39.8684 35.4781V39" stroke="#313F4A" stroke-width="2" stroke-miterlimit="10"/>
<path d="M36.2974 29.6C37.5919 29.6 38.6413 28.5506 38.6413 27.2562C38.6413 25.9617 37.5919 24.9123 36.2974 24.9123C35.0029 24.9123 33.9536 25.9617 33.9536 27.2562C33.9536 28.5506 35.0029 29.6 36.2974 29.6Z" stroke="#313F4A" stroke-width="2" stroke-miterlimit="10"/>
<path d="M31.6097 16.7026C31.6101 15.9891 31.448 15.2849 31.1358 14.6433C30.8236 14.0017 30.3694 13.4397 29.8076 12.9997C29.2459 12.5598 28.5913 12.2535 27.8936 12.1041C27.1959 11.9548 26.4734 11.9662 25.7807 12.1376C24.9181 12.3478 24.1332 12.7993 23.5178 13.4393C22.9023 14.0793 22.4819 14.8813 22.3055 15.7514C22.1291 16.6216 22.2042 17.524 22.5219 18.3531C22.8396 19.1822 23.3868 19.9037 24.0995 20.4332C24.2389 20.5329 24.3535 20.6633 24.4343 20.8144C24.5152 20.9655 24.5602 21.1332 24.5659 21.3044V26.1149H29.2536V21.2799C29.2588 21.115 29.3025 20.9536 29.3814 20.8087C29.4603 20.6638 29.572 20.5394 29.7076 20.4454C30.2945 20.013 30.7721 19.4494 31.1024 18.7995C31.4327 18.1497 31.6064 17.4316 31.6097 16.7026Z" stroke="#313F4A" stroke-width="2" stroke-miterlimit="10"/>
<path d="M24.5659 22.5684H29.2536" stroke="#313F4A" stroke-width="2" stroke-miterlimit="10"/>
</svg>
