<svg width="53" height="53" viewBox="0 0 53 53" fill="none" xmlns="http://www.w3.org/2000/svg">
<circle cx="26.5" cy="26.5" r="26.5" fill="white"/>
<path d="M26.9999 17.0933C28.4064 17.0933 29.5465 15.9531 29.5465 14.5466C29.5465 13.1402 28.4064 12 26.9999 12C25.5934 12 24.4532 13.1402 24.4532 14.5466C24.4532 15.9531 25.5934 17.0933 26.9999 17.0933Z" stroke="#313F4A" stroke-width="2" stroke-miterlimit="10"/>
<path d="M23.1866 20.9066C23.1866 19.8952 23.5883 18.9253 24.3035 18.2102C25.0186 17.495 25.9885 17.0933 26.9999 17.0933C28.0112 17.0933 28.9812 17.495 29.6963 18.2102C30.4114 18.9253 30.8132 19.8952 30.8132 20.9066" stroke="#313F4A" stroke-width="2" stroke-miterlimit="10"/>
<path d="M37.1864 32.3598C38.5929 32.3598 39.7331 31.2196 39.7331 29.8132C39.7331 28.4067 38.5929 27.2665 37.1864 27.2665C35.7799 27.2665 34.6398 28.4067 34.6398 29.8132C34.6398 31.2196 35.7799 32.3598 37.1864 32.3598Z" stroke="#313F4A" stroke-width="2" stroke-miterlimit="10"/>
<path d="M33.3598 36.1865C33.358 35.6834 33.4558 35.185 33.6475 34.72C33.8391 34.2549 34.1209 33.8324 34.4766 33.4767C34.8323 33.121 35.2549 32.8392 35.7199 32.6475C36.185 32.4558 36.6834 32.3581 37.1864 32.3598C37.6883 32.3598 38.1852 32.4589 38.6488 32.6514C39.1123 32.8438 39.5333 33.1259 39.8875 33.4814C40.2418 33.8369 40.5224 34.2589 40.7133 34.7231C40.9041 35.1873 41.0014 35.6846 40.9997 36.1865" stroke="#313F4A" stroke-width="2" stroke-miterlimit="10"/>
<path d="M16.8133 32.3598C18.2198 32.3598 19.3599 31.2196 19.3599 29.8132C19.3599 28.4067 18.2198 27.2665 16.8133 27.2665C15.4068 27.2665 14.2667 28.4067 14.2667 29.8132C14.2667 31.2196 15.4068 32.3598 16.8133 32.3598Z" stroke="#313F4A" stroke-width="2" stroke-miterlimit="10"/>
<path d="M13 36.1865C12.9983 35.6846 13.0956 35.1873 13.2865 34.7231C13.4773 34.2589 13.7579 33.8369 14.1122 33.4814C14.4665 33.1259 14.8874 32.8438 15.3509 32.6514C15.8145 32.4589 16.3114 32.3598 16.8133 32.3598C17.3163 32.3581 17.8147 32.4558 18.2798 32.6475C18.7449 32.8392 19.1674 33.121 19.5231 33.4767C19.8788 33.8324 20.1606 34.2549 20.3523 34.72C20.5439 35.185 20.6417 35.6834 20.6399 36.1865" stroke="#313F4A" stroke-width="2" stroke-miterlimit="10"/>
<path d="M14.2933 25.1599C14.4334 23.0327 15.1065 20.975 16.2506 19.1763C17.3946 17.3775 18.9728 15.8955 20.8399 14.8666" stroke="#313F4A" stroke-width="2" stroke-miterlimit="10"/>
<path d="M33.1598 14.8666C35.0268 15.8955 36.605 17.3775 37.7491 19.1763C38.8931 20.975 39.5662 23.0327 39.7064 25.1599" stroke="#313F4A" stroke-width="2" stroke-miterlimit="10"/>
<path d="M22.1866 39.0531C25.2712 40.3156 28.7285 40.3156 31.8132 39.0531" stroke="#313F4A" stroke-width="2" stroke-miterlimit="10"/>
</svg>
