<svg width="134" height="34" viewBox="0 0 134 34" fill="none" xmlns="http://www.w3.org/2000/svg">
<path fill-rule="evenodd" clip-rule="evenodd" d="M5.18986 27.215L7.37346 21.2858L9.45642 27.215H5.18986ZM11.5784 33.1903H13.5805L8.38411 18.9172H6.40391L0.96582 33.1903H2.98712L4.58389 28.816H10.022L11.5784 33.1903ZM17.9335 28.2611C16.0781 27.86 14.1617 27.422 14.1617 25.1838C14.1617 23.2185 15.8237 21.9796 18.334 21.9796C19.9577 21.9796 21.5084 22.5842 22.2823 24.0619L20.5941 24.7663C20.4588 24.3716 19.5849 23.3779 18.127 23.3779C16.6982 23.3779 15.9831 24.2235 15.9831 24.9556C15.9831 25.9832 17.3418 26.4113 18.5005 26.6445C20.8996 27.1271 22.9854 27.7409 22.9854 30.0025C22.9854 31.7601 21.424 33.4114 18.4417 33.4114C16.2461 33.4114 14.6861 32.6772 13.9356 31.1428L15.8612 30.8069C16.3446 31.6474 17.2184 32.0117 18.5204 32.0117C20.1349 32.0117 21.0789 31.3958 21.0789 30.23C21.0796 28.9968 19.5303 28.6063 17.9335 28.2611ZM26.984 22.3085H28.9557V23.8259H26.984V30.0003C26.984 31.281 26.984 31.8303 27.7629 31.8303C28.1067 31.8303 28.5893 31.6921 28.9557 31.5787V33.0812C28.6347 33.1265 27.877 33.264 27.1889 33.264C25.0804 33.264 25.0804 32.2392 25.1031 30.8246V23.8259H23.383V22.3085H25.1031V19.7159L26.984 18.9335V22.3085ZM32.42 22.3361V24.2794C33.4512 22.2291 35.4009 22.183 36.1345 22.1603V24.0406C34.3463 24.0527 33.4696 24.4191 32.8793 25.3808C32.3945 26.1661 32.42 27.2696 32.42 28.2016V33.1903H30.5993V22.3361H32.42ZM57.1873 18.9193V20.6996L49.1092 31.478H57.39V33.1903H46.9043V31.3363L55.0221 20.6791H46.9107V18.9193H57.1873ZM70.6263 22.4112V23.9882C71.6398 22.2163 73.3662 22.0555 74.0105 22.0555C75.3918 22.0555 77.0467 22.7465 77.5747 24.5374C77.7597 25.1781 77.7597 25.8422 77.7597 26.7586V33.1903H75.9439V27.0563C75.9439 25.9563 75.9439 25.6367 75.8284 25.2695C75.5066 24.2398 74.4938 23.7819 73.5037 23.7819C72.6986 23.7819 72.0076 24.0335 71.4314 24.6055C70.6256 25.407 70.6256 26.2299 70.6256 27.0336V33.1903H68.8041V22.4112H70.6263ZM98.7048 31.269C98.0251 32.3363 96.7905 33.4107 94.5679 33.4107C90.7323 33.4107 89.2836 30.4546 89.2836 27.799C89.2836 24.7309 90.9527 21.9506 94.4077 21.9506C95.7628 21.9506 97.6608 22.3588 98.7112 24.1086L97.0045 24.8209C96.6821 24.1101 95.9875 23.2886 94.4765 23.2886C91.4828 23.2886 91.3078 26.6998 91.3078 27.6622C91.3078 31.2385 93.3624 32.0117 94.5899 32.0117C95.9953 32.0117 96.7132 31.3377 97.0924 30.5949L98.7048 31.269ZM60.0067 26.6523H65.7623C65.6014 23.8131 63.9649 23.3333 62.8735 23.3333C61.3157 23.334 60.2122 24.4772 60.0067 26.6523ZM67.2605 31.1286C66.6397 32.1853 65.4412 33.398 63.0783 33.398C59.8748 33.398 58.0321 31.2208 58.0321 27.5708C58.0321 23.4935 60.7218 21.935 63.011 21.935C65.0011 21.935 66.909 23.0349 67.5504 25.7593C67.7573 26.6757 67.7573 27.502 67.7573 27.9606H59.9613C59.9159 29.7735 60.6757 32.0677 63.2392 32.023C64.2853 32.0053 65.0216 31.5305 65.4915 30.7863L67.2605 31.1286ZM80.7108 26.6523H86.4671C86.3069 23.8131 84.6705 23.3333 83.5783 23.3333C82.022 23.334 80.9178 24.4772 80.7108 26.6523ZM87.9661 31.1286C87.3452 32.1853 86.1475 33.398 83.7846 33.398C80.5811 33.398 78.7377 31.2208 78.7377 27.5708C78.7377 23.4935 81.4273 21.935 83.7158 21.935C85.7067 21.935 87.6131 23.0349 88.2552 25.7593C88.4615 26.6757 88.4615 27.502 88.4615 27.9606H80.6655C80.6194 29.7735 81.382 32.0677 83.9433 32.023C84.9894 32.0053 85.7279 31.5305 86.1964 30.7863L87.9661 31.1286ZM108.658 33.2017L106.764 33.2087C106.764 33.2087 106.601 32.444 106.548 31.6091C105.998 32.1804 104.977 33.3618 102.915 33.3618C100.805 33.3618 99.2406 32.1109 99.2406 30.2781C99.2406 29.7034 99.4015 29.1314 99.7232 28.6481C100.345 27.7303 101.495 26.996 104.726 26.7444L106.443 26.6069V26.3312C106.443 25.2072 106.443 23.3269 104.022 23.3269C102.499 23.3269 101.981 24.0654 101.805 24.7323L100.128 24.0321C100.156 23.9719 100.185 23.9126 100.216 23.8542C100.861 22.6621 102.124 21.9279 103.952 21.9279C104.959 21.9279 106.261 22.1809 107.11 22.8457C108.319 23.7614 108.29 25.5651 108.29 25.5651L108.363 31.1315C108.363 31.1329 108.427 32.7488 108.658 33.2017ZM106.168 30.2094C106.443 29.6134 106.467 29.3611 106.467 27.7763C105.758 27.8911 104.799 28.0286 103.626 28.2817C101.608 28.7168 101.265 29.4766 101.265 30.2328C101.265 31.1045 101.953 31.8395 103.304 31.8395C104.566 31.8395 105.643 31.3349 106.168 30.2094ZM45.6187 33.2017L43.725 33.2087C43.725 33.2087 43.5606 32.444 43.5081 31.6091C42.9581 32.1804 41.939 33.3618 39.8759 33.3618C37.7653 33.3618 36.2011 32.1109 36.2011 30.2781C36.2011 29.7034 36.362 29.1314 36.6844 28.6481C37.306 27.7303 38.4556 26.996 41.6852 26.7444L43.4046 26.6069V26.3312C43.4046 25.2072 43.4046 23.3269 40.9822 23.3269C39.4591 23.3269 38.9417 24.0654 38.7646 24.7323L37.0877 24.0321C37.1153 23.974 37.1444 23.9145 37.177 23.8542C37.8212 22.6621 39.0856 21.9279 40.912 21.9279C41.9177 21.9279 43.2218 22.1809 44.0701 22.8457C45.2785 23.7614 45.2495 25.5651 45.2495 25.5651L45.3225 31.1315C45.3225 31.1329 45.387 32.7488 45.6187 33.2017ZM43.1289 30.2094C43.4053 29.6134 43.4266 29.3611 43.4266 27.7763C42.7193 27.8911 41.759 28.0286 40.5867 28.2817C38.5711 28.7168 38.2266 29.4766 38.2266 30.2328C38.2266 31.1045 38.9134 31.8395 40.2649 31.8395C41.5258 31.8395 42.6023 31.3349 43.1289 30.2094Z" fill="white"/>
<path fill-rule="evenodd" clip-rule="evenodd" d="M133.546 18.1667C133.541 18.1001 133.53 18.034 133.515 17.9689C133.483 17.8366 133.443 17.7064 133.395 17.5791C133.339 17.4453 133.274 17.3154 133.201 17.19C133.12 17.0521 133.032 16.9185 132.937 16.7896C132.882 16.7139 132.821 16.6424 132.755 16.5756C132.683 16.4991 132.606 16.4274 132.524 16.3608C132.339 16.2134 132.154 16.0632 131.952 15.9391C131.509 15.6677 131.069 15.3856 130.594 15.1765C130.02 14.9242 129.465 14.6251 128.873 14.4196L124.885 13.0347C124.885 12.2764 124.907 11.5181 124.885 10.7604C124.857 9.63522 124.801 8.51085 124.719 7.38829C124.657 6.60703 124.565 5.82848 124.443 5.05444C124.348 4.4506 124.204 3.85526 124.07 3.25922C124.039 3.12244 123.993 2.9899 123.948 2.85808C123.873 2.62999 123.78 2.40799 123.671 2.194C123.58 2.01986 123.476 1.85346 123.358 1.69647C123.218 1.51194 123.053 1.34783 122.868 1.20886C122.767 1.13563 122.659 1.07293 122.546 1.02176C122.45 0.981001 122.352 0.945743 122.252 0.916157C122.106 0.877804 121.957 0.856634 121.806 0.85308C121.455 0.836244 121.103 0.884787 120.769 0.996244C120.642 1.03877 120.518 1.0905 120.398 1.14933C120.125 1.29167 119.863 1.45518 119.615 1.63835C119.394 1.80561 119.167 1.96791 118.965 2.15785C118.132 2.93961 117.315 3.73828 116.515 4.55336C116.087 4.98626 115.677 5.43768 115.289 5.90633C113.752 7.76675 112.223 9.63284 110.745 11.54C110.089 12.3863 109.498 13.2814 108.891 14.1616C108.739 14.3821 108.598 14.6094 108.466 14.8427C108.241 15.2511 108.024 15.6646 107.817 16.083C107.765 16.1927 107.719 16.3054 107.68 16.4204C107.64 16.5295 107.604 16.6401 107.575 16.752C107.516 16.9541 107.493 17.165 107.507 17.375C107.512 17.4254 107.524 17.475 107.542 17.5224C107.559 17.5742 107.583 17.6238 107.61 17.6713C107.673 17.7778 107.749 17.8763 107.836 17.9647C107.934 18.0618 108.035 18.1567 108.142 18.2446C108.252 18.3353 108.365 18.4218 108.484 18.4998C108.692 18.6358 108.907 18.7627 109.12 18.8874C109.213 18.942 109.312 18.9888 109.407 19.0384C109.441 19.0554 109.34 19.003 109.306 18.9845C109.302 18.9831 109.291 18.9767 109.295 18.9782C109.301 18.9796 109.306 18.9838 109.311 18.9867L109.469 19.0689C110.783 19.7549 112.101 20.4311 113.408 21.1277C114.722 21.828 116.035 22.5303 117.333 23.2596L120.25 24.8989C119.237 25.6657 118.204 26.4064 117.212 27.198C116.833 27.5007 116.481 27.8359 116.137 28.1782C115.858 28.4567 115.595 28.7523 115.347 29.0577C115.148 29.3022 114.968 29.5609 114.799 29.8267C114.667 30.0347 114.549 30.2511 114.446 30.4745C114.368 30.6439 114.301 30.8184 114.247 30.9968C114.208 31.1219 114.178 31.2496 114.158 31.3788C114.144 31.4561 114.141 31.5362 114.137 31.6155C114.136 31.6425 114.141 31.6694 114.141 31.6963C114.142 31.7679 114.138 31.8388 114.143 31.9097C114.157 32.1601 114.223 32.4048 114.337 32.6283C114.364 32.6794 114.391 32.7311 114.426 32.7772C114.493 32.8693 114.562 32.9607 114.642 33.0415C114.722 33.1223 114.81 33.196 114.902 33.2633C114.994 33.3314 115.093 33.3909 115.194 33.4462C115.296 33.5015 115.401 33.5497 115.509 33.5943C115.616 33.639 115.724 33.6865 115.837 33.7113C116.245 33.8013 116.655 33.8835 117.069 33.9395C117.272 33.9671 117.478 33.9785 117.681 33.9622C118.387 33.9106 119.09 33.8316 119.79 33.7254C120.606 33.5972 121.415 33.4256 122.222 33.2492C123.174 33.0408 124.123 32.8204 125.066 32.573C125.732 32.398 126.409 32.2428 127.047 31.982C127.55 31.7771 128.057 31.5815 128.555 31.3668C128.667 31.3193 128.773 31.2569 128.878 31.1953C128.973 31.14 129.066 31.0797 129.156 31.016C129.234 30.96 129.312 30.9004 129.382 30.8338C129.442 30.7778 129.497 30.7155 129.545 30.6488C129.624 30.5406 129.679 30.4174 129.709 30.2867C129.734 30.1752 129.734 30.0596 129.71 29.9479C129.687 29.8395 129.646 29.7355 129.591 29.6396C129.536 29.5425 129.47 29.4517 129.395 29.3689C129.264 29.2211 129.115 29.0898 128.952 28.9776C128.879 28.9264 128.804 28.8777 128.728 28.8316C128.208 28.5184 127.691 28.1988 127.168 27.8905L124.977 26.597C126.307 25.6948 127.65 24.8096 128.968 23.8883C129.533 23.497 130.084 23.0862 130.62 22.6565C131.075 22.2836 131.516 21.893 131.94 21.4857C132.144 21.2936 132.324 21.0803 132.509 20.8698C132.592 20.7741 132.67 20.672 132.743 20.5678C132.81 20.4736 132.878 20.3786 132.931 20.2751C133.103 19.935 133.271 19.5926 133.414 19.2397C133.472 19.0958 133.496 18.9406 133.529 18.7889C133.543 18.7188 133.549 18.6465 133.555 18.5749C133.56 18.5062 133.563 18.4367 133.562 18.3679C133.559 18.3007 133.554 18.2336 133.546 18.1667ZM117.194 9.21398C117.936 8.44196 118.683 7.67603 119.437 6.91627C119.574 6.77807 119.727 6.65404 119.875 6.52576C119.927 6.48105 119.98 6.43803 120.035 6.39677C120.077 6.36488 120.118 6.33157 120.163 6.30322C120.195 6.28341 120.229 6.26634 120.264 6.25219C120.301 6.23731 120.338 6.22243 120.377 6.21605C120.419 6.21001 120.461 6.20858 120.503 6.21179C120.547 6.21624 120.59 6.23027 120.629 6.2529C120.675 6.27946 120.716 6.31347 120.751 6.35354C120.772 6.37764 120.792 6.40315 120.809 6.43008C120.829 6.46127 120.85 6.49316 120.863 6.52789C120.899 6.62144 120.932 6.71712 120.956 6.81492C120.99 6.95454 121.017 7.09629 121.039 7.23945C121.093 7.58815 121.143 7.93755 121.182 8.28767C121.233 8.74126 121.27 9.19626 121.311 9.65056L121.537 12.0695L118.842 11.4493L116.326 11.0354L115.717 10.9886L115.52 10.9837C116.077 10.3933 116.631 9.79868 117.194 9.21398ZM115.504 12.5776L115.514 12.5627L115.528 12.5549L115.549 12.5528L115.581 12.5578L115.676 12.5847L115.919 12.6783L116.251 12.8257C117.107 13.1921 117.963 13.5585 118.82 13.9235C119.388 14.1659 119.956 14.4061 120.523 14.6485L121.645 15.1276L121.745 15.1723C121.805 16.0589 121.879 16.9448 121.926 17.8321C121.963 18.5253 121.978 19.2198 121.995 19.9137C121.997 20.0016 121.99 20.0887 121.983 20.1759C121.98 20.2253 121.976 20.2744 121.968 20.3233C121.961 20.3722 121.951 20.4205 121.937 20.4679C121.924 20.5147 121.906 20.5601 121.884 20.6033C121.861 20.645 121.833 20.6842 121.801 20.7202C121.785 20.7387 121.767 20.7554 121.747 20.7698C121.726 20.7854 121.705 20.7996 121.682 20.8124C121.631 20.8397 121.577 20.8589 121.52 20.8691C121.446 20.8815 121.37 20.8836 121.296 20.8754C121.255 20.8702 121.215 20.8624 121.176 20.8521C121.134 20.8423 121.092 20.8295 121.052 20.8138C120.964 20.7779 120.879 20.737 120.795 20.6912C120.702 20.6373 120.612 20.5782 120.525 20.514C120.429 20.443 120.336 20.3678 120.247 20.2886C120.149 20.2035 120.055 20.1138 119.965 20.02C119.769 19.8133 119.58 19.6001 119.399 19.3807C119.073 18.9831 118.735 18.5926 118.45 18.166C118.056 17.5777 117.652 16.9966 117.268 16.4012C117.039 16.0461 116.805 15.6925 116.614 15.314L115.749 13.5996L115.562 13.0532L115.52 12.8909L115.494 12.7342L115.492 12.6208L115.504 12.5776ZM125.066 27.7735C125.299 27.9209 125.534 28.0662 125.764 28.2179C126.061 28.4135 126.358 28.6077 126.646 28.8161C126.853 28.9656 127.051 29.1272 127.246 29.2923C127.333 29.366 127.414 29.4454 127.492 29.529C127.555 29.5978 127.611 29.6729 127.667 29.748C127.67 29.7531 127.671 29.7591 127.67 29.765C127.67 29.7783 127.669 29.7914 127.665 29.804C127.662 29.8122 127.657 29.8196 127.65 29.8253C127.642 29.8332 127.633 29.8396 127.623 29.8444C127.609 29.8505 127.595 29.8548 127.58 29.8572C127.56 29.8614 127.539 29.8642 127.518 29.8657C126.381 29.9507 125.243 30.0287 124.107 30.118L119.665 30.4667L119.527 30.4752L119.591 30.4065L119.871 30.1591C120.447 29.731 121.004 29.2767 121.598 28.8742L124.113 27.169L125.066 27.7735ZM128.487 19.0292C128.461 19.118 128.417 19.2007 128.358 19.2723C128.283 19.3623 128.202 19.4502 128.116 19.5303C127.93 19.6997 127.747 19.8733 127.542 20.0186C126.836 20.5189 126.138 21.0314 125.424 21.5197C124.932 21.8563 124.424 22.171 123.922 22.4935L121.005 24.3681L119.765 23.6579L114.481 20.6373C113.287 19.9243 112.087 19.2234 110.901 18.4976C110.678 18.3609 110.468 18.2021 110.255 18.0504C110.187 18.0022 110.123 17.947 110.058 17.8959C110.038 17.8803 110.015 17.8662 109.996 17.8492C109.95 17.808 109.906 17.7649 109.864 17.7202C109.813 17.6615 109.772 17.5956 109.741 17.5246C109.725 17.4866 109.713 17.4469 109.707 17.4062C109.7 17.3637 109.7 17.3205 109.706 17.2779C109.721 17.1811 109.755 17.0882 109.806 17.0044C109.918 16.8095 110.055 16.6305 110.214 16.4721C110.897 15.7697 111.59 15.0773 112.276 14.3778L114.126 12.4904L114.214 12.7952L114.438 13.331L114.453 13.3636C114.942 14.2112 115.401 15.0766 115.92 15.9065C116.516 16.8605 117.156 17.7868 117.795 18.7117C118.096 19.1447 118.409 19.5692 118.739 19.981C119.024 20.3418 119.326 20.6879 119.646 21.0179C119.929 21.3049 120.238 21.5672 120.553 21.8202C120.709 21.9449 120.884 22.0456 121.056 22.1483C121.217 22.2401 121.387 22.3151 121.564 22.3723C121.724 22.4236 121.889 22.4581 122.056 22.475C122.259 22.4927 122.462 22.4744 122.658 22.4212C122.715 22.4056 122.77 22.3857 122.825 22.3624C122.875 22.3418 122.925 22.317 122.973 22.2901C123.019 22.2653 123.064 22.2374 123.106 22.2064C123.183 22.1483 123.259 22.0881 123.329 22.0222C123.388 21.9652 123.443 21.9036 123.492 21.8379C123.556 21.755 123.613 21.6671 123.667 21.5771C123.805 21.3457 123.918 21.1003 124.005 20.845C124.097 20.5643 124.185 20.2815 124.255 19.9938C124.349 19.6054 124.453 19.2163 124.495 18.818L124.735 16.5139C125.281 16.7683 125.84 16.9994 126.375 17.2779C126.896 17.5501 127.396 17.8647 127.903 18.1653C127.962 18.2007 128.017 18.2418 128.071 18.2857C128.146 18.3481 128.218 18.414 128.287 18.4842C128.358 18.5577 128.415 18.6437 128.455 18.7379C128.473 18.7833 128.485 18.8322 128.494 18.8804C128.498 18.9048 128.498 18.9295 128.496 18.9541C128.497 18.9794 128.494 19.0048 128.487 19.0292Z" fill="#EFAB00"/>
</svg>
