<svg width="63" height="37" viewBox="0 0 63 37" fill="none" xmlns="http://www.w3.org/2000/svg">
<path d="M0.230957 0.846276V16.5017H8.42786C11.6542 16.5017 14.6356 15.3694 14.6356 12.0432C14.6356 9.79469 13.0157 8.7682 11.2341 8.23095C12.3195 7.79551 13.551 6.88077 13.551 4.96325C13.551 2.50891 11.1158 0.846276 7.83713 0.846276H0.230957ZM5.25249 4.49245H7.09866C7.85022 4.49245 8.42327 5.08114 8.42327 5.67864C8.42327 6.2337 7.82782 6.82785 7.0986 6.82785H5.25255L5.25249 4.49245ZM5.25249 10.0771H7.68939C8.54016 10.0771 9.25406 10.7232 9.25406 11.4617C9.25406 12.2459 8.58639 12.8971 7.54173 12.8971H5.25249V10.0771ZM4.29246 18.2094V33.8647H12.4894C15.7157 33.8647 18.6971 32.7324 18.6971 29.4063C18.6971 27.1577 17.0773 26.1313 15.2956 25.594C16.3811 25.1586 17.6125 24.2439 17.6125 22.3263C17.6125 19.872 15.1773 18.2094 11.8986 18.2094H4.29246ZM9.31406 21.8555H11.1602C11.9117 21.8555 12.4848 22.4442 12.4848 23.0417C12.4848 23.5968 11.8893 24.1909 11.1602 24.1909H9.31406V21.8555ZM9.31406 27.4402H11.751C12.6017 27.4402 13.3156 28.0862 13.3156 28.8248C13.3156 29.609 12.648 30.2601 11.6033 30.2601H9.31406V27.4402ZM15.0298 16.4998V0.844352H27.6575V4.62529H20.0365V6.6782H26.2248V10.2229H20.0365V12.7336H27.6575V16.4998L15.0298 16.4998ZM34.498 16.9479C38.0525 16.9479 40.8955 14.9205 40.8955 11.6348C40.8955 6.33235 33.9975 7.14832 33.9975 5.49734C33.9975 4.85964 34.6682 4.52124 35.356 4.52124C36.5413 4.52124 37.3977 5.30215 37.3977 5.30215L40.3654 2.47634C39.1785 1.34674 37.3038 0.397003 34.7784 0.397003C30.9857 0.397003 28.5045 2.64802 28.5045 5.36345C28.5045 10.7334 35.3032 9.95402 35.3032 11.6389C35.3032 12.2296 34.7349 12.8238 33.7042 12.8238C32.5342 12.8238 31.6072 12.1174 30.8858 11.5181L27.9007 14.364C29.1028 15.5348 31.0324 16.9479 34.498 16.9479ZM44.7602 16.4998V4.61052H40.6249V0.844352H53.9171V4.61052H49.7818V16.4997L44.7602 16.4998ZM18.8698 18.1983H23.8765V27.5768C23.8765 28.5291 24.8243 29.4067 25.8125 29.4067C26.7447 29.4067 27.6869 28.6142 27.6869 27.5267V18.1982H32.679V27.4629C32.679 31.1391 29.6268 34.0715 25.6803 34.0715C21.7112 34.0715 18.8698 30.8801 18.8698 27.2625V18.1983ZM38.8525 33.8537V28.2595L32.9678 18.1983H38.0335L41.3633 23.5891L44.7046 18.1983H49.7817L43.8741 28.3171V33.8537H38.8525Z" fill="white"/>
<path d="M49.7825 26.7664L46.8286 29.7203V33.7079L49.7824 36.6618H62.2772V26.7664H49.7825Z" fill="#FFED31"/>
<path d="M49.297 31.7121C49.297 32.0792 48.9994 32.3767 48.6323 32.3767C48.2653 32.3767 47.9678 32.0792 47.9678 31.7121C47.9678 31.3451 48.2653 31.0475 48.6323 31.0475C48.9993 31.0475 49.297 31.3451 49.297 31.7121Z" fill="white"/>
</svg>
