<svg width="92" height="54" viewBox="0 0 92 54" fill="none" xmlns="http://www.w3.org/2000/svg">
<mask id="mask0_859_1989" style="mask-type:luminance" maskUnits="userSpaceOnUse" x="0" y="0" width="92" height="54">
<path d="M91.7558 0H0.918701V53.1104H91.7558V0Z" fill="white"/>
</mask>
<g mask="url(#mask0_859_1989)">
<path d="M90.1794 20.4737C78.4691 12.2734 60.9184 3.71696 47.7214 0.182768C46.8149 -0.0609227 45.86 -0.0609227 44.9535 0.182768C31.7592 3.71696 14.2087 12.2734 2.49569 20.4737C1.49436 21.1746 0.918701 22.2073 0.918701 23.295V29.7841C0.918701 30.8717 1.49451 31.9044 2.49569 32.6054C14.2086 40.8056 31.7592 49.3619 44.9535 52.8961C45.86 53.1401 46.8145 53.1401 47.7211 52.8961C60.9184 49.3619 78.4687 40.8056 90.179 32.6054C91.18 31.9043 91.7558 30.8717 91.7558 29.7841V23.295C91.7558 22.2073 91.1804 21.1746 90.1794 20.4737Z" fill="#DB2524"/>
<path d="M46.3377 46.8976C53.8402 45.1112 63.2605 41.4122 72.1307 37.4073C78.7131 33.9351 84.8849 30.1197 89.4857 26.5397C84.8849 22.9593 78.7127 19.1439 72.1303 15.6717C63.2601 11.6668 53.8402 7.96776 46.3377 6.18139C38.8356 7.96776 29.4156 11.6667 20.5454 15.6717C13.9628 19.1439 7.79082 22.9593 3.1897 26.5397C7.79082 30.1197 13.9624 33.9349 20.5448 37.4073C29.415 41.4118 38.8352 45.1112 46.3377 46.8976Z" fill="url(#paint0_radial_859_1989)"/>
<path d="M20.538 15.6747C29.4102 11.6688 38.8329 7.96836 46.3372 6.18139C53.8416 7.96836 63.2641 11.6688 72.1361 15.6747C63.3505 11.04 53.832 7.01731 46.3372 4.98366C38.8421 7.01746 29.3238 11.04 20.538 15.6747ZM20.538 37.4044C29.4102 41.4104 38.8329 45.1105 46.3372 46.8976C53.8416 45.1105 63.2641 41.4104 72.1361 37.4044C63.3505 42.0389 53.832 46.0618 46.3372 48.0953C38.8421 46.0618 29.3238 42.0389 20.538 37.4044Z" fill="#FBCB07"/>
<path d="M52.5214 24.189C52.5214 25.1211 52.0712 25.5713 51.1068 25.5713H49.5629V19.8543H51.235C52.1038 19.8543 52.5214 20.2724 52.5214 21.1403V24.189ZM55.9629 32.4743V29.6061C55.9629 28.1575 54.7901 26.9853 53.3407 26.9853C54.7901 26.9853 55.9629 25.8132 55.9629 24.3645V20.9791C55.9629 18.183 54.5798 16.8007 51.7818 16.8007H46.1217V36.2782H49.5629V28.56H51.0749C52.0716 28.56 52.5217 29.0104 52.5217 30.0067L52.5225 33.0662C52.5225 34.7332 52.9613 35.7082 53.7751 36.2782H57.0398C56.3424 35.2932 55.9629 34.0123 55.9629 32.4743ZM64.8814 32.132C64.8814 33.0319 64.4631 33.45 63.5951 33.45H62.8874C61.9867 33.45 61.5692 33.0319 61.5692 32.132V20.947C61.5692 20.0474 61.9867 19.6295 62.8874 19.6295H63.5951C64.4631 19.6295 64.8814 20.0474 64.8814 20.947V32.132ZM64.1419 16.608H62.3087C59.5111 16.608 58.128 17.9904 58.128 20.7864V32.2924C58.128 35.0889 59.5111 36.4708 62.3087 36.4708H64.1419C66.9396 36.4708 68.3226 35.0889 68.3226 32.2924V20.7864C68.3226 17.9904 66.9396 16.608 64.1419 16.608ZM76.8829 26.214L80.0344 36.2782H76.4972L74.5995 28.9989L72.5733 36.2782H69.261L72.4125 26.5032L69.3255 16.8009H72.863L74.7277 23.5224L76.6577 16.8009H79.9703L76.8829 26.214ZM39.2364 19.6295H38.5291C37.6285 19.6295 37.2106 20.0474 37.2106 20.947V32.132C37.2106 33.0319 37.6285 33.45 38.5291 33.45H39.2364C40.1045 33.45 40.5232 33.0319 40.5232 32.132V20.947C40.5232 20.0474 40.1045 19.6295 39.2364 19.6295ZM39.7833 36.4711H37.9501C35.1523 36.4711 33.7691 35.0889 33.7691 32.2927V20.7864C33.7691 17.9904 35.1523 16.608 37.9501 16.608H39.7833C42.5809 16.608 43.964 17.9904 43.964 20.7864V32.2927C43.964 35.0889 42.5809 36.4711 39.7833 36.4711ZM28.9488 16.8009V33.1606H32.7434V36.2782H25.5076V16.8009H28.9488ZM23.6269 28.7615V32.2927C23.6269 35.0889 22.2441 36.4711 19.4462 36.4711H17.7418C14.944 36.4711 13.5609 35.0889 13.5609 32.2927V20.7864C13.5609 17.9904 14.944 16.608 17.7418 16.608H19.4138C22.2117 16.608 23.5628 17.9582 23.5628 20.7544V24.0369H20.1859V20.947C20.1859 20.0474 19.7677 19.6295 18.8994 19.6295H18.3207C17.4198 19.6295 17.0022 20.0474 17.0022 20.947V32.132C17.0022 33.0319 17.4198 33.45 18.3207 33.45H18.9636C19.8321 33.45 20.2502 33.0319 20.2502 32.132V28.7615H23.6269Z" fill="white"/>
<path d="M88.2902 37.9157C88.2902 37.7915 88.173 37.7296 87.9386 37.7296H87.7522V38.1234H87.9459C88.1752 38.1234 88.2902 38.0545 88.2902 37.9157ZM88.3045 38.905C88.295 38.8431 88.2866 38.7808 88.2792 38.7186C88.2719 38.6541 88.2635 38.5896 88.2543 38.5252C88.2353 38.4201 88.1203 38.3673 87.91 38.3673H87.7522V38.905H87.4368V37.4857H87.9602C88.3858 37.4857 88.5986 37.6245 88.5986 37.9014C88.5986 38.0637 88.5126 38.1761 88.3404 38.2384C88.4741 38.2955 88.5484 38.3937 88.5627 38.5325C88.5913 38.7519 88.6103 38.8764 88.6202 38.905H88.3045ZM89.0861 38.2025C89.0861 37.897 88.9763 37.6366 88.7561 37.4216C88.5411 37.2015 88.2829 37.0916 87.9818 37.0916C87.6804 37.0916 87.4225 37.2015 87.2071 37.4216C86.9921 37.6457 86.8844 37.9062 86.8844 38.2025C86.8844 38.5036 86.9921 38.764 87.2071 38.9838C87.4225 39.1988 87.6804 39.3065 87.9818 39.3065C88.2877 39.3065 88.5484 39.1988 88.7635 38.9838C88.9785 38.7688 89.0861 38.5083 89.0861 38.2025ZM89.3158 38.2025C89.3158 38.5706 89.1843 38.886 88.9213 39.1486C88.6631 39.4068 88.3499 39.5357 87.9818 39.5357C87.6137 39.5357 87.298 39.4043 87.035 39.1416C86.7768 38.8786 86.6478 38.5658 86.6478 38.2025C86.6478 37.8395 86.7793 37.5263 87.0423 37.2637C87.3101 36.996 87.6232 36.8623 87.9818 36.8623C88.3499 36.8623 88.6631 36.9938 88.9213 37.2564C89.1843 37.5194 89.3158 37.8347 89.3158 38.2025Z" fill="#28429E"/>
</g>
<defs>
<radialGradient id="paint0_radial_859_1989" cx="0" cy="0" r="1" gradientUnits="userSpaceOnUse" gradientTransform="translate(75.825 18.3888) rotate(180) scale(60.6601 60.6264)">
<stop stop-color="#80D0F4"/>
<stop offset="0.236" stop-color="#3766B9"/>
<stop offset="0.532" stop-color="#28429E"/>
<stop offset="1" stop-color="#28429E"/>
</radialGradient>
</defs>
</svg>
