<svg width="125" height="19" viewBox="0 0 125 19" fill="none" xmlns="http://www.w3.org/2000/svg">
<path d="M22.3933 0.699615L18.4288 6.09357H40.0357C41.1283 6.09357 41.1147 6.50555 40.5807 7.23402C40.0384 7.97068 39.1311 9.24482 38.578 9.99511C38.2974 10.3744 37.7906 11.0646 39.469 11.0646H48.3052L50.9236 7.5014C52.5476 5.29416 51.0653 0.702342 45.259 0.702342L22.3933 0.699615Z" fill="white"/>
<path d="M16.8241 18.2729L24.7884 7.43592H34.6709C35.7635 7.43592 35.7499 7.85063 35.2159 8.57637L33.1996 11.3266C32.9189 11.7058 32.4122 12.3961 34.0906 12.3961H47.3272C46.2291 13.9076 42.6543 18.2729 36.2458 18.2729H16.8241ZM62.4302 12.3933L58.1115 18.2729H46.7196L51.0382 12.3933H62.4302ZM79.8792 11.0619H52.0191L59.6374 0.699615H71.0239L66.6589 6.64197H71.7405L76.1109 0.699615H87.4975L79.8792 11.0619ZM78.901 12.3933L74.5824 18.2729H63.1958L67.5145 12.3933H78.901ZM0.571289 14.7124H17.35L16.4345 15.9593H0.571289V14.7124ZM0.571289 12.3933H19.0557L18.1374 13.6402H0.571289V12.3933ZM0.571289 17.0315H15.6471L14.7343 18.2729H0.571289V17.0315ZM124.662 15.9593H107.944L108.862 14.7124H124.662V15.9593ZM124.662 18.2729H106.246L107.156 17.0315H124.662V18.2729ZM110.565 12.3933H124.662V13.6429H109.649L110.565 12.3933ZM103.268 0.699615L95.6498 11.0619H83.5821L91.2058 0.699615H103.268ZM82.6066 12.3933C82.6066 12.3933 81.7756 13.5338 81.3696 14.0795C79.9419 16.0166 81.2034 18.2702 85.8708 18.2702H104.159L108.478 12.3933H82.6066Z" fill="white"/>
</svg>
