<svg width="162" height="37" viewBox="0 0 162 37" fill="none" xmlns="http://www.w3.org/2000/svg">
<path d="M41.0973 24.444C36.1674 26.2145 30.8234 26.4842 25.7403 25.2192C21.5745 24.2664 17.7465 22.2969 13.7902 20.9066C7.49276 18.6784 4.3271 20.923 0.242432 25.6053C1.87301 21.6172 5.3765 17.0632 12.4338 17.628C17.0842 17.9997 21.3311 19.3561 24.7227 19.8244C40.6609 22.0207 52.078 13.0258 51.8675 3.61197C52.6757 8.2963 53.1439 19.3417 41.0973 24.444Z" fill="url(#paint0_linear_859_2000)"/>
<path d="M24.7225 19.8254C24.6383 17.2794 25.1181 14.7462 26.1276 12.4074C27.1371 10.0685 28.6512 7.98177 30.5617 6.29665C32.4721 4.61152 34.7315 3.36967 37.1781 2.66004C39.6247 1.95041 42.1979 1.79056 44.7135 2.19193C41.939 0.858351 38.8713 0.250953 35.7979 0.426648C32.7245 0.602344 29.746 1.55537 27.1415 3.19644C24.537 4.83752 22.3917 7.11294 20.9067 9.80947C19.4217 12.506 18.6455 15.5354 18.6509 18.6138C20.8791 19.083 22.9142 19.5831 24.7225 19.8254Z" fill="url(#paint1_linear_859_2000)"/>
<path opacity="0.5" d="M24.7225 19.8254C24.6383 17.2794 25.1181 14.7462 26.1276 12.4074C27.1371 10.0685 28.6512 7.98177 30.5617 6.29665C32.4721 4.61152 34.7315 3.36967 37.1781 2.66004C39.6247 1.95041 42.1979 1.79056 44.7135 2.19193C41.939 0.858351 38.8713 0.250953 35.7979 0.426648C32.7245 0.602344 29.746 1.55537 27.1415 3.19644C24.537 4.83752 22.3917 7.11294 20.9067 9.80947C19.4217 12.506 18.6455 15.5354 18.6509 18.6138C20.8791 19.083 22.9142 19.5831 24.7225 19.8254Z" fill="url(#paint2_linear_859_2000)"/>
<path d="M71.762 12.882H65.8845V24.2499H71.762C72.5277 24.2808 73.2917 24.1566 74.0083 23.8849C74.7248 23.6131 75.3791 23.1994 75.9317 22.6686C76.4844 22.1378 76.9242 21.5007 77.2245 20.7957C77.5249 20.0907 77.6798 19.3323 77.6798 18.5659C77.6798 17.7996 77.5249 17.0412 77.2245 16.3362C76.9242 15.6312 76.4844 14.9941 75.9317 14.4633C75.3791 13.9324 74.7248 13.5187 74.0083 13.247C73.2917 12.9753 72.5277 12.8511 71.762 12.882ZM71.7455 21.7311H68.5809V15.4172H71.7455C72.1649 15.4096 72.5816 15.4857 72.9713 15.641C73.3609 15.7962 73.7157 16.0275 74.0149 16.3214C74.3142 16.6153 74.5518 16.9659 74.7141 17.3527C74.8763 17.7395 74.96 18.1547 74.96 18.5742C74.96 18.9936 74.8763 19.4088 74.7141 19.7956C74.5518 20.1824 74.3142 20.5329 74.0149 20.8268C73.7157 21.1207 73.3609 21.3521 72.9713 21.5073C72.5816 21.6626 72.1649 21.7387 71.7455 21.7311Z" fill="white"/>
<path d="M155.813 12.882H149.935V24.2499H155.813C156.578 24.2808 157.343 24.1566 158.059 23.8849C158.776 23.6131 159.43 23.1994 159.983 22.6686C160.535 22.1378 160.975 21.5007 161.275 20.7957C161.576 20.0907 161.73 19.3323 161.73 18.5659C161.73 17.7996 161.576 17.0412 161.275 16.3362C160.975 15.6312 160.535 14.9941 159.983 14.4633C159.43 13.9324 158.776 13.5187 158.059 13.247C157.343 12.9753 156.578 12.8511 155.813 12.882ZM155.796 21.7311H152.632V15.4172H155.796C156.216 15.4096 156.632 15.4857 157.022 15.641C157.412 15.7962 157.766 16.0275 158.066 16.3214C158.365 16.6153 158.603 16.9659 158.765 17.3527C158.927 17.7395 159.011 18.1547 159.011 18.5742C159.011 18.9936 158.927 19.4088 158.765 19.7956C158.603 20.1824 158.365 20.5329 158.066 20.8268C157.766 21.1207 157.412 21.3521 157.022 21.5073C156.632 21.6626 156.216 21.7387 155.796 21.7311Z" fill="white"/>
<path d="M78.8522 12.882H85.5377C86.1081 12.855 86.6779 12.9447 87.2123 13.1457C87.7468 13.3466 88.2345 13.6545 88.6458 14.0506C89.057 14.4467 89.3831 14.9225 89.604 15.449C89.8249 15.9755 89.936 16.5416 89.9305 17.1125C89.9353 17.6868 89.8237 18.2561 89.6022 18.786C89.3807 19.3159 89.0541 19.7954 88.642 20.1955C88.2299 20.5955 87.741 20.9079 87.2048 21.1136C86.6686 21.3193 86.0962 21.4141 85.5223 21.3923H81.566V24.2345H78.8357V12.882H78.8522ZM81.5814 15.3525V18.8889H85.4073C85.6395 18.8889 85.8695 18.8431 86.084 18.7543C86.2985 18.6654 86.4934 18.5352 86.6576 18.371C86.8218 18.2068 86.9521 18.0119 87.0409 17.7973C87.1298 17.5828 87.1755 17.3529 87.1755 17.1207C87.1755 16.8885 87.1298 16.6586 87.0409 16.444C86.9521 16.2295 86.8218 16.0346 86.6576 15.8704C86.4934 15.7062 86.2985 15.576 86.084 15.4871C85.8695 15.3983 85.6395 15.3525 85.4073 15.3525H81.5814Z" fill="white"/>
<path d="M109.291 12.882L106.917 19.8417L104.366 12.882H100.91L98.3579 19.8417L95.9839 12.882H93.2239L96.8084 24.2498H99.5213L102.638 15.756L105.754 24.2498H108.45L112.035 12.882H109.291Z" fill="white"/>
<path d="M125.633 12.882H132.673C133.837 12.8379 134.973 13.2494 135.838 14.029C136.245 14.4532 136.553 14.9624 136.739 15.5199C136.926 16.0774 136.987 16.6692 136.917 17.253C136.848 17.8367 136.65 18.3978 136.337 18.8959C136.025 19.3939 135.606 19.8166 135.111 20.1334L137.226 24.2509H134.239L132.641 20.844H128.362V24.2509H125.649V12.882H125.633ZM128.329 15.369V18.3888H132.446C132.661 18.4195 132.88 18.4028 133.087 18.34C133.295 18.2771 133.486 18.1696 133.648 18.025C133.809 17.8804 133.937 17.7021 134.023 17.5028C134.108 17.3035 134.149 17.0879 134.142 16.8712C134.142 15.8536 133.496 15.369 132.446 15.369H128.329Z" fill="white"/>
<path d="M138.47 12.882H141.199V21.6499H148.773V24.2498H138.47V12.882Z" fill="white"/>
<path d="M118.157 12.7527C114.475 12.7527 111.939 15.0456 111.939 18.5665C111.939 22.0875 114.475 24.3803 118.157 24.3803C121.839 24.3803 124.374 22.0875 124.374 18.5665C124.374 15.0456 121.838 12.7527 118.157 12.7527ZM118.157 21.7147C116.09 21.7147 114.652 20.4712 114.652 18.5655C114.652 16.6597 116.073 15.4162 118.157 15.4162C120.224 15.4162 121.661 16.6597 121.661 18.5655C121.66 19.0095 121.566 19.4485 121.385 19.8538C121.204 20.2592 120.939 20.622 120.609 20.9189C120.279 21.2157 119.89 21.4399 119.467 21.577C119.045 21.7141 118.599 21.761 118.157 21.7147Z" fill="white"/>
<path d="M38.1909 36.7165C34.7804 36.9698 31.3675 36.2575 28.3432 34.661C25.3188 33.0646 22.8052 30.6486 21.0903 27.6898C32.5906 37.8306 55.2596 29.8379 54.1938 13.1398C54.9991 15.7541 55.2067 18.5159 54.8013 21.2211C54.3959 23.9264 53.3878 26.506 51.8515 28.7694C50.3153 31.0328 48.2901 32.922 45.9256 34.2975C43.5611 35.6731 40.9178 36.4998 38.1909 36.7165Z" fill="url(#paint3_linear_859_2000)"/>
<defs>
<linearGradient id="paint0_linear_859_2000" x1="-0.121432" y1="25.9812" x2="25.1849" y2="-8.78161" gradientUnits="userSpaceOnUse">
<stop stop-color="#00E68C" stop-opacity="0.302"/>
<stop offset="0.6" stop-color="#00E68C"/>
<stop offset="0.964" stop-color="#00E68C" stop-opacity="0.361"/>
<stop offset="1" stop-color="#00E68C" stop-opacity="0.302"/>
</linearGradient>
<linearGradient id="paint1_linear_859_2000" x1="18.6509" y1="10.1112" x2="44.7135" y2="10.1112" gradientUnits="userSpaceOnUse">
<stop stop-color="#FF2261"/>
<stop offset="0.9" stop-color="#FF2261" stop-opacity="0.102"/>
</linearGradient>
<linearGradient id="paint2_linear_859_2000" x1="29.1541" y1="21.8071" x2="30.1491" y2="13.0922" gradientUnits="userSpaceOnUse">
<stop stop-color="#68022C"/>
<stop offset="0.15" stop-color="#68022C" stop-opacity="0.749"/>
<stop offset="1" stop-color="#68022C" stop-opacity="0"/>
</linearGradient>
<linearGradient id="paint3_linear_859_2000" x1="22.9894" y1="33.2698" x2="51.1595" y2="13.2542" gradientUnits="userSpaceOnUse">
<stop stop-color="white" stop-opacity="0.102"/>
<stop offset="0.6" stop-color="white" stop-opacity="0.949"/>
<stop offset="1" stop-color="white" stop-opacity="0.302"/>
</linearGradient>
</defs>
</svg>
