<svg width="86" height="21" viewBox="0 0 86 21" fill="none" xmlns="http://www.w3.org/2000/svg">
<path d="M84.9249 7.24372L84.676 10.1823H83.4716C81.5527 10.1823 80.5571 11.7158 80.5571 13.1931V19.833H77.1689V7.24372H80.3885L80.4608 8.81739C81.1352 7.74152 82.3155 7.24372 83.7767 7.24372H84.9249Z" fill="white"/>
<path d="M61.3765 19.8329H57.9802V13.177C57.9802 11.78 57.8518 10.0297 55.9008 10.0297C54.014 10.0297 53.2593 11.3946 53.2593 12.9763V19.8249H49.863V7.24365H53.0184L53.0907 8.84943C53.7651 7.77356 55.0256 6.93053 56.8803 6.93053C60.3086 6.93053 61.3845 9.37934 61.3845 11.9165L61.3765 19.8329Z" fill="white"/>
<path d="M48.3775 16.8944L48.1367 19.7608C47.3498 19.9695 46.5389 20.0739 45.72 20.0578C42.5164 20.0578 41.5851 18.5885 41.5851 15.6339V3.69496H44.9893V7.24372H48.3695L48.1367 10.1823H44.9893V15.369C44.9893 16.5572 45.3105 17.1915 46.5309 17.1915C47.1571 17.1995 47.7834 17.0952 48.3775 16.8944Z" fill="white"/>
<path d="M40.4771 7.24372L40.2121 10.1823H39.2888C37.3779 10.1823 36.4225 11.7158 36.4225 13.1931V19.833H33.0262V7.24372H36.2378L36.302 8.81739C36.9845 7.74955 38.1647 7.24372 39.626 7.24372H40.4771Z" fill="white"/>
<path d="M17.6832 18.436C15.3789 19.6725 13.0746 20.379 10.0316 20.2907C4.39535 20.1221 0.324707 16.6134 0.324707 10.7042C0.324707 4.81901 4.4355 1.05346 10.0397 0.965143C12.8819 0.924998 15.419 1.63957 17.4102 3.39789L15.0095 5.81459C13.7811 4.76281 11.9746 4.15261 9.80682 4.24896C6.28214 4.40953 4.15449 6.97878 4.10631 10.4954C4.05814 14.3092 6.40257 16.9426 10.0637 17.039C11.79 17.0791 13.0184 16.8543 14.0862 16.3726V12.4786H10.2805L10.5375 9.27504H17.6751L17.6832 18.436Z" fill="white"/>
<path d="M75.6519 14.7427H66.3303C66.5953 16.3485 67.8639 17.32 69.4375 17.3682C70.971 17.4083 71.8221 16.9507 72.9461 15.8106L75.1621 17.4886C73.5885 19.4316 71.6936 20.1381 69.5339 20.1381C65.7442 20.1381 62.91 17.4886 62.91 13.5384C62.91 9.58818 65.7362 6.93864 69.3974 6.93864C73.4359 6.93864 75.6438 9.38745 75.6438 13.7231L75.6519 14.7427ZM72.2476 12.1012C72.1433 10.5115 70.955 9.50789 69.3091 9.57212C67.6712 9.63635 66.5551 10.7122 66.3303 12.1012H72.2476Z" fill="white"/>
<path d="M30.8825 11.5873V19.833H27.8797L27.8075 18.5885C26.8922 19.7286 25.3988 20.1381 23.8572 20.1381C21.5449 20.1381 19.3611 18.998 19.3129 16.3404C19.2487 12.1654 24.0178 11.8683 27.0126 11.8683H27.6148V11.6997C27.6148 10.3188 26.6995 9.57208 24.9813 9.57208C23.7288 9.58011 22.5325 10.0538 21.6172 10.9129L19.6581 8.92175C21.2318 7.61304 23.223 6.90649 25.2623 6.93861C29.1643 6.93861 30.8825 8.73708 30.8825 11.5873ZM27.6148 14.3412H27.1411C25.5353 14.3412 22.7091 14.4215 22.7171 16.1076C22.7332 18.4842 27.6148 17.7214 27.6148 14.8631V14.3412Z" fill="white"/>
<path d="M82.2756 18.3638C82.2997 17.601 82.934 17.0069 83.6887 17.031C84.4514 17.055 85.0456 17.6893 85.0215 18.444C84.9974 19.1907 84.3872 19.7768 83.6485 19.7768C82.8858 19.7768 82.2756 19.1586 82.2756 18.4039C82.2756 18.3959 82.2756 18.3798 82.2756 18.3638ZM83.6485 20.0659C84.5799 20.0498 85.3346 19.2871 85.3186 18.3477C85.3025 17.4163 84.5398 16.6616 83.6004 16.6777C82.6771 16.6937 81.9304 17.4404 81.9304 18.3638C81.9223 19.2951 82.677 20.0579 83.6084 20.0659C83.6245 20.0659 83.6405 20.0659 83.6485 20.0659ZM83.2872 18.5002H83.6325L84.1463 19.3433H84.4755L83.9296 18.4842C84.2186 18.4521 84.4273 18.2915 84.4273 17.9463C84.4273 17.5609 84.2025 17.3923 83.7369 17.3923H82.9982V19.3433H83.2953L83.2872 18.5002ZM83.2872 18.2514V17.6492H83.6887C83.8974 17.6492 84.1142 17.6893 84.1142 17.9382C84.1142 18.2353 83.8894 18.2594 83.6405 18.2594L83.2872 18.2514Z" fill="white"/>
</svg>
