<svg width="194" height="36" viewBox="0 0 194 36" fill="none" xmlns="http://www.w3.org/2000/svg">
<path d="M29.9737 0.302628L59.0581 29.4895H35.6744C34.5265 29.4895 33.8113 29.6036 33.1271 29.9757C32.3431 30.4038 31.9792 30.979 31.5372 31.8705L29.9737 35.0402L28.4102 31.8705C27.9705 30.979 27.6066 30.4038 26.8203 29.9757C26.1315 29.6036 25.4163 29.4895 24.2718 29.4895H0.885864L29.9737 0.302628Z" fill="#005293"/>
<path d="M29.1257 26.4443C27.2005 27.1018 25.1793 27.4388 23.1437 27.4418C17.4614 27.4418 14.9841 24.5575 14.9841 20.8765C14.9841 16.6533 18.3568 14.1239 23.2677 14.1239C25.8357 14.1239 27.4003 14.5691 29.0706 15.2551V18.2444H28.6378C27.4325 17.3244 26.0457 16.5323 23.7464 16.5323C20.8444 16.5323 19.018 18.1303 19.018 20.7167C19.018 22.9995 20.1591 25.1145 23.8646 24.9844C24.3355 24.9619 24.8026 24.8899 25.2583 24.7698V22.4048H22.2173V20.0022H29.1257V26.4443Z" fill="white"/>
<path d="M41.5979 15.1557C40.5395 14.5611 39.1654 14.4001 37.603 14.4001H30.9622V27.1679H34.833V23.0006H37.5055C39.0127 23.0006 40.4316 22.8226 41.5703 22.18C42.9111 21.4255 43.6229 20.2396 43.6229 18.427C43.6229 16.8416 42.941 15.9159 41.5944 15.1557M39.6429 18.6427C39.6429 19.573 39.1367 20.0375 38.6029 20.2829C38.1081 20.5112 37.3792 20.598 36.726 20.598H34.8319V16.8028H36.7317C37.3849 16.8028 38.1093 16.8313 38.6086 17.0585C39.1424 17.305 39.6487 17.7125 39.6487 18.6427" fill="white"/>
<path d="M111.941 24.675C111.436 24.691 110.971 24.5769 110.633 24.3063C110.089 23.8692 109.901 23.1421 109.901 22.1662C109.901 20.5249 110.718 19.4793 112.056 19.4965C112.571 19.5072 113.074 19.6504 113.517 19.9119V24.1351C113.063 24.4779 112.511 24.6661 111.941 24.6716M116.504 17.523H113.615L113.565 17.9864C112.906 17.491 112.005 17.233 110.965 17.233C108.945 17.233 106.867 18.8379 106.825 22.221C106.788 25.2012 108.425 27.0857 110.999 27.0263C112.097 27.0012 112.835 26.6234 113.524 26.039V26.2216C113.53 26.5675 113.492 26.9128 113.409 27.2489C113.118 28.3081 112.146 28.646 110.904 28.6186C109.886 28.5957 108.901 28.2761 108.171 27.976H107.808V30.4094C108.967 30.6737 110.151 30.8118 111.339 30.8215C113.135 30.8215 115.291 30.4871 116.14 28.364C116.387 27.742 116.511 26.9818 116.511 26.0744L116.504 17.523Z" fill="white"/>
<path d="M76.2449 26.5058C75.4414 26.9521 73.6517 27.4691 71.342 27.444C67.3036 27.3972 64.5933 24.9683 64.5933 20.7657C64.5933 17.1269 67.0751 14.1455 71.4408 14.125C73.6827 14.1147 75.0373 14.4468 76.199 15.0312V17.9692H75.8477C74.6814 16.9419 73.5059 16.4717 71.8299 16.5333C69.2884 16.6258 67.9659 18.4737 67.9441 20.7805C67.9269 23.101 68.96 25.0471 71.8299 25.0288C72.2352 25.0299 72.6382 24.969 73.0249 24.8485V22.48H71.1411V20.0717H76.2484L76.2449 26.5058Z" fill="white"/>
<path d="M95.516 22.3534C95.516 24.2116 94.9524 25.3051 93.522 25.3051C92.0917 25.3051 91.5292 24.2116 91.5292 22.3534C91.5292 20.4952 92.0928 19.3995 93.522 19.3995C94.9512 19.3995 95.516 20.4952 95.516 22.3534ZM98.5959 22.3534C98.5959 19.0137 96.5595 17.2365 93.522 17.2365C90.4846 17.2365 88.4458 19.0137 88.4458 22.3534C88.4458 25.6932 90.4823 27.4692 93.522 27.4692C96.5618 27.4692 98.5959 25.6909 98.5959 22.3534Z" fill="white"/>
<path d="M106.277 20.4941H106.017C105.594 20.3542 105.151 20.2852 104.706 20.2898C104.039 20.2717 103.383 20.4647 102.833 20.8411V27.1793H99.8486V17.5264H102.833V18.9463C103.123 18.5914 103.798 17.9887 104.245 17.7855C104.664 17.5975 105.119 17.5013 105.578 17.5036C105.812 17.4996 106.045 17.5114 106.277 17.539V20.4941Z" fill="white"/>
<path d="M147.737 18.4316C147.638 15.3806 145.556 14.3945 142.801 14.3945H137.586V20.6151H133.807V23.0121H137.588V27.1793H140.759V23.0166H142.559C146.286 23.0166 147.818 20.9267 147.737 18.4316ZM141.609 20.6151H140.759V16.8017H141.961C143.453 16.8017 144.445 17.2092 144.445 18.5777C144.445 20.3149 143.156 20.6151 141.609 20.6151Z" fill="white"/>
<path d="M163.599 27.4441C160.384 27.4441 158.088 25.8461 158.088 22.3842C158.088 19.008 160.279 17.2365 163.503 17.2365C164.631 17.2354 165.742 17.4998 166.747 18.0081V20.6413H166.326C165.487 19.8515 164.772 19.4485 163.635 19.4485C162.143 19.4485 161.169 20.5112 161.169 22.3842C161.169 24.3166 162.139 25.232 163.681 25.232C164.905 25.232 165.606 24.7755 166.321 24.0667H166.743V26.6999C165.767 27.1959 164.686 27.4512 163.59 27.4441" fill="white"/>
<path d="M171.261 27.1793H168.276V17.5264H171.261V27.1793ZM171.261 16.1716H168.276V13.81H171.261V16.1716Z" fill="white"/>
<path d="M179.286 16.0951H178.949C178.587 15.9148 178.283 15.7641 177.761 15.7596C177.378 15.7596 177.072 15.8737 176.923 16.0734C176.732 16.32 176.654 16.6362 176.654 17.2548V17.5265H179.286V19.6175H176.752V27.1793H173.767V19.6175H172.383V17.5265H173.767V16.9615C173.767 15.8703 173.972 15.1535 174.52 14.5645C175.103 13.9322 176.033 13.7324 177.144 13.7153C177.866 13.702 178.587 13.7787 179.29 13.9436L179.286 16.0951Z" fill="white"/>
<path d="M190.237 27.4441C187.022 27.4441 184.733 25.8461 184.733 22.3842C184.733 19.008 186.924 17.2365 190.147 17.2365C191.275 17.2357 192.388 17.5 193.394 18.0081V20.6413H192.97C192.131 19.8515 191.417 19.4485 190.277 19.4485C188.784 19.4485 187.814 20.5112 187.814 22.3842C187.814 24.3166 188.782 25.232 190.325 25.232C191.553 25.232 192.248 24.7755 192.965 24.0667H193.397V26.6999C192.42 27.1959 191.337 27.4512 190.24 27.4441" fill="white"/>
<path d="M183.51 27.1793H180.525V17.5264H183.51V27.1793ZM183.51 16.1716H180.525V13.81H183.51V16.1716Z" fill="white"/>
<path d="M121.494 27.1793H118.509V17.5264H121.494V27.1793ZM121.494 16.1716H118.509V13.81H121.494V16.1716Z" fill="white"/>
<path d="M87.2932 22.487C87.2932 21.3273 87.0934 20.0364 86.423 19.0628C85.7113 18.0355 84.4715 17.2662 82.698 17.2365C79.1669 17.1783 77.4932 19.4508 77.4932 22.4756C77.4932 25.7628 79.9957 27.4441 83.2559 27.4441C85.0788 27.4441 86.1372 27.0138 87.129 26.4739V24.1626H86.7973C85.8215 24.8942 84.7643 25.3519 83.5118 25.3382C81.4318 25.312 80.6248 24.263 80.5444 23.1193H87.2932V22.487ZM80.5536 21.2976C80.5576 20.8375 80.6999 20.3891 80.9623 20.0101C81.3652 19.4554 81.8404 19.2454 82.5912 19.2351C83.7196 19.2237 84.3326 20.0626 84.3659 21.2976H80.5536Z" fill="white"/>
<path d="M152.236 25.353C151.237 25.4352 150.683 25.1407 150.656 24.2847C150.628 23.3316 151.417 22.9709 152.639 22.8008C153.112 22.7358 153.547 22.6924 153.95 22.657V24.6682C153.585 24.9901 152.847 25.3039 152.236 25.353ZM153.95 27.1793H156.892V20.6036C156.892 19.4432 156.517 18.5921 155.767 18.0503C155.019 17.5093 153.93 17.2365 152.244 17.2365C151.636 17.2365 149.833 17.4077 148.709 17.7113V20.0078H148.983C149.786 19.5752 150.643 19.2613 151.685 19.2499C152.395 19.2431 152.971 19.3116 153.343 19.5056C153.906 19.8035 153.97 20.2327 153.97 20.7828V20.8353C153.095 20.8879 152.251 20.9677 151.438 21.075C148.745 21.4323 147.657 22.568 147.657 24.4148C147.657 26.2616 149.012 27.3722 150.756 27.4441C152.126 27.5 153.074 27.1519 153.959 26.3335L153.95 27.1793Z" fill="white"/>
<path d="M127.579 25.353C126.578 25.4352 126.027 25.1407 125.999 24.2847C125.97 23.3316 126.757 22.9709 127.98 22.8008C128.45 22.7358 128.885 22.6924 129.29 22.657V24.6682C128.924 24.9901 128.188 25.3039 127.579 25.353ZM129.29 27.1793H132.225V20.6036C132.225 19.4428 131.857 18.5936 131.104 18.0503C130.351 17.507 129.139 17.2365 127.452 17.2365C126.842 17.2365 124.927 17.4077 123.806 17.7113V20.0078H124.078C124.941 19.5322 125.906 19.2721 126.892 19.2499C127.605 19.2431 128.308 19.3116 128.679 19.5056C129.242 19.8035 129.304 20.2327 129.304 20.7828V20.8353C128.432 20.8879 127.587 20.9677 126.772 21.075C124.087 21.4323 122.99 22.568 122.99 24.4148C122.99 26.2616 124.347 27.3722 126.09 27.4441C127.455 27.5 128.403 27.1519 129.289 26.3335L129.29 27.1793Z" fill="white"/>
</svg>
