<svg width="74" height="30" viewBox="0 0 74 30" fill="none" xmlns="http://www.w3.org/2000/svg">
<path d="M0.894287 0.227509V2.21926H15.0606V0.227509H0.894287ZM17.0677 0.227509V2.21926H37.2554C37.2554 2.21926 35.1933 0.227509 32.4622 0.227509H17.0677ZM41.2156 0.227509V2.21926H53.4288L52.7039 0.227509H41.2156ZM62.1851 0.227509L61.4601 2.21926H73.5625V0.227509H62.1851ZM0.894287 4.10096V6.09271H15.0606V4.10096H0.894287ZM17.0677 4.1038V6.09278H39.5979C39.5979 6.09278 39.3348 4.55984 38.8758 4.1038H17.0677ZM41.2156 4.1038V6.09278H54.7678L54.0969 4.1038H41.2156ZM60.7351 4.1038L60.0642 6.09278H73.5625V4.1038H60.7351ZM4.96533 7.97442V9.969H11.1004V7.97442H4.96533ZM21.1388 7.97442V9.969H27.2739V7.97442H21.1388ZM33.2412 7.97442V9.969H39.3762C39.3762 9.969 39.7657 8.91567 39.7657 7.97442H33.2412ZM45.2867 7.97442V9.969H56.1637L55.4388 7.97442H45.2867ZM59.399 7.97442L58.6712 9.969H69.6023V7.97442H59.399ZM4.96533 11.8508V13.8425H11.1004V11.8508H4.96533ZM21.1388 11.8508V13.8425H36.809C36.809 13.8425 38.1199 12.8206 38.5375 11.8508H21.1388ZM45.2867 11.8508V13.8425H51.4218V12.7338L51.8113 13.8425H63.0494L63.4673 12.7338V13.8425H69.6023V11.8508H58.0856L57.4744 13.5378L56.8602 11.8508H45.2867ZM4.96533 15.7242V17.716H11.1004V15.7242H4.96533ZM21.1388 15.7242V17.716H38.5375C38.1198 16.7494 36.809 15.7242 36.809 15.7242H21.1388ZM45.2867 15.7242V17.716H51.4218V15.7242H45.2867ZM52.5361 15.7242L53.2781 17.716H61.7046L62.4096 15.7242H52.5361ZM63.4672 15.7242V17.716H69.6023V15.7242H63.4672ZM4.96533 19.5977V21.5894H11.1004V19.5977H4.96533ZM21.1388 19.5977V21.5894H27.2739V19.5977H21.1388ZM33.2412 19.5977V21.5894H39.7657C39.7657 20.6494 39.3762 19.5977 39.3762 19.5977H33.2412ZM45.2867 19.5977V21.5894H51.4218V19.5977H45.2867ZM53.9292 19.5977L54.6485 21.5894H60.2974L61.0223 19.5977H53.9292ZM63.4672 19.5977V21.5894H69.6023V19.5977H63.4672ZM1.00513 23.4711V25.4657H15.1714V23.4711H1.00513ZM17.0677 23.4711V25.4657H38.8758C39.3348 25.009 39.5979 23.4711 39.5979 23.4711H17.0677ZM41.3265 23.4711V25.4657H51.4218V23.4711H41.3265ZM55.325 23.4711L56.0642 25.4657H58.9384L59.632 23.4711H55.325ZM63.4672 23.4711V25.4657H73.6734V23.4711H63.4672ZM1.00513 27.3474V29.3392H15.1714V27.3474H1.00513ZM17.0677 27.3474V29.3363H32.4622C35.1933 29.3363 37.2554 27.3474 37.2554 27.3474H17.0677ZM41.3265 27.3474V29.3392H51.4218V27.3474H41.3265ZM56.7266 27.3474L57.4374 29.3336L57.5597 29.3363L58.2818 27.3474H56.7266ZM63.4672 27.3474V29.3392H73.6734V27.3474H63.4672Z" fill="white"/>
</svg>
