<svg width="192" height="19" viewBox="0 0 192 19" fill="none" xmlns="http://www.w3.org/2000/svg">
<path d="M19.7196 17.0619C17.8549 17.0619 16.8142 15.2621 16.8142 12.0046C16.8142 8.69667 17.8549 6.94725 19.7196 6.94725C21.5857 6.94725 22.625 8.72376 22.625 12.0046C22.6225 15.3125 21.5819 17.0619 19.7196 17.0619ZM19.7196 5.59261C15.9192 5.59261 13.8139 8.47863 13.8139 12.0046C13.8139 15.5305 15.9192 18.4178 19.7196 18.4178C23.5201 18.4178 25.6267 15.5305 25.6267 12.0059C25.6267 8.47863 23.5201 5.59261 19.7196 5.59261ZM46.1278 5.59132C44.3339 5.59132 43.3426 6.38217 42.7856 7.39105H42.64V5.83902H39.784V18.1727H42.64V10.2061C42.64 8.38187 43.5616 7.3188 45.0378 7.3188C46.4683 7.3188 47.095 8.28124 47.095 9.7378V18.174H49.951V9.70942C49.9535 7.16915 48.647 5.59132 46.1278 5.59132ZM56.4378 5.59132C53.8008 5.59132 51.817 6.72663 51.817 9.14434C51.817 11.1944 53.1969 12.3052 54.7452 12.6974L57.1645 13.314C58.4494 13.6327 59.0305 14.1049 59.0305 15.1409C59.0305 16.3988 58.1583 17.1148 56.6328 17.1148C54.9858 17.1148 54.1401 16.302 53.873 14.2558L51.3081 14.9964C51.4524 17.1186 53.3906 18.4243 56.3201 18.4243C59.5888 18.4243 61.3548 16.8697 61.3548 14.4042C61.3548 12.0858 59.78 11.1234 58.1355 10.7015L55.8112 10.1107C54.649 9.81392 54.1401 9.27207 54.1401 8.48121C54.1401 7.49555 54.963 6.90338 56.1973 6.90338C57.6506 6.90338 58.5444 7.71746 58.6659 9.27207L61.0877 8.53282C60.7966 6.79888 59.1255 5.59132 56.4378 5.59132ZM68.4468 17.0619C66.5808 17.0619 65.5414 15.2621 65.5414 12.0046C65.5414 8.69667 66.5808 6.94725 68.4468 6.94725C70.3116 6.94725 71.3522 8.72376 71.3522 12.0046C71.3522 15.3125 70.3091 17.0619 68.4468 17.0619ZM68.4468 5.59261C64.6464 5.59261 62.5398 8.47863 62.5398 12.0046C62.5398 15.5305 64.6464 18.4178 68.4468 18.4178C72.2472 18.4178 74.3538 15.5305 74.3538 12.0059C74.3538 8.47863 72.2472 5.59261 68.4468 5.59261ZM82.3902 5.59132C80.5976 5.59132 79.6063 6.38217 79.048 7.39105H78.9037V5.83902H76.0477V18.1727H78.9037V10.2061C78.9037 8.38187 79.8241 7.3188 81.3002 7.3188C82.7307 7.3188 83.3574 8.28124 83.3574 9.7378V18.174H86.2134V9.70942C86.2134 7.16915 84.9057 5.59132 82.3902 5.59132ZM124.823 17.0619C122.958 17.0619 121.918 15.2621 121.918 12.0046C121.918 8.69667 122.958 6.94725 124.823 6.94725C126.689 6.94725 127.728 8.72376 127.728 12.0046C127.728 15.3125 126.685 17.0619 124.823 17.0619ZM124.823 5.59261C121.023 5.59261 118.917 8.47863 118.917 12.0046C118.917 15.5305 121.023 18.4178 124.823 18.4178C128.623 18.4178 130.73 15.5305 130.73 12.0059C130.73 8.47863 128.623 5.59261 124.823 5.59261ZM151.231 5.59132C149.437 5.59132 148.447 6.38217 147.889 7.39105H147.743V5.83902H144.887V18.1727H147.743V10.2061C147.743 8.38187 148.665 7.3188 150.141 7.3188C151.572 7.3188 152.198 8.28124 152.198 9.7378V18.174H155.054V9.70942C155.057 7.16915 153.75 5.59132 151.231 5.59132ZM161.545 5.59132C158.907 5.59132 156.923 6.72663 156.923 9.14434C156.923 11.1944 158.303 12.3052 159.851 12.6974L162.272 13.314C163.555 13.6327 164.136 14.1049 164.136 15.1409C164.136 16.3988 163.265 17.1148 161.74 17.1148C160.093 17.1148 159.246 16.302 158.98 14.2558L156.414 14.9964C156.56 17.1186 158.498 18.4243 161.427 18.4243C164.695 18.4243 166.461 16.8697 166.461 14.4042C166.461 12.0858 164.886 11.1234 163.243 10.7015L160.918 10.1107C159.756 9.81392 159.247 9.27207 159.247 8.48121C159.247 7.49555 160.07 6.90338 161.304 6.90338C162.756 6.90338 163.651 7.71746 163.773 9.27207L166.194 8.53282C165.9 6.79888 164.229 5.59132 161.545 5.59132ZM173.55 17.0619C171.684 17.0619 170.645 15.2621 170.645 12.0046C170.645 8.69667 171.684 6.94725 173.55 6.94725C175.416 6.94725 176.456 8.72376 176.456 12.0046C176.456 15.3125 175.412 17.0619 173.55 17.0619ZM173.55 5.59261C169.75 5.59261 167.643 8.47863 167.643 12.0046C167.643 15.5305 169.75 18.4178 173.55 18.4178C177.351 18.4178 179.457 15.5305 179.457 12.0059C179.457 8.47863 177.351 5.59261 173.55 5.59261ZM187.493 5.59132C185.701 5.59132 184.71 6.38217 184.151 7.39105H184.007V5.83902H181.151V18.1727H184.007V10.2061C184.007 8.38187 184.927 7.3188 186.404 7.3188C187.834 7.3188 188.461 8.28124 188.461 9.7378V18.174H191.317V9.70942C191.317 7.16915 190.009 5.59132 187.493 5.59132ZM12.1188 0.904267H9.11842V13.6572C9.11842 15.7292 8.34238 16.96 6.50292 16.96C4.68752 16.96 3.8887 15.6518 3.8887 13.4082V11.0383L0.887085 11.8033V12.8625C0.887085 16.093 2.46195 18.5623 6.50292 18.5623C10.5452 18.5623 12.12 16.0956 12.12 12.8625V0.904267M30.1766 0.904267H27.3205V18.1727H30.1766V10.2048C30.1766 8.38058 31.0982 7.31751 32.573 7.31751C34.0036 7.31751 34.6302 8.27995 34.6302 9.73651V18.1727H37.4863V9.70942C37.4863 7.16915 36.1785 5.59132 33.663 5.59132C31.8704 5.59132 30.8804 6.38217 30.3209 7.39105H30.1766V0.904267ZM117.223 0.904267H114.222V13.6572C114.222 15.7292 113.446 16.96 111.606 16.96C109.791 16.96 108.992 15.6518 108.992 13.4082V11.0383L105.99 11.802V12.8612C105.99 16.0917 107.565 18.561 111.606 18.561C115.648 18.561 117.223 16.0943 117.223 12.8612V0.904267ZM135.28 0.904267H132.424V18.1727H135.28V10.2048C135.28 8.38058 136.201 7.31751 137.676 7.31751C139.107 7.31751 139.734 8.27995 139.734 9.73651V18.1727H142.59V9.70942C142.59 7.16915 141.282 5.59132 138.766 5.59132C136.974 5.59132 135.984 6.38217 135.424 7.39105H135.28V0.904267ZM95.6297 16.7664C93.3054 16.7664 91.8786 14.8429 91.8786 12.7967C91.8786 11.5143 92.4369 10.33 93.3548 9.66426L98.8263 15.7576C97.8084 16.373 96.6703 16.7664 95.6297 16.7664ZM100.956 13.7321L96.2108 8.40252C96.9571 8.09662 97.7535 7.93771 98.5579 7.9342C100.52 7.9342 101.728 9.09532 101.728 11.095C101.728 12.032 101.46 12.9486 100.956 13.7321ZM95.5563 7.68778L94.5156 6.50344C93.594 5.46746 93.3307 4.82498 93.3307 4.05993C93.3307 2.63046 94.2257 1.8151 95.6284 1.8151C97.059 1.8151 97.9034 2.65369 97.9034 4.18507C97.9034 5.59132 97.2261 6.92402 95.5563 7.68778ZM95.7019 0.510777C92.361 0.510777 90.7165 2.41243 90.7165 4.77724C90.7165 6.05964 91.2482 7.34461 92.6547 8.89535L92.6775 8.94695C90.3076 10.1081 89.2176 11.9813 89.2176 13.9062C89.2176 16.4465 91.1292 18.5688 94.0839 18.5688C95.7778 18.5688 97.7629 17.8527 99.5555 16.5703L101.008 18.1753H104.808V18.0514L101.711 14.5719C103.019 12.9941 103.769 11.2679 103.769 9.75974C103.769 7.88646 102.533 6.62729 100.599 6.62729C99.5821 6.62729 98.4427 6.92402 97.6932 7.22075L97.6426 7.1227C99.4833 6.10995 100.258 5.1746 100.258 3.86512C100.253 1.99185 98.6073 0.510777 95.7019 0.510777Z" fill="white"/>
</svg>
