<svg width="179" height="22" viewBox="0 0 179 22" fill="none" xmlns="http://www.w3.org/2000/svg">
<mask id="mask0_859_2020" style="mask-type:luminance" maskUnits="userSpaceOnUse" x="0" y="0" width="179" height="22">
<path d="M178.361 0.0579834H0.298828V21.3558H178.361V0.0579834Z" fill="white"/>
</mask>
<g mask="url(#mask0_859_2020)">
<path d="M29.4777 8.06558C32.0317 6.04564 33.5241 3.46159 34.1013 1.05627H30.4166C29.8632 3.89164 28.1533 6.79404 25.6961 8.51798H25.455V1.05627H21.6023V16.3892H25.455V10.5826L27.2143 9.5177C29.0211 11.2863 30.1043 14.1664 30.5392 16.3892H34.9454C34.295 13.1517 32.1997 9.9701 29.4777 8.06558Z" fill="white"/>
<path d="M40.1271 4.95248H36.3694V16.387H40.1271V4.95248Z" fill="white"/>
<path d="M40.1939 0.0579834H36.2917V3.07766H40.1939V0.0579834Z" fill="white"/>
<path d="M57.7973 4.84467C56.2318 4.84467 54.6662 5.41248 53.7508 6.84041H53.5335C52.9305 5.52604 51.6792 4.84467 49.8725 4.84467C48.2832 4.84467 46.8164 5.41248 45.9229 6.84041H45.7074L45.1283 5.04945H41.7559L42.1652 8.83801V16.391H45.9229V10.0407C45.9229 8.22551 46.6702 6.84226 48.3069 6.84226C49.2952 6.84226 50.1848 7.3412 50.1848 9.40583V16.391H53.9427V10.0407C53.9427 8.29254 54.6898 6.84226 56.3266 6.84226C57.313 6.84226 58.2046 7.3412 58.2046 9.40583V16.391H61.9603V8.86035C61.9603 6.25211 60.4185 4.84653 57.7953 4.84653" fill="white"/>
<path d="M69.5097 14.5979C68.711 14.5979 68.0072 14.3912 67.3925 14.0953V10.0386C67.3925 8.26994 68.1634 6.84016 69.8002 6.84016C71.4369 6.84016 72.1842 8.20106 72.1842 10.787C72.1842 12.7138 71.7256 14.5979 69.5097 14.5979ZM71.3895 4.84441C69.8239 4.84441 68.284 5.41223 67.4163 6.84016H67.3925V0.0579834H63.6348V15.7111C64.0439 15.8434 64.4709 15.9606 64.9097 16.0648C66.3606 16.4074 67.9421 16.5918 69.4405 16.5918C73.2912 16.5918 76.0626 15.1173 76.0626 10.6045C76.0626 6.99654 74.4733 4.84441 71.3895 4.84441Z" fill="white"/>
<path d="M85.2401 9.81169H80.9546C80.9546 7.58881 81.941 6.84041 83.2673 6.84041C84.495 6.84041 85.2895 7.49759 85.2895 9.17684C85.2895 9.42631 85.2659 9.56222 85.2421 9.81169M83.5302 4.84467C79.9642 4.84467 77.0742 6.36382 77.0742 10.6271C77.0742 14.8904 79.7961 16.5921 83.4572 16.5921C85.335 16.5921 86.9006 16.3202 88.5374 15.8436V13.2298L88.2487 13.4383C87.2604 14.0732 85.8886 14.5963 84.3724 14.5963C82.2908 14.5963 81.0079 13.6263 80.9605 11.4891H88.7944L88.8498 11.2396C88.994 10.6048 89.0415 9.94759 89.0415 9.37977C89.0415 6.70451 87.3316 4.84467 83.5282 4.84467" fill="white"/>
<path d="M94.1647 7.31651H93.9472L93.3206 5.04895H89.9819L90.3832 8.83753V16.3904H94.1389V10.0402C94.1389 8.79285 94.983 8.11145 96.7187 8.11145C97.1259 8.11145 97.9442 8.18965 98.3298 8.25853V4.84604C96.2818 4.84604 94.8862 5.75269 94.1647 7.31838" fill="white"/>
<path d="M103.932 14.5067C103.258 14.5067 103.042 14.1213 103.042 13.5088V0.0579834H99.2847V13.8029C99.2847 15.8452 100.656 16.4559 102.44 16.4559C103.137 16.4559 103.885 16.3647 104.606 16.2288V14.3856L104.438 14.4377C104.27 14.4825 104.1 14.5047 103.932 14.5047" fill="white"/>
<path d="M109.505 16.3964C108.26 17.9807 106.702 18.4536 104.482 18.4536V21.3559C107.805 21.3559 110.624 19.0437 112.381 16.3889C114.573 13.077 115.919 8.65546 116.38 5.04935H112.6C112.432 8.65546 111.468 12.2616 110.505 14.5757H110.361C109.398 12.2616 108.435 8.67966 108.267 5.04935H104.318C104.559 8.5419 106.291 13.602 108.256 16.4131" fill="white"/>
<path d="M117.248 10.8538H123.524L123.828 8.47827H117.683L117.248 10.8538Z" fill="white"/>
<path d="M129.564 8.72217C129.564 4.86658 131.083 2.84663 133.899 2.84663C135.271 2.84663 136.91 3.44797 137.922 4.33226V1.64584C136.669 1.12456 135.058 0.875092 133.516 0.875092C128.264 0.875092 125.544 3.71046 125.544 8.72217C125.544 13.7339 128.483 16.5916 133.445 16.5916C134.961 16.5916 136.647 16.2974 138.019 15.6383V12.9389C136.912 13.9368 135.273 14.5959 133.901 14.5959C131.229 14.5959 129.566 12.5312 129.566 8.7203" fill="white"/>
<path d="M173.732 10.2191C176.549 8.88059 177.708 6.72659 178.018 5.04734H174.045C173.756 7.13431 172.553 8.85824 171.035 9.72021V0.0579834H167.3V16.3888H171.035V11.513L171.879 11.1053C173.297 12.2856 174.141 14.3037 174.406 16.3907H178.356C178.067 13.8961 176.575 11.3101 173.732 10.221" fill="white"/>
<path d="M162.191 7.31651H161.973L161.348 5.04895H158.009L158.41 8.83753V16.3904H162.166V10.0402C162.166 8.79285 163.01 8.11145 164.743 8.11145C165.15 8.11145 165.969 8.18965 166.354 8.25853V4.84604C164.307 4.84604 162.911 5.75269 162.19 7.31838" fill="white"/>
<path d="M152.917 11.5803C152.917 13.2353 152.268 14.5963 150.652 14.5963C149.401 14.5963 148.969 13.6878 148.969 12.7364C148.969 11.4444 149.643 10.9213 150.87 10.9213H152.917V11.5803ZM156.675 8.72259C156.675 6.13669 154.843 4.84467 151.04 4.84467C149.258 4.84467 147.738 5.09413 146.078 5.50185V7.84201C147.138 7.38775 148.751 6.83854 150.172 6.83854C151.833 6.83854 152.917 7.40637 152.917 8.78962V9.37977H150.099C147.907 9.37977 145.211 9.96993 145.211 13.0082C145.211 14.8458 146.27 16.5921 149.014 16.5921C150.627 16.5921 152.024 16.0018 152.892 14.6185H153.107L153.71 16.3872H157.077L156.674 12.5986V8.72072L156.675 8.72259Z" fill="white"/>
<path d="M144.006 14.5067C143.332 14.5067 143.117 14.1213 143.117 13.5088V0.0579834H139.359V13.8029C139.359 15.8452 140.731 16.4559 142.514 16.4559C143.212 16.4559 143.96 16.3647 144.68 16.2288V14.3856L144.513 14.4377C144.345 14.4825 144.175 14.5047 144.006 14.5047" fill="white"/>
<path d="M14.9034 12.472V9.54171C14.3222 9.54171 13.3556 9.54171 13.1164 9.53799C12.9108 9.53427 12.5392 9.56778 12.2545 9.30527C12.0647 9.13027 12.0351 8.85846 12.1794 8.52895C12.2169 8.4433 12.2881 8.32416 12.385 8.17894C12.5154 7.98347 14.506 5.51858 14.8975 5.02895H11.1119C10.936 5.21511 10.0208 6.4699 9.51274 7.32629C9.48308 7.37655 9.4475 7.4324 9.41984 7.48081V2.52869H5.78259V7.48081C5.75493 7.4324 5.72131 7.37655 5.68968 7.32629C5.17969 6.47177 4.26643 5.21511 4.09049 5.02895H0.305003C0.6964 5.51858 2.687 7.98347 2.81746 8.17894C2.91432 8.32416 2.98548 8.4433 3.02304 8.52895C3.16537 8.85846 3.1377 9.12841 2.94793 9.30527C2.66327 9.56778 2.29164 9.53612 2.08607 9.53799C1.84688 9.54171 0.880239 9.54171 0.299072 9.54171V12.472H3.37293C4.63806 12.4813 5.38527 11.6547 5.64027 11.2731C5.68377 11.2098 5.71538 11.1558 5.73911 11.1148C5.76283 11.0739 5.77667 11.0478 5.78457 11.0385V14.1067H9.4218V11.0385C9.4218 11.0385 9.44355 11.0739 9.46728 11.1148C9.491 11.1558 9.52263 11.2098 9.56611 11.2731C9.82111 11.6547 10.5683 12.4832 11.8335 12.472" fill="white"/>
</g>
</svg>
