<svg width="172" height="30" viewBox="0 0 172 30" fill="none" xmlns="http://www.w3.org/2000/svg">
<path fill-rule="evenodd" clip-rule="evenodd" d="M171.851 11.5043H159.286C160.935 5.3 162.426 0.0386772 162.426 0.0386772C162.426 0.0386772 156.772 6.08549 151.746 11.5043H101.957C101.644 11.5043 101.644 11.6617 101.957 11.6617C102.115 11.6617 150.803 12.525 150.803 12.525C146.877 16.6869 144.757 19.0433 144.68 19.1221C144.522 19.2795 144.68 19.3583 144.835 19.2008C144.914 19.1221 147.743 16.5294 151.746 12.525L157.951 12.6038C157.557 14.41 157.245 16.0588 156.772 18.0226C149.156 22.1066 136.748 28.7814 136.748 28.7814C136.59 28.8601 136.669 29.0176 136.827 28.9389C136.905 28.8601 148.449 23.0486 156.536 18.9646C155.202 25.0114 154.339 29.1723 154.339 29.251C154.26 29.3298 154.418 29.4085 154.497 29.251C154.497 29.1723 155.673 25.0114 157.402 18.5709C164.625 14.8815 171.851 11.5043 171.851 11.5043ZM152.767 11.5043C156.536 7.81302 159.678 4.82852 159.678 4.82852C159.678 4.82852 159.129 7.42027 158.187 11.5043H152.767ZM158.972 12.6047L166.51 12.7612C166.51 12.7612 162.741 14.8028 157.637 17.5511C158.108 15.8235 158.5 14.3322 158.972 12.6047Z" fill="white"/>
<path fill-rule="evenodd" clip-rule="evenodd" d="M1.75349 15.1964H3.95158L3.08828 19.2804H5.12982L4.8158 20.8496H0.574341L1.75349 15.1964ZM12.7467 15.1177C14.7104 15.1177 15.4172 16.2959 15.0244 18.0235C14.6317 19.751 13.4544 20.9292 11.4906 20.9292C9.60565 20.9292 8.89889 19.751 9.29163 18.0235C9.60656 16.2959 10.8626 15.1177 12.7467 15.1177ZM11.8047 19.5139C12.1974 19.5139 12.4336 19.2795 12.7467 18.0225C12.9829 16.7656 12.8254 16.5294 12.4327 16.5294C12.1187 16.5294 11.8037 16.7656 11.5694 18.0225C11.2544 19.2804 11.4906 19.5139 11.8047 19.5139ZM24.291 18.7293C23.977 20.3012 22.6422 20.9283 21.2287 20.9283C19.265 20.9283 18.637 19.7501 19.0297 18.0225C19.3437 16.2163 20.5998 15.1168 22.4848 15.1168C23.8983 15.1168 24.9978 15.6661 24.605 17.3158H22.5635C22.721 16.6859 22.4848 16.5294 22.2495 16.5294C21.6205 16.5294 21.464 17.1592 21.3074 18.0225C21.0712 18.8859 20.9934 19.5139 21.5427 19.5139C21.8567 19.5139 22.0929 19.3582 22.2495 18.7293H24.291ZM29.8673 15.1964H31.9875L31.5161 17.6298L33.1658 15.1964H35.5213L33.4798 17.866L34.5006 20.8496H32.1441L31.3586 18.3375L30.8093 20.8496H28.689L29.8673 15.1964ZM42.4324 18.7293H41.4894L41.0967 20.8496H38.8977L40.0759 15.1964H42.2749L41.8822 17.0805H42.8242L43.2178 15.1964H45.4159L44.2377 20.8496H42.0387L42.4324 18.7293ZM50.442 15.1964H54.6834L54.3685 16.6878H52.2482L52.0908 17.3167H54.0545L53.7405 18.7293H51.7768L51.6202 19.3592H53.8192L53.5043 20.8496H49.1859L50.442 15.1964ZM59.7873 15.1964H64.0278L63.7138 16.6878H61.5936L61.4361 17.3167H63.3998L63.1645 18.7293H61.1221L61.0434 19.3592H63.2433L62.9283 20.8496H58.6091L59.7873 15.1964ZM69.1326 15.1964H71.8022C74.0012 15.1964 74.4727 16.4534 74.1587 18.1022C73.7659 19.751 72.4311 20.8505 70.7036 20.8505H67.9553L69.1326 15.1964ZM70.3887 19.5139H70.6239C71.0167 19.5139 71.252 19.4351 71.4094 19.2008C71.6447 18.9646 71.7234 18.5709 71.8809 18.0225C71.9596 17.4714 72.0375 17.0805 71.8809 16.8443C71.8022 16.6081 71.6456 16.5294 71.252 16.5294H71.0954L70.3887 19.5139ZM88.6078 16.8443L86.959 20.8496H84.9166L84.9953 16.8443L84.132 20.8496H82.247L83.4252 15.1964H86.4876L86.4088 18.5718L87.7445 15.1964H90.8068L89.6286 20.8496H87.7445L88.6078 16.8443ZM96.9333 15.1964H99.7603L100.388 20.8505H98.1106L98.0319 19.9085H96.4618L96.0682 20.8505H93.9497L96.9333 15.1964ZM98.031 18.5718V16.4534L97.0889 18.5718H98.031ZM106.356 15.1964H109.656C110.832 15.1964 111.462 15.5883 111.226 16.609C111.068 17.3167 110.754 17.7873 109.811 17.9447V18.0235C110.363 18.0235 110.598 18.2597 110.598 18.7293C110.675 19.2017 110.44 19.9863 110.519 20.8496H108.399C108.32 20.379 108.399 19.6713 108.478 19.2008C108.478 18.9646 108.32 18.8071 108.005 18.8071H107.692L107.298 20.8487H105.099L106.356 15.1964ZM108.163 17.5511C108.635 17.5511 108.947 17.3936 109.026 17.0018C109.105 16.6081 108.869 16.5294 108.398 16.5294H108.241L108.004 17.5502L108.163 17.5511ZM117.351 16.7665H116.016L116.33 15.1964H121.278L120.963 16.7665H119.627L118.764 20.8496H116.487L117.351 16.7665ZM126.225 15.1964H128.422L127.246 20.8496H125.047L126.225 15.1964ZM133.685 15.1964H136.354L136.827 18.5718L137.611 15.1964H139.339L138.161 20.8496H135.491L135.097 17.3936H135.019L134.313 20.8496H132.506L133.685 15.1964Z" fill="white"/>
</svg>
