<svg width="117" height="37" viewBox="0 0 117 37" fill="none" xmlns="http://www.w3.org/2000/svg">
<path d="M2.63606 2.08633C2.63606 1.80892 1.85765 1.06777 1.5968 1.06777H0.930176V0.397003H4.86365L8.90478 10.5785H8.99587L13.2647 0.397003H16.7883V1.06362H16.1217C15.8608 1.06362 15.0824 1.80478 15.0824 2.08219V12.2099C15.0824 12.4873 15.8608 13.2284 16.1217 13.2284H16.7883V13.8951H11.5588V13.2284H12.2255C12.4863 13.2284 13.2647 12.4873 13.2647 12.2099V2.38031L8.34995 14.1393L3.43518 2.17742V12.2099C3.43518 12.4873 4.21359 13.2284 4.47444 13.2284H5.14107V13.8951H0.930176V13.2284H1.5968C1.85765 13.2284 2.63606 12.4873 2.63606 12.2099V2.08633Z" fill="white"/>
<path d="M22.4696 8.13141C22.7098 6.77747 22.4862 5.55188 20.9873 5.55188C19.2442 5.55188 18.3912 6.94309 18.3912 9.00092C18.3912 10.947 19.6334 12.5618 21.6374 12.5618C23.157 12.5618 23.807 12.0235 24.4198 11.0049H24.9581C24.3826 12.9137 23.2149 14.1227 21.0246 14.1227C18.5941 14.1227 17.0166 12.0442 17.0166 9.55988C17.0166 6.7402 18.8881 4.88525 21.1902 4.88525C22.5607 4.88525 23.4882 5.31173 24.2873 6.11084L23.0079 8.09415L22.4696 8.13141Z" fill="white"/>
<path d="M40.1284 3.0677C40.7784 3.0677 41.2587 2.62053 41.2587 1.93734C41.2587 1.25416 40.7784 0.823547 40.1284 0.823547C39.4783 0.823547 38.9773 1.25002 38.9773 1.93734C38.9773 2.62467 39.4783 3.0677 40.1284 3.0677Z" fill="white"/>
<path d="M52.5539 13.2326C52.2931 13.2326 51.5892 12.6032 51.5892 12.3051V7.42758C51.5892 5.92458 50.5127 4.92258 49.1587 4.92258C47.5812 4.92258 46.7655 5.83349 45.7097 6.90588L45.3743 5.1089H42.6126V5.77552H43.1509C43.4117 5.77552 44.1156 6.42558 44.1156 6.70299V12.3051C44.1156 12.6032 43.4117 13.2326 43.1509 13.2326H42.0743C41.8342 13.2326 41.1096 12.6032 41.1096 12.3051V5.1089H37.9752V5.77552H38.5135C38.7744 5.77552 39.4782 6.42558 39.4782 6.70299V12.3051C39.4782 12.6032 38.7744 13.2326 38.5135 13.2326H37.5322C37.2548 13.2326 36.1576 12.3962 35.9381 12.1022L31.2097 5.81279L34.4931 2.28921C34.6794 2.08633 35.9588 1.06362 36.2197 1.06362H36.8697V0.397003H31.9715V1.06362H32.6216C32.8824 1.06362 33.6401 1.9911 33.4372 2.23125L28.6136 7.60977V2.08633C28.6136 1.80892 29.392 1.06777 29.6528 1.06777H30.3195V0.397003H25.0527V1.06362H25.7194C25.9802 1.06362 26.7586 1.80478 26.7586 2.08219V12.2099C26.7586 12.4873 25.9802 13.2284 25.7194 13.2284H25.0527V13.8951H30.3195V13.2284H29.6528C29.392 13.2284 28.6136 12.4873 28.6136 12.2099V8.62833L29.9882 7.14603L34.6628 13.8951H47.2003V13.2284H46.6993C46.4384 13.2284 45.7345 12.5991 45.7345 12.301V7.82921C45.7345 7.23712 47.3493 6.01153 48.5915 6.01153C49.5355 6.01153 49.9827 6.66159 49.9827 7.51453V12.301C49.9827 12.5991 49.2788 13.2284 49.018 13.2284H48.517V13.8951H53.0053V13.2284H52.5622L52.5539 13.2326Z" fill="white"/>
<path d="M54.1818 10.8186C54.1818 11.6343 55.3701 13.3981 57.2623 13.3981C58.3554 13.3981 58.9682 13.0089 58.9682 12.1932C58.9682 11.2119 58.0946 10.8766 57.3162 10.5412C56.7034 10.2803 56.2024 10.0774 55.4985 9.76277C54.4427 9.28247 53.6435 8.57444 53.6435 7.36956C53.6435 5.79202 54.5876 4.88525 56.2769 4.88525C57.2416 4.88525 57.7799 5.34899 58.4465 5.34899C58.7074 5.34899 58.8564 5.29516 58.9268 5.10884H59.4071V7.81673H58.8689C58.8689 7.09214 57.8503 5.55188 56.2148 5.55188C55.1962 5.55188 54.7118 5.99905 54.7118 6.7195C54.7118 7.48135 55.2294 7.75876 56.1403 8.14797C56.8069 8.42539 57.3079 8.64897 58.0325 8.92639C58.9765 9.29903 60.053 10.0567 60.053 11.4687C60.053 13.1373 58.902 14.1227 57.2541 14.1227C56.1403 14.1227 55.4902 13.6052 54.7325 13.6052C54.3806 13.6052 54.2895 13.6963 54.0659 13.9033H53.6394V10.8227H54.1777L54.1818 10.8186Z" fill="white"/>
<path d="M60.6035 9.50197C60.6035 6.90587 62.3674 4.8853 64.6281 4.90187C66.6114 4.91843 67.7252 6.27237 67.8163 7.9824L67.8535 8.61176L62.0113 9.0755C62.0113 10.8394 63.2369 12.5825 65.2202 12.5825C66.7232 12.5825 67.4105 12.007 67.9446 11.005H68.4829C67.9073 12.9137 66.8143 14.1021 64.6612 14.1021C62.2142 14.1021 60.5994 11.9697 60.5994 9.50197H60.6035ZM66.3505 8.07763C66.4996 6.83548 66.2967 5.57263 64.5867 5.57263C62.769 5.57263 62.0444 7.07563 61.9906 8.44614L66.3505 8.07349V8.07763Z" fill="white"/>
<path d="M69.357 6.77753C69.2286 6.47941 68.4502 5.77553 68.2266 5.77553H67.8374V5.10891H72.4913V5.77553H71.9531C71.7129 5.77553 71.1746 6.38832 71.1746 6.71956L73.2159 11.4108L75.2199 6.73613C75.2406 6.38418 74.7024 5.77139 74.4581 5.77139H73.9198V5.10477H77.4268V5.77139H77.0169C76.814 5.77139 76.1805 6.43801 75.9983 6.73613L73.013 13.4686L70.8061 18.3295L70.007 17.9569L72.3423 13.1705L69.357 6.77339V6.77753Z" fill="white"/>
<path d="M27.0158 20.8718C27.0158 21.9483 27.757 22.8178 28.9246 23.265C30.6677 25.1365 32.7628 27.124 34.6012 28.7553C35.1188 27.9024 35.3051 26.9915 35.3051 25.8818C35.3051 24.6397 34.4894 23.8985 33.1727 23.8612V23.1946H37.9592V23.8612H37.4416C37.1807 23.8612 36.2533 24.9171 36.2367 25.327C36.1994 26.478 35.8848 27.9065 35.0318 29.128C36.0131 29.9809 36.9986 30.78 37.777 31.3183H38.5927V31.9849H37.1269C35.8102 31.9849 34.8828 31.633 33.769 30.6144C32.6924 31.6537 31.3219 32.2292 29.3345 32.2292C27.1442 32.2292 25.0491 30.6144 25.0491 28.2419C25.0491 26.3704 25.9931 24.9957 27.2187 24.1428C26.5686 23.3064 26.1256 22.5114 26.1256 21.3231C26.1256 19.3936 27.3885 18.3171 29.3718 18.3171C30.6139 18.3171 31.264 18.727 31.8395 18.727C32.1376 18.727 32.3198 18.7105 32.4688 18.4869H33.0444V21.6751H32.4688C32.4688 20.7641 31.1356 18.9465 29.3345 18.9465C27.8895 18.9465 27.0158 19.6504 27.0158 20.8759V20.8718ZM26.4403 27.3641C26.4403 29.2936 28.4981 31.1485 30.4276 31.1485C31.6325 31.1485 32.5972 30.8132 33.3591 30.2418C31.3923 28.5524 29.2061 26.4408 27.5168 24.5113C26.8129 25.2359 26.4403 25.977 26.4403 27.3683V27.3641Z" fill="white"/>
<path d="M52.4465 23.265C52.4465 21.8737 50.8897 19.0541 48.3474 19.0541C46.0122 19.0541 44.621 20.3542 44.3767 23.3933C44.2856 24.5816 44.3229 25.6375 44.414 26.8258C44.6375 29.1817 46.2689 31.1278 49.0141 31.1278C51.3493 31.1278 52.4838 30.1465 53.3533 28.3661H54.0572C53.1835 30.7758 51.2955 32.225 48.6041 32.225C44.7286 32.225 42.2236 29.0368 42.2236 25.1779C42.2236 21.3189 44.4885 18.2425 48.2688 18.2425C49.7138 18.2425 50.6247 18.8346 51.6805 18.8346C52.107 18.8346 52.3099 18.7228 52.5169 18.4827H53.0179V23.2691H52.4424L52.4465 23.265Z" fill="white"/>
<path d="M54.9724 27.5836C54.9724 24.7473 57.0137 22.9669 59.3324 22.9669C61.651 22.9669 63.6923 24.7473 63.6923 27.5836C63.6923 30.4198 61.651 32.2209 59.3324 32.2209C57.0137 32.2209 54.9724 30.4198 54.9724 27.5836ZM61.9285 29.0493C62.0402 28.1591 62.0402 26.9542 61.9285 26.064C61.7628 24.6562 60.9844 23.708 59.3489 23.708C57.7134 23.708 56.9764 24.6521 56.7694 26.0433C56.641 26.8962 56.641 28.1591 56.7694 29.0286C56.9723 30.3825 57.7341 31.3845 59.3489 31.3845C60.9637 31.3845 61.7587 30.4198 61.9285 29.0493Z" fill="white"/>
<path d="M77.9107 30.3867C77.9107 30.6848 78.5773 31.3141 78.8382 31.3141H79.2481V31.9808H74.8716V31.3141H75.3726C75.6334 31.3141 76.3 30.6848 76.3 30.3867V25.5091C76.3 24.6562 75.8736 24.0641 74.9295 24.0641C73.7785 24.0641 72.35 25.1779 72.35 25.77V30.3867C72.35 30.6848 73.0166 31.3141 73.2775 31.3141H73.7785V31.9808H69.3067V31.3141H69.8077C70.0686 31.3141 70.7352 30.6848 70.7352 30.3867V25.5091C70.7352 24.6562 70.288 24.0641 69.344 24.0641C68.1929 24.0641 66.7645 25.2317 66.7645 25.828V30.3908C66.7645 30.6889 67.4311 31.3183 67.6919 31.3183H68.1929V31.9849H63.7212V31.3183H64.2222C64.483 31.3183 65.1497 30.6889 65.1497 30.3908V24.7887C65.1497 24.5113 64.483 23.8612 64.2222 23.8612H63.7212V23.1946H66.4125L66.7645 24.8839C67.7665 23.8281 68.4165 23.0124 69.9526 23.0124C71.1203 23.0124 72.1057 23.6418 72.2713 24.8674C73.3479 23.8115 74.0352 23.0331 75.5175 23.0331C76.8342 23.0331 77.9107 23.9233 77.9107 25.5174V30.3949V30.3867Z" fill="white"/>
<path d="M81.8402 23.1905L82.1383 24.9875C82.9001 23.5797 83.8649 22.9669 85.3099 22.9669C87.4423 22.9669 88.7424 24.768 88.7424 27.4552C88.7424 30.1424 87.2601 32.1671 85.1277 32.1671C83.5874 32.1671 82.7718 31.575 82.1424 30.4405V34.6307C82.1424 34.9288 82.8297 35.5582 83.0699 35.5582H83.6454V36.2248H79.0081V35.5582H79.5836C79.8444 35.5582 80.5111 34.9288 80.5111 34.6307V24.7804C80.5111 24.503 79.8444 23.853 79.5836 23.853H79.0081V23.1863H81.8443L81.8402 23.1905ZM82.1176 26.3994V28.6973C82.1176 30.0679 83.1734 31.2396 84.6598 31.2396C86.1463 31.2396 86.8667 30.2956 87.053 28.9044C87.1648 28.068 87.1814 27.1074 87.0738 26.2876C86.8874 24.8964 86.1297 24.0062 84.8669 24.0062C83.3846 24.0062 82.5482 25.0247 82.1217 26.3994H82.1176Z" fill="white"/>
<path d="M107.78 31.3142C107.52 31.3142 106.816 30.6848 106.816 30.3867V25.5092C106.816 24.0062 105.739 23.0042 104.385 23.0042C102.808 23.0042 101.992 23.9151 100.936 24.9875L100.601 23.1905H97.8391V23.8571H98.3774C98.6382 23.8571 99.3421 24.5072 99.3421 24.7846V30.3867C99.3421 30.6848 98.6382 31.3142 98.3774 31.3142H97.3215C97.0814 31.3142 96.3568 30.6848 96.3568 30.3867V25.6003C96.3568 23.8737 94.9656 22.9835 93.0734 22.9835C91.293 22.9835 90.2744 23.5963 89.5498 24.3374L90.7174 26.1013H91.3468C90.6967 24.5983 91.1812 23.6335 92.68 23.6335C94.2576 23.6335 94.7586 24.3374 94.7379 25.5796L94.7171 26.6727L92.4564 27.1364C91.2143 27.3973 89.6202 28.0059 89.6202 29.7532C89.6202 31.1817 90.6388 32.1464 91.8478 32.1464C93.1479 32.1464 94.0754 31.1279 94.7793 30.217L95.0028 31.9808H102.423V31.3142H101.922C101.661 31.3142 100.957 30.6848 100.957 30.3867V25.915C100.957 25.3229 102.572 24.0973 103.814 24.0973C104.758 24.0973 105.205 24.7473 105.205 25.6003V30.3867C105.205 30.6848 104.501 31.3142 104.24 31.3142H103.739V31.9808H108.228V31.3142H107.785H107.78ZM94.742 29.4013C94.3694 30.0513 93.4419 30.9415 92.5889 30.9415C91.736 30.9415 91.1812 30.2915 91.1812 29.5338C91.1812 28.6601 91.5538 28.068 92.6469 27.7906L94.742 27.2524V29.4054V29.4013Z" fill="white"/>
<path d="M108.87 24.8591C108.741 24.561 107.963 23.8571 107.739 23.8571H107.35V23.1905H112.004V23.8571H111.466C111.226 23.8571 110.687 24.4699 110.687 24.8011L112.729 29.4923L114.733 24.8177C114.753 24.4658 114.215 23.853 113.971 23.853H113.432V23.1863H116.939V23.853H116.53C116.327 23.853 115.693 24.5196 115.511 24.8177L112.526 31.5502L110.319 36.4111L109.52 36.0385L111.855 31.252L108.87 24.855V24.8591Z" fill="white"/>
</svg>
