<svg width="152" height="33" viewBox="0 0 152 33" fill="none" xmlns="http://www.w3.org/2000/svg">
<path d="M53.9567 19.095L53.0599 21.6359H52.9852C52.8357 21.0629 52.5617 20.191 52.1133 19.1448L47.3054 7.06279H42.5972V26.3192H45.7111V14.4365C45.7111 13.6892 45.7111 12.8422 45.6862 11.7959C45.6613 11.2728 45.6114 10.8742 45.5865 10.5753H45.6613C45.8107 11.3226 45.9851 11.8707 46.1097 12.2194L51.8891 26.2694H54.0813L59.8109 12.0949C59.9354 11.771 60.06 11.1233 60.1845 10.5753H60.2593C60.1845 11.9952 60.1347 13.2657 60.1098 14.038V26.2445H63.423V7.01296H58.8891L53.9567 19.095ZM66.5618 12.4436H69.8003V26.2445H66.5618V12.4436ZM68.206 6.61438C67.6579 6.61438 67.2095 6.81367 66.8358 7.16243C66.4622 7.51119 66.2629 7.95959 66.2629 8.50764C66.2629 9.03078 66.4622 9.47918 66.8358 9.82794C67.2095 10.1767 67.6579 10.3511 68.206 10.3511C68.754 10.3511 69.2273 10.1518 69.5761 9.82794C69.9498 9.47918 70.149 9.03078 70.149 8.50764C70.149 7.9845 69.9498 7.5361 69.5761 7.16243C69.2522 6.81367 68.7789 6.61438 68.206 6.61438ZM81.2844 12.3191C80.6865 12.1945 80.0637 12.1198 79.4659 12.1198C77.9961 12.1198 76.6509 12.4436 75.5299 13.0913C74.4089 13.739 73.5121 14.6358 72.9391 15.7568C72.3412 16.9028 72.0423 18.2231 72.0423 19.7426C72.0423 21.0629 72.3412 22.2338 72.9142 23.305C73.4872 24.3512 74.2843 25.1982 75.3555 25.7712C76.3769 26.3441 77.5726 26.6431 78.9178 26.6431C80.4623 26.6431 81.7826 26.3192 82.8289 25.7214L82.8538 25.6965V22.7071L82.7292 22.8067C82.2559 23.1555 81.7079 23.4544 81.1598 23.6288C80.5869 23.8281 80.0637 23.9277 79.6153 23.9277C78.3199 23.9277 77.2986 23.5541 76.5762 22.732C75.8288 21.9348 75.4551 20.8387 75.4551 19.4686C75.4551 18.0487 75.8288 16.9277 76.6011 16.1056C77.3733 15.2835 78.3947 14.86 79.6402 14.86C80.6865 14.86 81.7577 15.2088 82.7292 15.9063L82.8538 16.0059V12.8422L82.8289 12.8173C82.4054 12.6429 81.9321 12.4436 81.2844 12.3191ZM91.9713 12.2194C91.1742 12.2194 90.4268 12.4685 89.7791 12.9917C89.2311 13.4401 88.8574 14.0878 88.5336 14.86H88.5087V12.4436H85.2702V26.2445H88.5087V19.1946C88.5087 17.9989 88.7578 17.0024 89.3058 16.28C89.8539 15.5326 90.5514 15.159 91.3984 15.159C91.6973 15.159 91.9962 15.2337 92.3699 15.2835C92.7187 15.3832 92.9678 15.4828 93.1422 15.6074L93.2667 15.707V12.4685L93.192 12.4436C92.9678 12.2942 92.5194 12.2194 91.9713 12.2194ZM100.79 12.1447C98.523 12.1447 96.7045 12.8173 95.434 14.1376C94.1386 15.4579 93.5158 17.2764 93.5158 19.5683C93.5158 21.7106 94.1635 23.4544 95.4091 24.7249C96.6546 25.9705 98.3486 26.6182 100.466 26.6182C102.683 26.6182 104.452 25.9456 105.722 24.6004C107.018 23.2551 107.641 21.4615 107.641 19.2444C107.641 17.0522 107.043 15.3084 105.822 14.038C104.651 12.7675 102.932 12.1447 100.79 12.1447ZM103.381 22.7569C102.783 23.5292 101.836 23.9028 100.665 23.9028C99.4945 23.9028 98.5479 23.5292 97.8753 22.7071C97.2027 21.9348 96.8788 20.8138 96.8788 19.3939C96.8788 17.9241 97.2276 16.8031 97.8753 16.0059C98.5479 15.2088 99.4696 14.8102 100.64 14.8102C101.786 14.8102 102.683 15.1839 103.331 15.9561C103.979 16.7284 104.327 17.8494 104.327 19.3192C104.277 20.8138 104.003 21.9847 103.381 22.7569ZM114.865 18.1732C113.843 17.7497 113.196 17.4259 112.897 17.1519C112.648 16.9028 112.523 16.554 112.523 16.1056C112.523 15.7319 112.673 15.3583 113.046 15.1091C113.42 14.86 113.843 14.7355 114.466 14.7355C115.014 14.7355 115.587 14.8351 116.135 14.9846C116.683 15.1341 117.182 15.3583 117.58 15.6572L117.705 15.7568V12.7177L117.63 12.6927C117.256 12.5433 116.758 12.3938 116.16 12.2693C115.562 12.1696 115.014 12.1198 114.566 12.1198C113.021 12.1198 111.751 12.4935 110.754 13.3155C109.758 14.0878 109.285 15.1341 109.285 16.3547C109.285 17.0024 109.384 17.5754 109.609 18.0487C109.833 18.522 110.157 18.9704 110.605 19.3441C111.053 19.6928 111.701 20.0914 112.598 20.4651C113.345 20.7889 113.918 21.038 114.267 21.2373C114.616 21.4366 114.84 21.6608 115.014 21.8352C115.139 22.0345 115.214 22.2836 115.214 22.6074C115.214 23.5292 114.516 23.9776 113.096 23.9776C112.548 23.9776 111.975 23.8779 111.302 23.6537C110.63 23.4295 110.007 23.1057 109.484 22.732L109.359 22.6324V25.7961L109.434 25.821C109.907 26.0452 110.48 26.1947 111.178 26.3691C111.875 26.4936 112.498 26.5933 113.046 26.5933C114.715 26.5933 116.085 26.2196 117.057 25.3975C118.053 24.6004 118.577 23.579 118.577 22.2587C118.577 21.337 118.327 20.5149 117.779 19.8921C117.057 19.2942 116.16 18.6715 114.865 18.1732ZM127.121 12.1447C124.854 12.1447 123.036 12.8173 121.765 14.1376C120.495 15.4579 119.847 17.2764 119.847 19.5683C119.847 21.7106 120.495 23.4544 121.74 24.7249C122.986 25.9705 124.68 26.6182 126.797 26.6182C129.014 26.6182 130.783 25.9456 132.054 24.6004C133.349 23.2551 133.972 21.4615 133.972 19.2444C133.972 17.0522 133.374 15.3084 132.153 14.038C130.982 12.7675 129.264 12.1447 127.121 12.1447ZM129.687 22.7569C129.089 23.5292 128.143 23.9028 126.972 23.9028C125.776 23.9028 124.854 23.5292 124.182 22.7071C123.509 21.9348 123.185 20.8138 123.185 19.3939C123.185 17.9241 123.534 16.8031 124.182 16.0059C124.854 15.2088 125.776 14.8102 126.947 14.8102C128.068 14.8102 128.989 15.1839 129.637 15.9561C130.285 16.7284 130.634 17.8494 130.634 19.3192C130.634 20.8138 130.31 21.9847 129.687 22.7569ZM151.285 15.1091V12.4436H148.022V8.35817L147.922 8.38308L144.833 9.3048L144.758 9.32971V12.4436H139.876V10.6998C139.876 9.90267 140.075 9.27989 140.424 8.88131C140.773 8.48273 141.296 8.28344 141.943 8.28344C142.392 8.28344 142.865 8.38309 143.388 8.60729L143.513 8.68202V5.86704L143.438 5.84213C142.99 5.69266 142.392 5.59302 141.619 5.59302C140.648 5.59302 139.801 5.81722 139.029 6.19089C138.256 6.61438 137.684 7.18734 137.26 7.95959C136.837 8.70693 136.612 9.55392 136.612 10.5255V12.4436H134.345V15.0842H136.612V26.2445H139.876V15.1091H144.758V22.2089C144.758 25.1235 146.128 26.5933 148.869 26.5933C149.317 26.5933 149.79 26.5185 150.239 26.4438C150.712 26.3441 151.061 26.2196 151.26 26.1199L151.285 26.095V23.4295L151.161 23.5292C150.961 23.6537 150.787 23.7534 150.488 23.8281C150.239 23.9028 150.015 23.9277 149.84 23.9277C149.193 23.9277 148.744 23.7783 148.42 23.4046C148.121 23.0558 147.972 22.4829 147.972 21.6359V15.1091H151.285Z" fill="white"/>
<path d="M0.845703 0.585907H16.1163V15.8565H0.845703V0.585907Z" fill="#F25022"/>
<path d="M17.7107 0.585876H32.9813V15.8565H17.7107V0.585876Z" fill="#7FBA00"/>
<path d="M0.845947 17.4508H16.1166V32.7214H0.845947V17.4508Z" fill="#00A4EF"/>
<path d="M17.7107 17.4508H32.9813V32.7214H17.7107V17.4508Z" fill="#FFB900"/>
</svg>
