<svg width="108" height="29" viewBox="0 0 108 29" fill="none" xmlns="http://www.w3.org/2000/svg">
<path fill-rule="evenodd" clip-rule="evenodd" d="M23.2247 14.524C23.2247 17.6168 20.7189 20.1584 17.602 20.1584H14.3627C13.996 20.1584 13.721 19.8828 13.721 19.5153V14.524C13.721 12.6254 12.1931 11.1249 10.329 11.1249C8.43436 11.1249 6.93705 12.6561 6.93705 14.524V19.5153C6.93705 19.8828 6.662 20.1584 6.2953 20.1584H5.37855C5.01185 20.1584 4.73682 19.8828 4.73682 19.5153V14.524C4.73682 11.4312 7.24262 8.88954 10.3595 8.88954C13.446 8.88954 15.9823 11.4005 15.9823 14.524V17.923H17.6325C19.5271 17.923 21.0245 16.3919 21.0245 14.524V9.53258C21.0245 9.16514 21.2995 8.88954 21.6662 8.88954H22.583C22.9496 8.88954 23.2247 9.16514 23.2247 9.53258V9.56324V14.524ZM13.7513 0.774719C6.14225 0.774719 0 6.92972 0 14.5546C0 22.1795 6.14225 28.3344 13.7513 28.3344C21.3603 28.3344 27.5026 22.1795 27.5026 14.5546C27.5026 6.92972 21.3603 0.774719 13.7513 0.774719Z" fill="white"/>
<path fill-rule="evenodd" clip-rule="evenodd" d="M39.9121 9.6073C36.8242 9.6073 34.2866 12.1195 34.2866 15.2445V20.5447C34.2866 20.7285 34.4394 20.8817 34.6229 20.8817H35.0815C35.265 20.8817 35.4178 20.7285 35.4178 20.5447V15.2445C35.4178 12.7629 37.4357 10.7409 39.9121 10.7409C42.3886 10.7409 44.4065 12.7629 44.4065 15.2445V20.5447C44.4065 20.7285 44.5593 20.8817 44.7428 20.8817H45.2014C45.3848 20.8817 45.5377 20.7285 45.5377 20.5447V15.2445C45.5071 12.1195 43.0001 9.6073 39.9121 9.6073Z" fill="white"/>
<path fill-rule="evenodd" clip-rule="evenodd" d="M53.1306 19.7481C50.6541 19.7481 48.6363 17.7261 48.6363 15.2445C48.6363 12.7629 50.6541 10.7408 53.1306 10.7408C55.607 10.7408 57.6249 12.7629 57.6249 15.2445C57.5943 17.7261 55.607 19.7481 53.1306 19.7481ZM58.7255 20.5447V15.2445C58.7255 12.1502 56.2185 9.6073 53.1 9.6073C49.9815 9.6073 47.4745 12.1195 47.4745 15.2445C47.4745 18.3388 49.9815 20.8817 53.1 20.8817C54.9344 20.8817 56.5549 19.9932 57.5943 18.6452V20.5447C57.5943 20.7285 57.7472 20.8817 57.9306 20.8817H58.3892C58.6032 20.8817 58.7255 20.7285 58.7255 20.5447Z" fill="white"/>
<path fill-rule="evenodd" clip-rule="evenodd" d="M89.1439 19.7481C86.6677 19.7481 84.6496 17.7261 84.6496 15.2445C84.6496 12.7629 86.6677 10.7408 89.1439 10.7408C91.6202 10.7408 93.6382 12.7629 93.6382 15.2445C93.6382 17.7261 91.6202 19.7481 89.1439 19.7481ZM94.7695 15.2445C94.7695 12.1502 92.2623 9.6073 89.1439 9.6073C86.0559 9.6073 83.5183 12.1195 83.5183 15.2445C83.5183 18.3388 86.0249 20.8817 89.1439 20.8817C90.978 20.8817 92.5985 19.9932 93.6382 18.6452V20.5447C93.6382 20.7285 93.7912 20.8817 93.9745 20.8817H94.4326C94.6166 20.8817 94.7695 20.7285 94.7695 20.5447V15.2445Z" fill="white"/>
<path fill-rule="evenodd" clip-rule="evenodd" d="M82.97 9.94429C82.97 9.76046 82.815 9.6073 82.629 9.6073H82.1646C81.9793 9.6073 81.8242 9.76046 81.8242 9.94429V15.2445C81.8242 17.7261 79.7807 19.7482 77.2728 19.7482H74.1144V15.2445V9.94429C74.1144 9.76046 73.9594 9.6073 73.7741 9.6073H73.3097C73.1237 9.6073 72.9686 9.76046 72.9686 9.94429V15.2445V19.7482V20.8817H77.5201C80.5544 20.7592 82.97 18.2776 82.97 15.2445V9.94429Z" fill="white"/>
<path fill-rule="evenodd" clip-rule="evenodd" d="M65.4229 9.6073C62.3266 9.6073 59.7821 12.1195 59.7821 15.2445V20.5447C59.7821 20.7285 59.9354 20.8817 60.1193 20.8817H60.5792C60.7631 20.8817 60.9164 20.7285 60.9164 20.5447V15.2445C60.9164 12.7629 62.9398 10.7409 65.4229 10.7409C67.7835 10.7409 69.7459 12.5791 69.8988 14.9075C69.8988 15.0913 70.0518 15.2445 70.2358 15.2445H70.696C70.88 15.2445 71.0329 15.0913 71.0329 14.9075C70.88 11.9357 68.4273 9.6073 65.4229 9.6073Z" fill="white"/>
<path fill-rule="evenodd" clip-rule="evenodd" d="M102.339 9.6073C99.2471 9.6073 96.7061 12.1059 96.7061 15.214V20.4856C96.7061 20.6685 96.8597 20.8208 97.043 20.8208H97.5025C97.6858 20.8208 97.8388 20.6685 97.8388 20.4856V15.214C97.8388 12.7459 99.8596 10.7348 102.339 10.7348C104.697 10.7348 106.656 12.563 106.809 14.8789C106.809 15.0617 106.962 15.214 107.146 15.214H107.605C107.789 15.214 107.942 15.0617 107.942 14.8789C107.789 11.9231 105.34 9.6073 102.339 9.6073Z" fill="white"/>
</svg>
