<svg width="91" height="20" viewBox="0 0 91 20" fill="none" xmlns="http://www.w3.org/2000/svg">
<path d="M4.09117 12.3523L3.21874 19.461H0L2.20878 1.42537H7.3407C8.24149 1.40678 9.14026 1.51809 10.0093 1.75586C10.6731 1.93631 11.2933 2.24989 11.8322 2.67755C12.2924 3.05627 12.6521 3.54282 12.8791 4.09396C13.1088 4.66889 13.2232 5.28338 13.2157 5.90245C13.2213 6.56861 13.1223 7.23152 12.9222 7.86695C12.7337 8.46445 12.4494 9.02739 12.0805 9.5338C11.7053 10.0402 11.2506 10.4825 10.7339 10.8435C10.1803 11.2269 9.5701 11.5212 8.92544 11.7159C9.11604 11.8338 9.29001 11.9768 9.44274 12.1408C9.60808 12.3188 9.74641 12.52 9.85329 12.7382L13.072 19.461H10.1653C9.92364 19.4694 9.68431 19.4112 9.47353 19.2927C9.28863 19.1808 9.14467 19.0124 9.06297 18.8123L6.4108 12.964C6.33565 12.776 6.20812 12.6136 6.04335 12.4959C5.8349 12.385 5.59938 12.3352 5.36388 12.3523H4.09117ZM5.13192 3.91948L4.37856 10.0449H6.24863C6.82107 10.0579 7.3908 9.96244 7.92779 9.76371C8.36782 9.59653 8.76433 9.33196 9.08761 8.98982C9.39336 8.65781 9.62497 8.26455 9.76707 7.83616C9.91936 7.37821 9.99496 6.89824 9.99083 6.41565C9.99083 5.63423 9.74997 5.0225 9.26825 4.58047C8.78654 4.13844 8.04206 3.91811 7.03484 3.91948H5.13192Z" fill="white"/>
<path d="M24.8217 19.461H23.1959C22.8223 19.461 22.5595 19.3748 22.4117 19.2003C22.2579 19.0151 22.1775 18.7799 22.1859 18.5393L22.2865 16.7924C21.7867 17.6024 21.1391 18.3113 20.3774 18.8821C19.7034 19.3793 18.8872 19.6464 18.0496 19.6437C17.5827 19.6473 17.1205 19.55 16.6947 19.3584C16.27 19.1622 15.8957 18.8715 15.6006 18.5085C15.2659 18.0861 15.0157 17.6031 14.8637 17.0859C14.6745 16.436 14.5845 15.7613 14.5968 15.0845C14.5949 14.3308 14.6908 13.5801 14.8822 12.8511C15.2516 11.4319 15.9716 10.1282 16.976 9.05961C17.9822 7.98836 19.2587 7.20829 20.671 6.80157C21.4106 6.58686 22.1773 6.4797 22.9475 6.48339C23.5258 6.48376 24.1034 6.52492 24.6759 6.60655C25.2582 6.69225 25.829 6.84305 26.3777 7.05611L24.8217 19.461ZM19.2587 17.129C19.6218 17.1221 19.9733 16.9999 20.2625 16.7801C20.6246 16.5124 20.939 16.1855 21.1924 15.8132C21.5119 15.3561 21.7869 14.8695 22.0135 14.3599C22.2728 13.7776 22.4896 13.1773 22.6621 12.5637L23.1486 8.69627C22.9442 8.67294 22.7386 8.66061 22.5328 8.65932C21.8628 8.65443 21.2022 8.81745 20.6114 9.13351C20.0134 9.44846 19.4855 9.88143 19.0595 10.4062C18.6139 10.9652 18.2699 11.5982 18.0434 12.2763C17.7943 13.0029 17.6693 13.7663 17.6739 14.5343C17.6739 15.4335 17.8156 16.0903 18.0988 16.505C18.2214 16.7007 18.3927 16.8612 18.5961 16.9706C18.7995 17.0801 19.0278 17.1347 19.2587 17.129Z" fill="white"/>
<path d="M28.8638 16.856V16.6507C28.8638 16.5727 28.8638 16.4455 28.8823 16.3018C28.9007 16.1581 28.9151 15.9446 28.9438 15.6859C28.9726 15.4273 29.0136 15.105 29.0629 14.7068L29.765 8.96928H28.5559C28.4928 8.97198 28.4298 8.96171 28.3708 8.93912C28.3119 8.91652 28.2582 8.88207 28.2131 8.8379C28.1658 8.78483 28.1298 8.72272 28.1072 8.65533C28.0846 8.58794 28.0759 8.51667 28.0817 8.44583C28.0806 8.42942 28.0806 8.41296 28.0817 8.39656C28.0817 8.36987 28.0817 8.31445 28.1002 8.22823C28.1186 8.14202 28.1248 8.00859 28.1453 7.8341C28.1658 7.65962 28.1925 7.42355 28.2254 7.09921L30.1714 6.76256L31.1978 3.27285C31.2393 3.11984 31.3294 2.98443 31.4544 2.88693C31.5825 2.79257 31.7387 2.74412 31.8978 2.74939H33.54L33.0494 6.77693H36.1491L35.8863 8.96928H32.7805L32.0948 14.5446C32.0538 14.8874 32.0209 15.1604 32.0004 15.3657C31.9799 15.571 31.9635 15.7208 31.9511 15.8337C31.9388 15.9466 31.9306 16.0267 31.9265 16.0719C31.9224 16.117 31.9265 16.1478 31.9265 16.1642C31.911 16.4335 31.9926 16.6993 32.1564 16.9135C32.2381 17.0031 32.3387 17.0735 32.4508 17.1197C32.563 17.1658 32.684 17.1865 32.8051 17.1804C32.9577 17.1838 33.1098 17.1609 33.2547 17.1126C33.3664 17.0735 33.4749 17.0254 33.579 16.9689C33.6693 16.9197 33.7514 16.8704 33.8212 16.8252C33.8818 16.7837 33.953 16.7602 34.0265 16.7575C34.1047 16.7537 34.1818 16.7777 34.2441 16.8252C34.3065 16.8823 34.3556 16.9523 34.3878 17.0305L35.0488 18.5249C34.5969 18.8973 34.0816 19.1852 33.5277 19.3748C32.9857 19.5633 32.4162 19.6605 31.8424 19.6622C30.9364 19.6622 30.2193 19.4165 29.6911 18.9252C29.1628 18.4339 28.887 17.7442 28.8638 16.856Z" fill="white"/>
<path d="M47.3242 9.63235C47.3315 10.1758 47.2142 10.7137 46.9814 11.2048C46.6984 11.7362 46.2715 12.1772 45.7497 12.4775C45.0021 12.9164 44.1934 13.2416 43.35 13.4423C42.0817 13.7568 40.7906 13.9716 39.4888 14.0848V14.249C39.4888 16.2607 40.3414 17.2666 42.0465 17.2666C42.374 17.2712 42.7008 17.2354 43.0195 17.1598C43.2741 17.0988 43.5222 17.0136 43.7606 16.9053C43.9638 16.8101 44.1576 16.696 44.3395 16.5645C44.5092 16.4386 44.6672 16.3257 44.8136 16.2258C44.9507 16.1314 45.0941 16.0463 45.2427 15.9713C45.3862 15.9002 45.5444 15.8636 45.7045 15.8646C45.8083 15.8659 45.9106 15.8897 46.0043 15.9343C46.1046 15.9792 46.191 16.0501 46.2547 16.1396L47.0388 17.088C46.6326 17.4983 46.1999 17.8816 45.7436 18.2355C45.3404 18.5466 44.9056 18.8143 44.4462 19.034C44.0002 19.2429 43.5309 19.3979 43.0483 19.4959C42.518 19.5982 41.9789 19.6477 41.4389 19.6437C40.7429 19.6545 40.0518 19.5253 39.4067 19.2639C38.8159 19.0225 38.2839 18.6571 37.8466 18.1924C37.4008 17.7094 37.0592 17.1399 36.8427 16.5194C36.5969 15.8164 36.4767 15.0757 36.4876 14.3311C36.4866 13.6641 36.5596 12.9991 36.7052 12.3482C36.8467 11.711 37.058 11.0914 37.3354 10.5007C37.6064 9.92631 37.9454 9.38666 38.3454 8.89335C38.7363 8.40957 39.1915 7.98139 39.6981 7.62063C40.2071 7.26059 40.7668 6.97832 41.3588 6.7831C41.9849 6.58159 42.639 6.48112 43.2967 6.48545C43.8977 6.47342 44.4959 6.5708 45.062 6.77284C45.5246 6.93926 45.9521 7.19058 46.3224 7.51389C46.6445 7.79825 46.9021 8.1482 47.0779 8.54027C47.2349 8.88324 47.3188 9.25516 47.3242 9.63235ZM43.1201 8.6347C42.7191 8.63201 42.3227 8.71971 41.9603 8.8913C41.5956 9.06686 41.2676 9.30996 40.9934 9.60771C40.6922 9.93769 40.4405 10.3097 40.2462 10.7121C40.0259 11.1593 39.8558 11.6295 39.7392 12.1141C40.5775 12.0097 41.4089 11.8561 42.2292 11.6543C42.7373 11.5343 43.2278 11.3494 43.6887 11.1042C43.9737 10.9624 44.2118 10.7415 44.3744 10.4678C44.4871 10.2438 44.5448 9.99606 44.5427 9.74525C44.5415 9.6124 44.5136 9.48115 44.4606 9.35933C44.4056 9.22315 44.3207 9.10107 44.2122 9.00215C44.0835 8.8889 43.9354 8.79988 43.7749 8.73939C43.565 8.66429 43.343 8.62879 43.1201 8.6347Z" fill="white"/>
<path d="M52.1008 16.7801H58.6697L58.3576 19.461H48.5454L50.7665 1.42537H53.9976L52.1008 16.7801Z" fill="white"/>
<path d="M65.0501 6.66407L63.5146 19.461H60.4703L62.0058 6.66407H65.0501ZM65.8219 2.93419C65.8238 3.19352 65.7662 3.44983 65.6536 3.68345C65.5456 3.91255 65.3983 4.12098 65.2184 4.29928C65.0391 4.47161 64.8306 4.61064 64.6026 4.70983C64.3749 4.81295 64.1278 4.86614 63.8779 4.86584C63.6347 4.86564 63.3944 4.8124 63.1738 4.70983C62.9489 4.61066 62.7437 4.47157 62.5683 4.29928C62.3943 4.12134 62.255 3.91249 62.1577 3.68345C62.05 3.44831 61.994 3.19281 61.9935 2.93419C61.9924 2.67164 62.0477 2.41193 62.1557 2.17261C62.2591 1.93968 62.4022 1.72645 62.5785 1.54241C62.7526 1.36529 62.9579 1.22191 63.1841 1.11954C63.4047 1.01697 63.645 0.963727 63.8882 0.963529C64.1381 0.963226 64.3852 1.01642 64.6128 1.11954C64.8405 1.21934 65.049 1.3583 65.2287 1.53009C65.4106 1.70929 65.5562 1.92186 65.6577 2.15619C65.7682 2.40053 65.8243 2.66601 65.8219 2.93419Z" fill="white"/>
<path d="M86.7105 7.19773C86.8187 7.05682 86.9404 6.92687 87.0739 6.80976C87.209 6.69225 87.3834 6.62996 87.5624 6.63527H90.2803L86.7557 11.6379L85.7026 8.35344L86.7105 7.19773Z" fill="white"/>
<path d="M81.517 18.9211C81.4089 19.062 81.2872 19.192 81.1537 19.3091C81.0184 19.4263 80.8441 19.4885 80.6651 19.4836H77.9473L81.1906 15.2816L85.68 19.0279L81.7983 18.5311L81.517 18.9211Z" fill="white"/>
<path d="M66.6144 19.4876L68.1519 6.62498H69.7284C70.0023 6.60817 70.2727 6.69296 70.488 6.8631C70.5847 6.96378 70.6588 7.08403 70.7052 7.21576C70.7516 7.34748 70.7692 7.48762 70.7569 7.62673L70.6686 9.29358C71.2195 8.42313 71.9607 7.68898 72.8363 7.14639C73.4029 6.81794 74.1645 6.70504 75.0061 6.66809C76.0037 6.62498 78.0852 6.6373 78.9351 6.6373C78.8981 6.94316 78.3993 11.1349 78.3829 11.3094L77.4181 19.4876H74.3307C74.4977 18.0781 74.6393 16.882 74.7557 15.8994C74.872 14.9168 74.9678 14.1005 75.043 13.4504C75.119 12.7997 75.1765 12.2886 75.2196 11.917C75.2627 11.5455 75.2914 11.2642 75.312 11.0713C75.3325 10.8783 75.5665 9.0452 75.5706 8.98156C75.3489 8.98156 74.8172 8.98156 74.3923 8.98156C73.9367 8.99237 73.4901 9.11053 73.0888 9.32643C72.6894 9.53679 72.3228 9.80443 72.0008 10.1208C71.631 10.5146 71.3224 10.9616 71.0853 11.4469C70.7974 11.9965 70.5709 12.5762 70.4099 13.1754L69.7079 19.4876H66.6144Z" fill="white"/>
<path d="M80.0577 6.63732H82.8782C83.0339 6.6264 83.1897 6.65685 83.3299 6.72559C83.436 6.80183 83.5185 6.9064 83.568 7.02735L89.2767 19.4836H86.9674C86.8829 19.4887 86.7984 19.4764 86.7189 19.4475C86.6394 19.4185 86.5668 19.3735 86.5055 19.3152C86.3833 19.2048 86.2848 19.0707 86.216 18.9211L80.0577 6.63732Z" fill="white"/>
</svg>
