<svg width="84" height="42" viewBox="0 0 84 42" fill="none" xmlns="http://www.w3.org/2000/svg">
<path fill-rule="evenodd" clip-rule="evenodd" d="M0.244751 41.1338H42.0827L83.0271 0.20816H0.244751V41.1338Z" fill="url(#paint0_linear_859_2014)"/>
<path fill-rule="evenodd" clip-rule="evenodd" d="M49.3724 8.39327H41.1966L41.2239 27.6101L34.1047 8.38691H27.0456L20.9684 24.4416C20.3222 20.3563 16.096 18.9466 12.7707 17.8907C10.5748 17.1859 8.24423 16.1491 8.26789 15.0032C8.28609 14.0628 9.51464 13.1907 11.9563 13.3207C13.5943 13.4089 15.0413 13.5408 17.9197 14.9305L20.7499 10.0012C18.1254 8.66611 14.4962 7.82304 11.5204 7.82031H11.5022C8.03219 7.82031 5.14283 8.94349 3.35187 10.7942C2.1033 12.0857 1.42988 13.7282 1.40258 15.5443C1.35708 18.0435 2.27348 19.8152 4.19912 21.2312C5.82626 22.4226 7.90752 23.1956 9.74124 23.7631C12.0027 24.4634 13.8501 25.0727 13.8273 26.3696C13.8121 26.8453 13.6208 27.2983 13.2904 27.641C12.7262 28.2231 11.8616 28.4414 10.6649 28.465C8.35616 28.5141 6.6453 28.1513 3.91883 26.5406L1.40076 31.5335C4.12449 33.0814 7.01568 33.8581 10.3009 33.8581L11.0399 33.8526C13.8992 33.8008 16.2198 33.116 18.0635 31.6336C18.1691 31.549 18.2637 31.4635 18.362 31.3771L18.0526 32.9705L24.9507 32.9486L26.1883 29.7819C27.4897 30.2257 28.9694 30.4713 30.5401 30.4713C32.0708 30.4713 33.5105 30.2385 34.7873 29.8201L35.65 32.9486L48.0265 32.9605L48.0565 25.7412H50.6901C57.0558 25.7412 60.8188 22.5035 60.8188 17.0741C60.817 11.0271 57.1587 8.39327 49.3724 8.39327ZM30.5401 24.8199C29.6497 24.826 28.7655 24.6713 27.9301 24.3634L30.511 16.2192H30.561L33.1 24.3861C32.3356 24.6589 31.4656 24.8199 30.5401 24.8199ZM49.8511 20.1407H48.0547V13.5772H49.852C52.2454 13.5772 54.1565 14.3739 54.1565 16.8167C54.1546 19.345 52.2454 20.1407 49.852 20.1407" fill="white"/>
<defs>
<linearGradient id="paint0_linear_859_2014" x1="41.6359" y1="0.20816" x2="41.6359" y2="41.1347" gradientUnits="userSpaceOnUse">
<stop stop-color="#00AEEF"/>
<stop offset="0.212" stop-color="#0097DC"/>
<stop offset="0.519" stop-color="#007CC5"/>
<stop offset="0.792" stop-color="#006CB8"/>
<stop offset="1" stop-color="#0066B3"/>
</linearGradient>
</defs>
</svg>
