<svg width="106" height="33" viewBox="0 0 106 33" fill="none" xmlns="http://www.w3.org/2000/svg">
<path d="M12.2184 5.49381C9.79899 4.41985 8.35616 4.00286 6.92364 4.00286C5.4201 4.00286 4.45726 4.54128 4.45726 5.37352C4.45726 7.88458 12.975 7.17777 12.975 12.9857C12.975 16.1881 10.2881 18.0491 6.55477 18.0491C3.62673 18.0491 2.18448 17.2913 0.52342 16.4339V12.8408C2.91935 14.4286 4.38566 14.9888 6.23402 14.9888C7.83608 14.9888 8.69983 14.4286 8.69983 13.4508C8.69983 10.717 0.182617 11.7182 0.182617 5.73781C0.182617 2.85387 2.6742 0.944229 6.55477 0.944229C8.42776 0.944229 10.1175 1.33773 12.2184 2.241V5.49381ZM24.1442 17.2856C22.7243 17.8011 21.5238 18.0462 20.3261 18.0462C16.359 18.0462 13.7941 15.7357 13.7941 12.2205C13.7941 8.76952 16.4581 6.33121 20.1783 6.33121C21.3279 6.33121 22.797 6.62562 23.9718 7.06322V9.70487C23.0416 9.21114 21.9648 8.94021 21.0833 8.94021C18.9543 8.94021 17.5848 10.2198 17.5848 12.1947C17.5848 14.1972 18.9308 15.5151 20.9601 15.5151C21.8165 15.5151 22.5777 15.3192 24.1448 14.7327L24.1442 17.2856ZM55.0742 10.926C55.2197 9.35777 56.1305 8.45163 57.5252 8.45163C58.8964 8.45163 59.8254 9.38354 59.9721 10.926H55.0742ZM57.28 6.33522C53.7992 6.33522 51.3214 8.79358 51.3214 12.2532C51.3214 15.7385 53.8978 18.0462 57.8694 18.0462C58.7492 18.0462 60.8771 18.0462 62.9041 16.5461V14.3404C61.2436 15.5232 60.1456 15.9304 58.728 15.9304C56.4907 15.9304 55.1224 14.7728 54.9986 12.7967H63.1035C63.2724 8.67215 60.5643 6.33522 57.28 6.33522ZM64.4753 17.8406H68.019V6.54314H64.4753V17.8406ZM77.8817 14.7528C77.1434 15.4172 76.5299 15.6835 75.7733 15.6835C74.1042 15.6835 73.048 14.31 73.048 12.252C73.048 9.99641 74.1042 8.69621 75.8907 8.69621C76.5299 8.69621 77.3645 8.99062 77.8817 9.35949V14.7528ZM77.8817 1.15272V7.03859C76.9246 6.57578 75.9698 6.33121 74.9382 6.33121C71.7054 6.33121 69.4687 8.72084 69.4687 12.1781C69.4687 15.561 71.7054 18.0491 74.7383 18.0491C75.9411 18.0491 76.8708 17.7341 77.8817 16.9276V17.8372H81.4249V1.15272H77.8817ZM86.671 10.926C86.8182 9.35777 87.7243 8.45163 89.1167 8.45163C90.4897 8.45163 91.4285 9.38354 91.5751 10.926H86.671ZM88.8745 6.33522C85.3943 6.33522 82.9204 8.79358 82.9204 12.2532C82.9204 15.7385 85.4979 18.0462 89.4644 18.0462C90.3431 18.0462 92.4755 18.0462 94.5072 16.5461V14.3404C92.845 15.5232 91.7441 15.9304 90.3201 15.9304C88.0949 15.9304 86.7208 14.7728 86.5971 12.7967H94.699C94.8674 8.67215 92.1576 6.33522 88.8745 6.33522Z" fill="#009E4D"/>
<path d="M100.004 9.77793H100.057C101.108 7.42667 102.286 6.32408 103.653 6.32408C104.361 6.32408 104.972 6.594 106 7.35436L105.025 10.4867C104.094 9.89964 103.483 9.65407 102.921 9.65407C101.62 9.65407 100.788 10.8798 100.004 12.9518V17.8255H96.4561V6.531H100.004V9.77793ZM68.1852 1.79054C68.5181 2.66832 67.9189 3.89264 66.8514 4.52269C65.7796 5.15203 64.6469 4.95228 64.3168 4.07449C63.9803 3.19528 64.5767 1.96953 65.6471 1.34306C66.7161 0.710136 67.8494 0.910608 68.1852 1.79054Z" fill="#009E4D"/>
<path d="M36.91 10.65C36.91 7.58846 34.8291 6.33522 32.7757 6.33522C31.3793 6.33522 30.232 6.92404 29.205 8.22367H29.1563V1.1533H25.6091V17.8085H29.1569V10.65C29.9869 9.44942 30.6954 8.93621 31.5271 8.93621C32.6302 8.93621 33.3634 9.72091 33.3634 11.4083V15.3771C34.5531 14.7654 35.7628 14.3902 36.91 14.251V10.65ZM45.8076 6.33121C44.363 6.33121 43.2599 6.86848 42.1303 8.16009V6.54314H38.5849V14.2207C39.8129 14.3432 41.38 14.9068 42.1303 15.8376V10.5612C43.0628 9.16245 43.7244 8.69621 44.6065 8.69621C45.6111 8.69621 46.3741 9.35949 46.3741 10.9524V17.8114H49.9213V10.6585C49.9213 7.33185 47.5712 6.33121 45.8076 6.33121ZM51.8802 21.0556H47.7585V23.9837H51.7335V25.2403H47.7585V28.2612H52.0028V29.5161H46.3764V19.8018H51.8796L51.8802 21.0556ZM55.2458 29.5219H56.5082V19.7989H55.2458V29.5219ZM62.7578 24.0759C63.6525 24.0759 64.2075 24.6928 64.2493 25.6613H61.0343C61.2084 24.6498 61.7904 24.0759 62.7578 24.0759ZM61.0114 26.5045H65.5083C65.5083 24.1332 64.4257 22.9893 62.7292 22.9893C60.969 22.9893 59.7473 24.2901 59.7473 26.2307C59.7473 28.004 60.851 29.6416 62.8386 29.6416C63.9217 29.6416 64.6222 29.401 65.3977 28.8861V27.6575C64.6486 28.1478 63.9217 28.4307 63.157 28.4307C61.9342 28.4307 61.2084 27.7754 61.0114 26.5045ZM73.7511 24.7936C73.0254 24.2964 72.5409 24.1503 71.9881 24.1503C70.8323 24.1503 70.0321 25.037 70.0321 26.3349C70.0321 27.6575 70.8838 28.4542 72.1995 28.4542C72.7408 28.4542 73.2563 28.3139 73.8926 28.0292V29.2738C73.467 29.4743 72.6566 29.6416 71.9881 29.6416C70.0762 29.6416 68.7496 28.327 68.7496 26.4483C68.7496 24.3279 69.9616 22.9893 71.9016 22.9893C72.6422 22.9893 73.1406 23.1617 73.7517 23.4304L73.7511 24.7936ZM79.503 23.1119H81.5289V24.2494H79.503V27.5372C79.503 28.2898 80.0477 28.5075 80.416 28.5075C80.8725 28.5075 81.3439 28.3477 81.8548 28.0321V29.216C81.4115 29.46 80.7316 29.6416 80.3146 29.6416C78.9399 29.6416 78.2452 28.7881 78.2452 27.6323V24.2494H77.1317V24.1085L79.503 21.7876V23.1119ZM86.3563 23.1119V24.5942H86.382C87.0259 23.4601 87.6376 22.9893 88.2333 22.9893C88.7476 22.9893 89.2288 23.2305 89.758 23.7311L89.089 24.8434C88.7047 24.4636 88.2075 24.2019 87.9079 24.2019C87.0385 24.2019 86.3557 25.0851 86.3557 26.1797V29.5219H85.0956V23.1119H86.3563ZM102.694 24.7936C101.964 24.2964 101.479 24.1503 100.924 24.1503C99.7707 24.1503 98.9763 25.037 98.9763 26.3349C98.9763 27.6575 99.8297 28.4542 101.137 28.4542C101.679 28.4542 102.191 28.3139 102.836 28.0292V29.2738C102.402 29.4743 101.59 29.6416 100.923 29.6416C99.0147 29.6416 97.6824 28.327 97.6824 26.4483C97.6824 24.3279 98.9001 22.9893 100.84 22.9893C101.582 22.9893 102.076 23.1617 102.693 23.4304L102.694 24.7936ZM93.1042 29.5219H94.3666V23.1125H93.1042V29.5219Z" fill="#009E4D"/>
<path d="M94.4093 20.8089C94.5324 21.1182 94.3169 21.5557 93.9375 21.7784C93.5551 22.0017 93.1506 21.9302 93.0353 21.6201C92.9201 21.3073 93.1291 20.8734 93.5129 20.65C93.8916 20.4237 94.294 20.4961 94.4093 20.8089ZM37.9069 21.3273C37.6842 21.3273 37.5904 21.3638 37.4995 21.4655C37.4637 21.5049 37.4494 21.545 37.4365 21.6251L36.3045 25.9181C36.0389 27.4238 34.1895 28.9274 31.7789 28.9274H28.4274L29.0088 26.7214H31.1617C31.3815 26.7214 31.5533 26.6398 31.6972 26.4794C31.7502 26.4172 31.819 26.3198 31.8283 26.2195L32.7218 22.4686C32.9853 20.9622 34.5769 19.2982 36.9868 19.2982H40.4192L39.9803 21.3273H37.9069ZM38.6801 23.9435L39.0632 22.5545H42.5499C42.9802 20.5404 42.6416 18.6746 41.4194 17.4525C38.9458 14.9788 33.7707 15.8193 29.9152 19.508C29.313 20.0808 28.8047 20.7001 28.3415 21.333H30.4407L29.9524 22.7249H27.4444C27.2045 23.1638 26.9797 23.5991 26.8079 24.0408H29.782L29.3059 25.4327H26.3833C25.8835 27.5591 26.2021 29.5424 27.4594 30.8018C29.9023 33.2439 35.0616 32.3855 38.915 28.6975C39.5894 28.056 40.1464 27.3637 40.6498 26.6527H37.9527L38.3637 25.2637H41.5168C41.7481 24.822 41.9607 24.3852 42.1268 23.9435H38.6801Z" fill="#009E4D"/>
</svg>
