<svg width="47" height="55" viewBox="0 0 47 55" fill="none" xmlns="http://www.w3.org/2000/svg">
<path d="M23.5899 54.4904C21.2914 53.4978 10.5447 48.7209 7.06599 45.8671C3.0282 42.5791 0.854004 37.8022 0.854004 32.1568V5.79074C7.31447 2.31662 14.7689 0.641602 23.5899 0.641602C32.4109 0.641602 39.8653 2.31662 46.3257 5.79074V32.0947C46.3257 37.7402 44.2137 42.5171 40.1137 45.8051C36.635 48.7209 25.8883 53.4978 23.5899 54.4904Z" fill="#150400"/>
<path d="M43.5923 6.8454C40.859 6.59725 38.0636 6.41114 35.144 6.41114C24.5215 6.41114 13.0914 8.70653 3.64921 17.3298V32.0948C3.64921 36.9337 5.45069 40.9041 8.80516 43.6958C11.7869 46.1153 20.9806 50.2718 23.5897 51.4506C26.1366 50.3339 35.3303 46.2394 38.3742 43.6958C41.7908 40.9041 43.5302 36.9958 43.5302 32.0948V6.8454M5.63705 30.6059V18.5705H9.48848V30.7299C9.48848 31.7846 9.73696 33.3976 11.4763 33.3976C12.2218 33.3976 12.8429 33.2115 13.2778 32.9013V18.5705H17.0671V35.1346C15.5762 36.1272 13.6505 36.6856 11.29 36.6856C7.50064 36.6856 5.63705 34.6383 5.63705 30.6059ZM22.8442 44.4403H18.9928V19.5631C20.3595 18.6946 22.0367 18.1983 24.1488 18.1983C28.7456 18.1983 31.2304 21.6724 31.2304 27.1938C31.2304 32.7772 28.8078 36.5615 24.5215 36.5615C23.7139 36.5615 23.1548 36.4374 22.7821 36.3754L22.8442 44.4403ZM22.8442 33.2735C23.0927 33.3976 23.5897 33.5216 24.0866 33.5216C26.2608 33.5216 27.3169 31.4744 27.3169 27.3179C27.3169 23.0373 26.3851 21.3002 24.1488 21.3002C23.6518 21.3002 23.0927 21.4243 22.7821 21.5484L22.8442 33.2735ZM32.1001 23.1613C32.1001 20.0594 34.7091 18.2603 37.2561 18.1983C39.3681 18.1363 40.7969 18.9428 41.4802 19.4391V22.7891C40.6726 21.9826 39.3681 21.2382 38.0636 21.2382C37.0076 21.2382 35.8273 21.7345 35.8273 23.0373C35.7652 24.4021 36.9454 24.9604 38.3121 25.829C41.4802 27.6901 42.1014 29.3651 42.0393 31.5985C41.9772 34.0179 40.2999 36.6856 36.5106 36.6856C35.0197 36.6856 33.5289 36.1893 32.2865 35.5068V31.9707C33.2804 32.8392 34.7091 33.5216 35.9515 33.5216C37.3803 33.5216 38.25 32.7151 38.25 31.4124C38.25 30.2336 37.5666 29.5512 35.8894 28.5586C32.7213 26.6975 32.1622 25.2086 32.1001 23.1613ZM7.56276 45.2468C3.71133 42.0829 1.66138 37.5541 1.66138 32.0948V6.28706C7.74912 3.0611 15.1414 1.38608 23.6518 1.38608C32.1622 1.38608 39.5545 2.99906 45.6422 6.28706V32.1568C45.6422 37.6161 43.5923 42.1449 39.7408 45.3088C36.2 48.2246 24.9563 53.1256 23.6518 53.6839C22.3473 53.0635 11.1036 48.1626 7.56276 45.2468ZM37.6288 50.7061V52.9395H38.0636V52.0089H38.1257C38.1257 52.0709 38.7469 52.9395 38.7469 52.9395H39.2439C39.2439 52.9395 38.6227 52.0709 38.5606 51.9469C38.8712 51.8848 39.0575 51.6367 39.0575 51.3265C39.0575 51.0163 38.8712 50.6441 38.3121 50.6441L37.6288 50.7061ZM38.25 51.0163C38.6227 51.0163 38.6227 51.2024 38.6227 51.3265C38.6227 51.5126 38.5606 51.6987 38.1257 51.6987H38.0636V51.0163H38.25ZM39.803 51.8228C39.803 52.6293 39.1196 53.3117 38.3121 53.3117C37.5045 53.3117 36.8212 52.6293 36.8212 51.8228C36.8212 51.0163 37.5045 50.2718 38.3121 50.2718C39.1196 50.2718 39.803 50.9543 39.803 51.8228ZM38.3121 49.9617C37.3182 49.9617 36.4485 50.7681 36.4485 51.8228C36.4485 52.8154 37.2561 53.6839 38.3121 53.6839C39.306 53.6839 40.1757 52.8774 40.1757 51.8228C40.1136 50.7681 39.306 49.9617 38.3121 49.9617Z" fill="#F7BE00"/>
</svg>
