<svg width="131" height="32" viewBox="0 0 131 32" fill="none" xmlns="http://www.w3.org/2000/svg">
<path d="M115.523 10.6042C116.253 10.6042 116.852 10.2259 116.933 9.7361L117.654 1.59821C117.654 0.793924 116.711 0.133087 115.526 0.133087C114.341 0.133087 113.4 0.793924 113.4 1.59821L114.12 9.7361C114.198 10.2259 114.799 10.6042 115.526 10.6042H115.523ZM111.123 13.1466C111.489 12.5159 111.461 11.8073 111.075 11.4928L104.384 6.80166C103.69 6.39863 102.646 6.88312 102.053 7.90976C101.459 8.93468 101.565 10.08 102.259 10.4813L109.668 13.9305C110.131 14.1024 110.762 13.772 111.126 13.1422L111.123 13.1466ZM119.926 13.1421C120.291 13.772 120.92 14.1023 121.383 13.9305L128.793 10.4812C129.49 10.0799 129.59 8.93453 129.001 7.90968C128.406 6.88305 127.361 6.39847 126.667 6.80159L119.976 11.4928C119.593 11.8073 119.565 12.5159 119.929 13.1466L119.926 13.1421ZM115.523 20.7688C116.253 20.7688 116.852 21.1453 116.933 21.6351L117.654 29.7721C117.654 30.5782 116.711 31.2372 115.526 31.2372C114.341 31.2372 113.4 30.5781 113.4 29.7721L114.12 21.6351C114.198 21.1453 114.799 20.7688 115.526 20.7688H115.523ZM119.926 18.2274C120.291 17.5959 120.92 17.2681 121.383 17.4426L128.793 20.8875C129.49 21.2905 129.59 22.4367 129.001 23.4625C128.406 24.4855 127.361 24.9719 126.667 24.5706L119.976 19.883C119.593 19.5641 119.565 18.8555 119.929 18.2257L119.926 18.2274ZM111.123 18.226C111.489 18.8559 111.461 19.5646 111.075 19.8826L104.384 24.5702C103.69 24.9714 102.646 24.4851 102.053 23.462C101.459 22.4363 101.565 21.2909 102.259 20.887L109.668 17.4422C110.131 17.2676 110.762 17.5962 111.127 18.2278L111.123 18.226Z" fill="#FDBB30"/>
<path d="M76.9812 16.6215C76.9812 13.5486 75.6689 10.8452 71.2313 10.8452C68.9531 10.8452 67.1446 11.4848 66.1583 12.0544L66.8805 14.5239C67.7817 13.9553 69.2198 13.4849 70.58 13.4849C72.8307 13.4787 73.1993 14.7578 73.1993 15.578V15.7729C68.2921 15.7649 65.1916 17.463 65.1916 20.9238C65.1916 23.0365 66.7706 25.0162 69.5167 25.0162C71.2047 25.0162 72.6172 24.343 73.4625 23.2641H73.5458C73.5458 23.2641 74.1067 25.6079 77.1957 24.7115C77.0336 23.7353 76.9812 22.6954 76.9812 21.4438L76.9812 16.6215ZM73.3181 19.867C73.3181 20.1168 73.2959 20.3755 73.2268 20.6014C72.9432 21.5404 71.9694 22.3349 70.7528 22.3349C69.7373 22.3349 68.9318 21.7592 68.9318 20.5412C68.9318 18.6783 70.9831 18.1629 73.3181 18.1752V19.867ZM0.537231 6.66068C0.537231 6.66068 3.74315 19.7936 4.25443 21.9248C4.85162 24.413 5.92828 25.3289 9.03051 24.7115L11.0323 16.5683C11.5391 14.546 11.8803 13.104 12.2064 11.0471H12.264C12.4926 13.1244 12.8196 14.5522 13.2369 16.5754C13.2369 16.5754 14.0513 20.2718 14.4687 22.2135C14.8878 24.1543 16.0521 25.3767 19.0906 24.7115L23.8606 6.6606H20.0096L18.3809 14.4646C17.9432 16.7358 17.5462 18.5109 17.2396 20.589H17.1855C16.9063 18.5312 16.5528 16.827 16.1071 14.6142L14.4111 6.6606H10.3988L8.58582 14.4141C8.0719 16.7694 7.59072 18.6721 7.28503 20.6793H7.23008C6.91732 18.789 6.49994 16.3982 6.04888 14.1172C6.04888 14.1172 4.97137 8.57212 4.59303 6.66052H0.537231L0.537231 6.66068ZM34.8056 16.6215C34.8056 13.5486 33.4924 10.8452 29.0565 10.8452C26.7775 10.8452 24.9689 11.4848 23.9827 12.0544L24.7039 14.5239C25.6069 13.9553 27.0433 13.4849 28.4034 13.4849C30.6559 13.4787 31.0246 14.7578 31.0246 15.578V15.7729C26.1164 15.7649 23.016 17.463 23.016 20.9238C23.016 23.0365 24.595 25.0162 27.3384 25.0162C29.0283 25.0162 30.4407 24.343 31.2878 23.2641H31.3702C31.3702 23.2641 31.9311 25.6079 35.0202 24.7115C34.858 23.7353 34.8057 22.6954 34.8057 21.4438V16.6215H34.8056ZM31.1424 19.867C31.1424 20.1168 31.1211 20.3755 31.0511 20.6014C30.7675 21.5404 29.7937 22.3349 28.5771 22.3349C27.5626 22.3349 26.7562 21.7592 26.7562 20.5412C26.7562 18.6783 28.8075 18.1629 31.1425 18.1752L31.1424 19.867ZM40.9175 20.8787V6.66076H37.2508V24.7116H40.9175V20.8787ZM88.8918 6.66068V19.977C88.8918 21.8124 89.2374 23.0985 89.9773 23.8843C90.6232 24.5716 91.6866 25.0163 92.9625 25.0163C94.0463 25.0163 95.1132 24.8108 95.6156 24.6239L95.5686 21.7601C95.1947 21.8513 94.7641 21.9249 94.1757 21.9249C92.9263 21.9249 92.5081 21.125 92.5081 19.4774V14.3831H95.7007V10.9294H92.5081V6.66068H88.8918ZM79.4263 11.151V24.7117H83.2091V17.768C83.2091 17.3933 83.2312 17.0664 83.2906 16.767C83.5706 15.3126 84.6835 14.3824 86.2812 14.3824C86.7189 14.3824 87.0326 14.4303 87.3729 14.4799V10.9287C87.0876 10.872 86.8935 10.8454 86.5391 10.8454C85.1275 10.8454 83.5219 11.7561 82.8476 13.7092H82.7448V11.151H79.4263ZM43.4857 11.151V24.7117H47.1719V16.759C47.1719 16.3861 47.2144 15.9919 47.3447 15.6491C47.6504 14.8483 48.3948 13.912 49.5848 13.912C51.0725 13.912 51.7681 15.169 51.7681 16.9832V24.7117H55.4508V16.6625C55.4508 16.3064 55.4995 15.8786 55.6041 15.5632C55.9071 14.6526 56.7099 13.912 57.8158 13.912C59.324 13.912 60.0471 15.1469 60.0471 17.2816V24.7117H63.7324V16.7245C63.7324 12.5126 61.5933 10.8454 59.1778 10.8454C58.1083 10.8454 57.2647 11.1129 56.5008 11.5815C55.8593 11.9748 55.2851 12.5346 54.7827 13.2707H54.7287C54.1456 11.8091 52.7757 10.8454 50.9902 10.8454C48.6961 10.8454 47.6646 12.0076 47.039 12.9935H46.985V11.151H43.4857Z" fill="white"/>
<path d="M130.361 15.1464C130.723 15.1464 131.003 15.4272 131.003 15.7762C131.003 16.1341 130.723 16.4104 130.358 16.4104C129.996 16.4104 129.708 16.1341 129.708 15.7762C129.708 15.4272 129.996 15.1464 130.358 15.1464H130.361ZM130.353 15.2731C130.077 15.2731 129.869 15.4998 129.869 15.7762C129.869 16.057 130.077 16.2802 130.361 16.2802C130.638 16.2837 130.841 16.057 130.841 15.7762C130.841 15.4998 130.638 15.2731 130.358 15.2731H130.353ZM130.258 16.103H130.111V15.4767C130.191 15.461 130.272 15.4533 130.353 15.4537C130.473 15.4537 130.526 15.4732 130.572 15.5033C130.607 15.5308 130.634 15.5804 130.634 15.6379C130.634 15.7106 130.58 15.7646 130.503 15.7877V15.7956C130.565 15.8151 130.6 15.8647 130.619 15.9489C130.638 16.0455 130.649 16.0835 130.665 16.103H130.507C130.488 16.08 130.476 16.0259 130.457 15.9533C130.445 15.8842 130.407 15.8531 130.327 15.8531H130.258V16.103ZM130.261 15.7496H130.33C130.411 15.7496 130.476 15.723 130.476 15.6575C130.476 15.5999 130.434 15.5609 130.342 15.5609C130.304 15.5609 130.276 15.5653 130.261 15.5688L130.261 15.7496Z" fill="#FDBB30"/>
</svg>
