<svg width="203" height="43" viewBox="0 0 203 43" fill="none" xmlns="http://www.w3.org/2000/svg">
<path d="M24.0167 15V0.999999H26.6167V12.8H33.9367V15H24.0167ZM40.4517 15.14C39.3584 15.14 38.3851 14.9067 37.5317 14.44C36.6784 13.96 36.0051 13.3067 35.5117 12.48C35.0184 11.6533 34.7717 10.7133 34.7717 9.66C34.7717 8.59333 35.0184 7.65333 35.5117 6.84C36.0051 6.01333 36.6784 5.36667 37.5317 4.9C38.3851 4.43333 39.3584 4.2 40.4517 4.2C41.5584 4.2 42.5384 4.43333 43.3917 4.9C44.2584 5.36667 44.9317 6.00667 45.4117 6.82C45.9051 7.63333 46.1517 8.58 46.1517 9.66C46.1517 10.7133 45.9051 11.6533 45.4117 12.48C44.9317 13.3067 44.2584 13.96 43.3917 14.44C42.5384 14.9067 41.5584 15.14 40.4517 15.14ZM40.4517 13C41.0651 13 41.6117 12.8667 42.0917 12.6C42.5717 12.3333 42.9451 11.9467 43.2117 11.44C43.4917 10.9333 43.6317 10.34 43.6317 9.66C43.6317 8.96667 43.4917 8.37333 43.2117 7.88C42.9451 7.37333 42.5717 6.98667 42.0917 6.72C41.6117 6.45333 41.0717 6.32 40.4717 6.32C39.8584 6.32 39.3117 6.45333 38.8317 6.72C38.3651 6.98667 37.9917 7.37333 37.7117 7.88C37.4317 8.37333 37.2917 8.96667 37.2917 9.66C37.2917 10.34 37.4317 10.9333 37.7117 11.44C37.9917 11.9467 38.3651 12.3333 38.8317 12.6C39.3117 12.8667 39.8517 13 40.4517 13ZM53.4423 15.14C52.3223 15.14 51.3223 14.9067 50.4423 14.44C49.5757 13.96 48.8957 13.3067 48.4023 12.48C47.909 11.6533 47.6623 10.7133 47.6623 9.66C47.6623 8.59333 47.909 7.65333 48.4023 6.84C48.8957 6.01333 49.5757 5.36667 50.4423 4.9C51.3223 4.43333 52.3223 4.2 53.4423 4.2C54.4823 4.2 55.3957 4.41333 56.1823 4.84C56.9823 5.25333 57.589 5.86667 58.0023 6.68L56.0823 7.8C55.7623 7.29333 55.369 6.92 54.9023 6.68C54.449 6.44 53.9557 6.32 53.4223 6.32C52.809 6.32 52.2557 6.45333 51.7623 6.72C51.269 6.98667 50.8823 7.37333 50.6023 7.88C50.3223 8.37333 50.1823 8.96667 50.1823 9.66C50.1823 10.3533 50.3223 10.9533 50.6023 11.46C50.8823 11.9533 51.269 12.3333 51.7623 12.6C52.2557 12.8667 52.809 13 53.4223 13C53.9557 13 54.449 12.88 54.9023 12.64C55.369 12.4 55.7623 12.0267 56.0823 11.52L58.0023 12.64C57.589 13.44 56.9823 14.06 56.1823 14.5C55.3957 14.9267 54.4823 15.14 53.4423 15.14ZM66.7434 15V12.84L66.6034 12.38V8.6C66.6034 7.86667 66.3834 7.3 65.9434 6.9C65.5034 6.48667 64.8368 6.28 63.9434 6.28C63.3434 6.28 62.7501 6.37333 62.1634 6.56C61.5901 6.74667 61.1034 7.00667 60.7034 7.34L59.7234 5.52C60.2968 5.08 60.9768 4.75333 61.7634 4.54C62.5634 4.31333 63.3901 4.2 64.2434 4.2C65.7901 4.2 66.9834 4.57333 67.8234 5.32C68.6768 6.05333 69.1034 7.19333 69.1034 8.74V15H66.7434ZM63.3834 15.14C62.5834 15.14 61.8834 15.0067 61.2834 14.74C60.6834 14.46 60.2168 14.08 59.8834 13.6C59.5634 13.1067 59.4034 12.5533 59.4034 11.94C59.4034 11.34 59.5434 10.8 59.8234 10.32C60.1168 9.84 60.5901 9.46 61.2434 9.18C61.8968 8.9 62.7634 8.76 63.8434 8.76H66.9434V10.42H64.0234C63.1701 10.42 62.5968 10.56 62.3034 10.84C62.0101 11.1067 61.8634 11.44 61.8634 11.84C61.8634 12.2933 62.0434 12.6533 62.4034 12.92C62.7634 13.1867 63.2634 13.32 63.9034 13.32C64.5168 13.32 65.0634 13.18 65.5434 12.9C66.0368 12.62 66.3901 12.2067 66.6034 11.66L67.0234 13.16C66.7834 13.7867 66.3501 14.2733 65.7234 14.62C65.1101 14.9667 64.3301 15.14 63.3834 15.14ZM72.3119 15V0.159999H74.8119V15H72.3119ZM88.5205 15.14C87.4005 15.14 86.4005 14.9067 85.5205 14.44C84.6538 13.96 83.9738 13.3067 83.4805 12.48C82.9871 11.6533 82.7405 10.7133 82.7405 9.66C82.7405 8.59333 82.9871 7.65333 83.4805 6.84C83.9738 6.01333 84.6538 5.36667 85.5205 4.9C86.4005 4.43333 87.4005 4.2 88.5205 4.2C89.5605 4.2 90.4738 4.41333 91.2605 4.84C92.0605 5.25333 92.6671 5.86667 93.0805 6.68L91.1605 7.8C90.8405 7.29333 90.4471 6.92 89.9805 6.68C89.5271 6.44 89.0338 6.32 88.5005 6.32C87.8871 6.32 87.3338 6.45333 86.8405 6.72C86.3471 6.98667 85.9605 7.37333 85.6805 7.88C85.4005 8.37333 85.2605 8.96667 85.2605 9.66C85.2605 10.3533 85.4005 10.9533 85.6805 11.46C85.9605 11.9533 86.3471 12.3333 86.8405 12.6C87.3338 12.8667 87.8871 13 88.5005 13C89.0338 13 89.5271 12.88 89.9805 12.64C90.4471 12.4 90.8405 12.0267 91.1605 11.52L93.0805 12.64C92.6671 13.44 92.0605 14.06 91.2605 14.5C90.4738 14.9267 89.5605 15.14 88.5205 15.14ZM95.1439 15V0.159999H97.6439V7.2L97.1039 6.32C97.4772 5.64 98.0172 5.12 98.7239 4.76C99.4439 4.38667 100.271 4.2 101.204 4.2C102.057 4.2 102.817 4.36667 103.484 4.7C104.164 5.03333 104.697 5.54667 105.084 6.24C105.471 6.92 105.664 7.8 105.664 8.88V15H103.164V9.2C103.164 8.25333 102.937 7.54667 102.484 7.08C102.044 6.61333 101.424 6.38 100.624 6.38C100.037 6.38 99.5172 6.5 99.0639 6.74C98.6106 6.98 98.2572 7.34 98.0039 7.82C97.7639 8.28667 97.6439 8.88 97.6439 9.6V15H95.1439ZM113.355 15.14C112.449 15.14 111.649 14.9733 110.955 14.64C110.262 14.2933 109.722 13.7733 109.335 13.08C108.949 12.3733 108.755 11.4867 108.755 10.42V4.32H111.255V10.08C111.255 11.04 111.469 11.76 111.895 12.24C112.335 12.7067 112.955 12.94 113.755 12.94C114.342 12.94 114.849 12.82 115.275 12.58C115.715 12.34 116.055 11.98 116.295 11.5C116.549 11.02 116.675 10.4267 116.675 9.72V4.32H119.175V15H116.795V12.12L117.215 13C116.855 13.6933 116.329 14.2267 115.635 14.6C114.942 14.96 114.182 15.14 113.355 15.14ZM122.449 15V4.32H124.829V7.26L124.549 6.4C124.869 5.68 125.369 5.13333 126.049 4.76C126.742 4.38667 127.602 4.2 128.629 4.2V6.58C128.522 6.55333 128.422 6.54 128.329 6.54C128.235 6.52667 128.142 6.52 128.049 6.52C127.102 6.52 126.349 6.8 125.789 7.36C125.229 7.90667 124.949 8.72667 124.949 9.82V15H122.449ZM135.552 15.14C134.432 15.14 133.432 14.9067 132.552 14.44C131.685 13.96 131.005 13.3067 130.512 12.48C130.018 11.6533 129.772 10.7133 129.772 9.66C129.772 8.59333 130.018 7.65333 130.512 6.84C131.005 6.01333 131.685 5.36667 132.552 4.9C133.432 4.43333 134.432 4.2 135.552 4.2C136.592 4.2 137.505 4.41333 138.292 4.84C139.092 5.25333 139.698 5.86667 140.112 6.68L138.192 7.8C137.872 7.29333 137.478 6.92 137.012 6.68C136.558 6.44 136.065 6.32 135.532 6.32C134.918 6.32 134.365 6.45333 133.872 6.72C133.378 6.98667 132.992 7.37333 132.712 7.88C132.432 8.37333 132.292 8.96667 132.292 9.66C132.292 10.3533 132.432 10.9533 132.712 11.46C132.992 11.9533 133.378 12.3333 133.872 12.6C134.365 12.8667 134.918 13 135.532 13C136.065 13 136.558 12.88 137.012 12.64C137.478 12.4 137.872 12.0267 138.192 11.52L140.112 12.64C139.698 13.44 139.092 14.06 138.292 14.5C137.505 14.9267 136.592 15.14 135.552 15.14ZM142.175 15V0.159999H144.675V7.2L144.135 6.32C144.508 5.64 145.048 5.12 145.755 4.76C146.475 4.38667 147.302 4.2 148.235 4.2C149.088 4.2 149.848 4.36667 150.515 4.7C151.195 5.03333 151.728 5.54667 152.115 6.24C152.502 6.92 152.695 7.8 152.695 8.88V15H150.195V9.2C150.195 8.25333 149.968 7.54667 149.515 7.08C149.075 6.61333 148.455 6.38 147.655 6.38C147.068 6.38 146.548 6.5 146.095 6.74C145.642 6.98 145.288 7.34 145.035 7.82C144.795 8.28667 144.675 8.88 144.675 9.6V15H142.175ZM160.906 15.14C159.719 15.14 158.679 14.9067 157.786 14.44C156.906 13.96 156.219 13.3067 155.726 12.48C155.246 11.6533 155.006 10.7133 155.006 9.66C155.006 8.59333 155.239 7.65333 155.706 6.84C156.186 6.01333 156.839 5.36667 157.666 4.9C158.506 4.43333 159.459 4.2 160.526 4.2C161.566 4.2 162.493 4.42667 163.306 4.88C164.119 5.33333 164.759 5.97333 165.226 6.8C165.693 7.62667 165.926 8.6 165.926 9.72C165.926 9.82667 165.919 9.94667 165.906 10.08C165.906 10.2133 165.899 10.34 165.886 10.46H156.986V8.8H164.566L163.586 9.32C163.599 8.70667 163.473 8.16667 163.206 7.7C162.939 7.23333 162.573 6.86667 162.106 6.6C161.653 6.33333 161.126 6.2 160.526 6.2C159.913 6.2 159.373 6.33333 158.906 6.6C158.453 6.86667 158.093 7.24 157.826 7.72C157.573 8.18667 157.446 8.74 157.446 9.38V9.78C157.446 10.42 157.593 10.9867 157.886 11.48C158.179 11.9733 158.593 12.3533 159.126 12.62C159.659 12.8867 160.273 13.02 160.966 13.02C161.566 13.02 162.106 12.9267 162.586 12.74C163.066 12.5533 163.493 12.26 163.866 11.86L165.206 13.4C164.726 13.96 164.119 14.3933 163.386 14.7C162.666 14.9933 161.839 15.14 160.906 15.14ZM171.628 15.14C170.734 15.14 169.874 15.0267 169.048 14.8C168.234 14.56 167.588 14.2733 167.108 13.94L168.068 12.04C168.548 12.3467 169.121 12.6 169.788 12.8C170.454 13 171.121 13.1 171.788 13.1C172.574 13.1 173.141 12.9933 173.488 12.78C173.848 12.5667 174.028 12.28 174.028 11.92C174.028 11.6267 173.908 11.4067 173.668 11.26C173.428 11.1 173.114 10.98 172.728 10.9C172.341 10.82 171.908 10.7467 171.428 10.68C170.961 10.6133 170.488 10.5267 170.008 10.42C169.541 10.3 169.114 10.1333 168.728 9.92C168.341 9.69333 168.028 9.39333 167.788 9.02C167.548 8.64667 167.428 8.15333 167.428 7.54C167.428 6.86 167.621 6.27333 168.007 5.78C168.394 5.27333 168.934 4.88667 169.627 4.62C170.334 4.34 171.168 4.2 172.128 4.2C172.848 4.2 173.574 4.28 174.308 4.44C175.041 4.6 175.648 4.82667 176.128 5.12L175.168 7.02C174.661 6.71333 174.148 6.50667 173.628 6.4C173.121 6.28 172.614 6.22 172.108 6.22C171.348 6.22 170.781 6.33333 170.408 6.56C170.048 6.78667 169.868 7.07333 169.868 7.42C169.868 7.74 169.988 7.98 170.228 8.14C170.468 8.3 170.781 8.42667 171.168 8.52C171.554 8.61333 171.981 8.69333 172.448 8.76C172.928 8.81333 173.401 8.9 173.868 9.02C174.334 9.14 174.761 9.30667 175.148 9.52C175.548 9.72 175.868 10.0067 176.108 10.38C176.348 10.7533 176.468 11.24 176.468 11.84C176.468 12.5067 176.268 13.0867 175.868 13.58C175.481 14.0733 174.928 14.46 174.208 14.74C173.488 15.0067 172.628 15.14 171.628 15.14ZM177.96 18.02L179.12 13.6L179.46 15.08C178.994 15.08 178.6 14.94 178.28 14.66C177.974 14.3667 177.82 13.9733 177.82 13.48C177.82 12.9733 177.974 12.5733 178.28 12.28C178.6 11.9733 178.987 11.82 179.44 11.82C179.907 11.82 180.294 11.9733 180.6 12.28C180.907 12.5867 181.06 12.9867 181.06 13.48C181.06 13.6133 181.047 13.76 181.02 13.92C180.994 14.0667 180.947 14.24 180.88 14.44C180.827 14.64 180.734 14.8933 180.6 15.2L179.58 18.02H177.96ZM6.46969 39.14C5.34969 39.14 4.34969 38.9067 3.46969 38.44C2.60302 37.96 1.92302 37.3067 1.42969 36.48C0.936354 35.6533 0.689688 34.7133 0.689688 33.66C0.689688 32.5933 0.936354 31.6533 1.42969 30.84C1.92302 30.0133 2.60302 29.3667 3.46969 28.9C4.34969 28.4333 5.34969 28.2 6.46969 28.2C7.50969 28.2 8.42302 28.4133 9.20969 28.84C10.0097 29.2533 10.6164 29.8667 11.0297 30.68L9.10969 31.8C8.78969 31.2933 8.39635 30.92 7.92969 30.68C7.47635 30.44 6.98302 30.32 6.44969 30.32C5.83635 30.32 5.28302 30.4533 4.78969 30.72C4.29635 30.9867 3.90969 31.3733 3.62969 31.88C3.34969 32.3733 3.20969 32.9667 3.20969 33.66C3.20969 34.3533 3.34969 34.9533 3.62969 35.46C3.90969 35.9533 4.29635 36.3333 4.78969 36.6C5.28302 36.8667 5.83635 37 6.44969 37C6.98302 37 7.47635 36.88 7.92969 36.64C8.39635 36.4 8.78969 36.0267 9.10969 35.52L11.0297 36.64C10.6164 37.44 10.0097 38.06 9.20969 38.5C8.42302 38.9267 7.50969 39.14 6.46969 39.14ZM13.0931 39V24.16H15.5931V31.2L15.0531 30.32C15.4265 29.64 15.9665 29.12 16.6731 28.76C17.3931 28.3867 18.2198 28.2 19.1531 28.2C20.0065 28.2 20.7665 28.3667 21.4331 28.7C22.1131 29.0333 22.6465 29.5467 23.0331 30.24C23.4198 30.92 23.6131 31.8 23.6131 32.88V39H21.1131V33.2C21.1131 32.2533 20.8865 31.5467 20.4331 31.08C19.9931 30.6133 19.3731 30.38 18.5731 30.38C17.9865 30.38 17.4665 30.5 17.0131 30.74C16.5598 30.98 16.2065 31.34 15.9531 31.82C15.7131 32.2867 15.5931 32.88 15.5931 33.6V39H13.0931ZM33.3645 39V36.84L33.2245 36.38V32.6C33.2245 31.8667 33.0045 31.3 32.5645 30.9C32.1245 30.4867 31.4579 30.28 30.5645 30.28C29.9645 30.28 29.3712 30.3733 28.7845 30.56C28.2112 30.7467 27.7245 31.0067 27.3245 31.34L26.3445 29.52C26.9179 29.08 27.5979 28.7533 28.3845 28.54C29.1845 28.3133 30.0112 28.2 30.8645 28.2C32.4112 28.2 33.6045 28.5733 34.4445 29.32C35.2979 30.0533 35.7245 31.1933 35.7245 32.74V39H33.3645ZM30.0045 39.14C29.2045 39.14 28.5045 39.0067 27.9045 38.74C27.3045 38.46 26.8379 38.08 26.5045 37.6C26.1845 37.1067 26.0245 36.5533 26.0245 35.94C26.0245 35.34 26.1645 34.8 26.4445 34.32C26.7379 33.84 27.2112 33.46 27.8645 33.18C28.5179 32.9 29.3845 32.76 30.4645 32.76H33.5645V34.42H30.6445C29.7912 34.42 29.2179 34.56 28.9245 34.84C28.6312 35.1067 28.4845 35.44 28.4845 35.84C28.4845 36.2933 28.6645 36.6533 29.0245 36.92C29.3845 37.1867 29.8845 37.32 30.5245 37.32C31.1379 37.32 31.6845 37.18 32.1645 36.9C32.6579 36.62 33.0112 36.2067 33.2245 35.66L33.6445 37.16C33.4045 37.7867 32.9712 38.2733 32.3445 38.62C31.7312 38.9667 30.9512 39.14 30.0045 39.14ZM38.933 39V28.32H41.313V31.26L41.033 30.4C41.353 29.68 41.853 29.1333 42.533 28.76C43.2263 28.3867 44.0863 28.2 45.113 28.2V30.58C45.0063 30.5533 44.9063 30.54 44.813 30.54C44.7196 30.5267 44.6263 30.52 44.533 30.52C43.5863 30.52 42.833 30.8 42.273 31.36C41.713 31.9067 41.433 32.7267 41.433 33.82V39H38.933ZM47.2338 39V28.32H49.7338V39H47.2338ZM48.4938 26.56C48.0271 26.56 47.6404 26.4133 47.3338 26.12C47.0404 25.8267 46.8938 25.4733 46.8938 25.06C46.8938 24.6333 47.0404 24.28 47.3338 24C47.6404 23.7067 48.0271 23.56 48.4938 23.56C48.9604 23.56 49.3404 23.7 49.6338 23.98C49.9404 24.2467 50.0938 24.5867 50.0938 25C50.0938 25.44 49.9471 25.8133 49.6538 26.12C49.3604 26.4133 48.9738 26.56 48.4938 26.56ZM57.035 39.14C55.8617 39.14 54.955 38.84 54.315 38.24C53.675 37.6267 53.355 36.7267 53.355 35.54V25.96H55.855V35.48C55.855 35.9867 55.9817 36.38 56.235 36.66C56.5017 36.94 56.8683 37.08 57.335 37.08C57.895 37.08 58.3617 36.9333 58.735 36.64L59.435 38.42C59.1417 38.66 58.7817 38.84 58.355 38.96C57.9283 39.08 57.4883 39.14 57.035 39.14ZM51.595 30.32V28.32H58.715V30.32H51.595ZM61.4916 39V28.32H63.9916V39H61.4916ZM62.7516 26.56C62.2849 26.56 61.8982 26.4133 61.5916 26.12C61.2982 25.8267 61.1516 25.4733 61.1516 25.06C61.1516 24.6333 61.2982 24.28 61.5916 24C61.8982 23.7067 62.2849 23.56 62.7516 23.56C63.2182 23.56 63.5982 23.7 63.8916 23.98C64.1982 24.2467 64.3516 24.5867 64.3516 25C64.3516 25.44 64.2049 25.8133 63.9116 26.12C63.6182 26.4133 63.2316 26.56 62.7516 26.56ZM72.2928 39.14C71.1061 39.14 70.0661 38.9067 69.1728 38.44C68.2928 37.96 67.6061 37.3067 67.1128 36.48C66.6328 35.6533 66.3928 34.7133 66.3928 33.66C66.3928 32.5933 66.6261 31.6533 67.0928 30.84C67.5728 30.0133 68.2261 29.3667 69.0528 28.9C69.8928 28.4333 70.8461 28.2 71.9128 28.2C72.9528 28.2 73.8795 28.4267 74.6928 28.88C75.5061 29.3333 76.1461 29.9733 76.6128 30.8C77.0795 31.6267 77.3128 32.6 77.3128 33.72C77.3128 33.8267 77.3061 33.9467 77.2928 34.08C77.2928 34.2133 77.2861 34.34 77.2728 34.46H68.3728V32.8H75.9528L74.9728 33.32C74.9861 32.7067 74.8595 32.1667 74.5928 31.7C74.3261 31.2333 73.9595 30.8667 73.4928 30.6C73.0395 30.3333 72.5128 30.2 71.9128 30.2C71.2995 30.2 70.7595 30.3333 70.2928 30.6C69.8395 30.8667 69.4795 31.24 69.2128 31.72C68.9595 32.1867 68.8328 32.74 68.8328 33.38V33.78C68.8328 34.42 68.9795 34.9867 69.2728 35.48C69.5661 35.9733 69.9795 36.3533 70.5128 36.62C71.0461 36.8867 71.6595 37.02 72.3528 37.02C72.9528 37.02 73.4928 36.9267 73.9728 36.74C74.4528 36.5533 74.8795 36.26 75.2528 35.86L76.5928 37.4C76.1128 37.96 75.5061 38.3933 74.7728 38.7C74.0528 38.9933 73.2261 39.14 72.2928 39.14ZM83.0142 39.14C82.1209 39.14 81.2609 39.0267 80.4342 38.8C79.6209 38.56 78.9742 38.2733 78.4942 37.94L79.4542 36.04C79.9342 36.3467 80.5076 36.6 81.1742 36.8C81.8409 37 82.5076 37.1 83.1742 37.1C83.9609 37.1 84.5276 36.9933 84.8742 36.78C85.2342 36.5667 85.4142 36.28 85.4142 35.92C85.4142 35.6267 85.2942 35.4067 85.0542 35.26C84.8142 35.1 84.5009 34.98 84.1142 34.9C83.7276 34.82 83.2942 34.7467 82.8142 34.68C82.3476 34.6133 81.8742 34.5267 81.3942 34.42C80.9276 34.3 80.5009 34.1333 80.1142 33.92C79.7276 33.6933 79.4142 33.3933 79.1742 33.02C78.9342 32.6467 78.8142 32.1533 78.8142 31.54C78.8142 30.86 79.0076 30.2733 79.3942 29.78C79.7809 29.2733 80.3209 28.8867 81.0142 28.62C81.7209 28.34 82.5542 28.2 83.5142 28.2C84.2342 28.2 84.9609 28.28 85.6942 28.44C86.4276 28.6 87.0342 28.8267 87.5142 29.12L86.5542 31.02C86.0476 30.7133 85.5342 30.5067 85.0142 30.4C84.5076 30.28 84.0009 30.22 83.4942 30.22C82.7342 30.22 82.1676 30.3333 81.7942 30.56C81.4342 30.7867 81.2542 31.0733 81.2542 31.42C81.2542 31.74 81.3742 31.98 81.6142 32.14C81.8542 32.3 82.1676 32.4267 82.5542 32.52C82.9409 32.6133 83.3676 32.6933 83.8342 32.76C84.3142 32.8133 84.7876 32.9 85.2542 33.02C85.7209 33.14 86.1476 33.3067 86.5342 33.52C86.9342 33.72 87.2542 34.0067 87.4942 34.38C87.7342 34.7533 87.8542 35.24 87.8542 35.84C87.8542 36.5067 87.6542 37.0867 87.2542 37.58C86.8676 38.0733 86.3142 38.46 85.5942 38.74C84.8742 39.0067 84.0142 39.14 83.0142 39.14ZM89.3472 42.02L90.5072 37.6L90.8472 39.08C90.3805 39.08 89.9872 38.94 89.6672 38.66C89.3605 38.3667 89.2072 37.9733 89.2072 37.48C89.2072 36.9733 89.3605 36.5733 89.6672 36.28C89.9872 35.9733 90.3739 35.82 90.8272 35.82C91.2939 35.82 91.6805 35.9733 91.9872 36.28C92.2939 36.5867 92.4472 36.9867 92.4472 37.48C92.4472 37.6133 92.4339 37.76 92.4072 37.92C92.3805 38.0667 92.3339 38.24 92.2672 38.44C92.2139 38.64 92.1205 38.8933 91.9872 39.2L90.9672 42.02H89.3472ZM106.997 39V36.84L106.857 36.38V32.6C106.857 31.8667 106.637 31.3 106.197 30.9C105.757 30.4867 105.091 30.28 104.197 30.28C103.597 30.28 103.004 30.3733 102.417 30.56C101.844 30.7467 101.357 31.0067 100.957 31.34L99.9773 29.52C100.551 29.08 101.231 28.7533 102.017 28.54C102.817 28.3133 103.644 28.2 104.497 28.2C106.044 28.2 107.237 28.5733 108.077 29.32C108.931 30.0533 109.357 31.1933 109.357 32.74V39H106.997ZM103.637 39.14C102.837 39.14 102.137 39.0067 101.537 38.74C100.937 38.46 100.471 38.08 100.137 37.6C99.8173 37.1067 99.6573 36.5533 99.6573 35.94C99.6573 35.34 99.7973 34.8 100.077 34.32C100.371 33.84 100.844 33.46 101.497 33.18C102.151 32.9 103.017 32.76 104.097 32.76H107.197V34.42H104.277C103.424 34.42 102.851 34.56 102.557 34.84C102.264 35.1067 102.117 35.44 102.117 35.84C102.117 36.2933 102.297 36.6533 102.657 36.92C103.017 37.1867 103.517 37.32 104.157 37.32C104.771 37.32 105.317 37.18 105.797 36.9C106.291 36.62 106.644 36.2067 106.857 35.66L107.277 37.16C107.037 37.7867 106.604 38.2733 105.977 38.62C105.364 38.9667 104.584 39.14 103.637 39.14ZM112.566 39V28.32H114.946V31.2L114.526 30.32C114.899 29.64 115.439 29.12 116.146 28.76C116.866 28.3867 117.692 28.2 118.626 28.2C119.479 28.2 120.239 28.3667 120.906 28.7C121.586 29.0333 122.119 29.5467 122.506 30.24C122.892 30.92 123.086 31.8 123.086 32.88V39H120.586V33.2C120.586 32.2533 120.359 31.5467 119.906 31.08C119.466 30.6133 118.846 30.38 118.046 30.38C117.459 30.38 116.939 30.5 116.486 30.74C116.032 30.98 115.679 31.34 115.426 31.82C115.186 32.2867 115.066 32.88 115.066 33.6V39H112.566ZM130.797 39.14C129.77 39.14 128.843 38.9133 128.017 38.46C127.203 37.9933 126.563 37.3533 126.097 36.54C125.63 35.7267 125.397 34.7667 125.397 33.66C125.397 32.5533 125.63 31.5933 126.097 30.78C126.563 29.9667 127.203 29.3333 128.017 28.88C128.843 28.4267 129.77 28.2 130.797 28.2C131.69 28.2 132.49 28.4 133.197 28.8C133.903 29.1867 134.463 29.78 134.877 30.58C135.29 31.38 135.497 32.4067 135.497 33.66C135.497 34.9 135.297 35.9267 134.897 36.74C134.497 37.54 133.943 38.14 133.237 38.54C132.53 38.94 131.717 39.14 130.797 39.14ZM131.097 37C131.697 37 132.23 36.8667 132.697 36.6C133.177 36.3333 133.557 35.9467 133.837 35.44C134.13 34.9333 134.277 34.34 134.277 33.66C134.277 32.9667 134.13 32.3733 133.837 31.88C133.557 31.3733 133.177 30.9867 132.697 30.72C132.23 30.4533 131.697 30.32 131.097 30.32C130.497 30.32 129.957 30.4533 129.477 30.72C129.01 30.9867 128.63 31.3733 128.337 31.88C128.057 32.3733 127.917 32.9667 127.917 33.66C127.917 34.34 128.057 34.9333 128.337 35.44C128.63 35.9467 129.01 36.3333 129.477 36.6C129.957 36.8667 130.497 37 131.097 37ZM134.337 39V36.48L134.437 33.64L134.237 30.8V24.16H136.717V39H134.337ZM145.535 39V28.32H147.915V31.16L147.495 30.32C147.855 29.6267 148.375 29.1 149.055 28.74C149.748 28.38 150.535 28.2 151.415 28.2C152.415 28.2 153.281 28.4467 154.015 28.94C154.761 29.4333 155.255 30.18 155.495 31.18L154.515 30.84C154.861 30.04 155.435 29.4 156.235 28.92C157.035 28.44 157.961 28.2 159.015 28.2C159.868 28.2 160.621 28.3667 161.275 28.7C161.941 29.0333 162.461 29.5467 162.835 30.24C163.208 30.92 163.395 31.8 163.395 32.88V39H160.895V33.2C160.895 32.2533 160.688 31.5467 160.275 31.08C159.861 30.6133 159.268 30.38 158.495 30.38C157.948 30.38 157.461 30.5 157.035 30.74C156.621 30.98 156.295 31.3333 156.055 31.8C155.828 32.2667 155.715 32.86 155.715 33.58V39H153.215V33.2C153.215 32.2533 153.008 31.5467 152.595 31.08C152.181 30.6133 151.588 30.38 150.815 30.38C150.268 30.38 149.781 30.5 149.355 30.74C148.941 30.98 148.615 31.3333 148.375 31.8C148.148 32.2667 148.035 32.86 148.035 33.58V39H145.535ZM171.409 39.14C170.315 39.14 169.342 38.9067 168.489 38.44C167.635 37.96 166.962 37.3067 166.469 36.48C165.975 35.6533 165.729 34.7133 165.729 33.66C165.729 32.5933 165.975 31.6533 166.469 30.84C166.962 30.0133 167.635 29.3667 168.489 28.9C169.342 28.4333 170.315 28.2 171.409 28.2C172.515 28.2 173.495 28.4333 174.349 28.9C175.215 29.3667 175.889 30.0067 176.369 30.82C176.862 31.6333 177.109 32.58 177.109 33.66C177.109 34.7133 176.862 35.6533 176.369 36.48C175.889 37.3067 175.215 37.96 174.349 38.44C173.495 38.9067 172.515 39.14 171.409 39.14ZM171.409 37C172.022 37 172.569 36.8667 173.049 36.6C173.529 36.3333 173.902 35.9467 174.169 35.44C174.449 34.9333 174.589 34.34 174.589 33.66C174.589 32.9667 174.449 32.3733 174.169 31.88C173.902 31.3733 173.529 30.9867 173.049 30.72C172.569 30.4533 172.029 30.32 171.429 30.32C170.815 30.32 170.269 30.4533 169.789 30.72C169.322 30.9867 168.949 31.3733 168.669 31.88C168.389 32.3733 168.249 32.9667 168.249 33.66C168.249 34.34 168.389 34.9333 168.669 35.44C168.949 35.9467 169.322 36.3333 169.789 36.6C170.269 36.8667 170.809 37 171.409 37ZM179.499 39V28.32H181.879V31.26L181.599 30.4C181.919 29.68 182.419 29.1333 183.099 28.76C183.793 28.3867 184.653 28.2 185.679 28.2V30.58C185.573 30.5533 185.473 30.54 185.379 30.54C185.286 30.5267 185.193 30.52 185.099 30.52C184.153 30.52 183.399 30.8 182.839 31.36C182.279 31.9067 181.999 32.7267 181.999 33.82V39H179.499ZM192.723 39.14C191.536 39.14 190.496 38.9067 189.603 38.44C188.723 37.96 188.036 37.3067 187.543 36.48C187.063 35.6533 186.823 34.7133 186.823 33.66C186.823 32.5933 187.056 31.6533 187.523 30.84C188.003 30.0133 188.656 29.3667 189.483 28.9C190.323 28.4333 191.276 28.2 192.343 28.2C193.383 28.2 194.309 28.4267 195.123 28.88C195.936 29.3333 196.576 29.9733 197.043 30.8C197.509 31.6267 197.743 32.6 197.743 33.72C197.743 33.8267 197.736 33.9467 197.723 34.08C197.723 34.2133 197.716 34.34 197.703 34.46H188.803V32.8H196.383L195.403 33.32C195.416 32.7067 195.289 32.1667 195.023 31.7C194.756 31.2333 194.389 30.8667 193.923 30.6C193.469 30.3333 192.943 30.2 192.343 30.2C191.729 30.2 191.189 30.3333 190.723 30.6C190.269 30.8667 189.909 31.24 189.643 31.72C189.389 32.1867 189.263 32.74 189.263 33.38V33.78C189.263 34.42 189.409 34.9867 189.703 35.48C189.996 35.9733 190.409 36.3533 190.943 36.62C191.476 36.8867 192.089 37.02 192.783 37.02C193.383 37.02 193.923 36.9267 194.403 36.74C194.883 36.5533 195.309 36.26 195.683 35.86L197.023 37.4C196.543 37.96 195.936 38.3933 195.203 38.7C194.483 38.9933 193.656 39.14 192.723 39.14ZM200.304 34.36L199.824 25H202.784L202.284 34.36H200.304ZM201.304 39.14C200.837 39.14 200.451 38.9867 200.144 38.68C199.837 38.3733 199.684 38.0067 199.684 37.58C199.684 37.1533 199.837 36.7933 200.144 36.5C200.451 36.1933 200.837 36.04 201.304 36.04C201.771 36.04 202.151 36.1933 202.444 36.5C202.737 36.7933 202.884 37.1533 202.884 37.58C202.884 38.0067 202.737 38.3733 202.444 38.68C202.151 38.9867 201.771 39.14 201.304 39.14Z" fill="#4E88B6"/>
</svg>
