<svg width="104" height="102" viewBox="0 0 104 102" fill="none" xmlns="http://www.w3.org/2000/svg">
<g clip-path="url(#clip0_361_4139)">
<path d="M52 0C23.3278 0 0 22.8792 0 51C0 79.1208 23.3278 102 52 102C80.6722 102 104 79.1208 104 51C104 22.8792 80.6722 0 52 0ZM52 7.3355C75.2873 7.3355 94.4464 24.9673 96.3531 47.3337H7.64689C9.55356 24.9673 28.7098 7.3355 52 7.3355ZM7.64689 54.6663H48.2589V94.4973C26.6876 92.7293 9.44956 75.82 7.64689 54.6663ZM55.7382 94.4973V54.6663H96.3502C94.5476 75.8228 77.3067 92.7293 55.7382 94.4973Z" fill="#232323"/>
<path d="M20.8982 29.9229C20.6902 29.9229 20.4158 29.6538 20.4158 29.4498V23.9729C20.4158 23.7718 20.6931 23.4998 20.8982 23.4998H40.9558C41.1638 23.4998 41.4382 23.7718 41.4382 23.9729V29.4498C41.4382 29.6538 41.1638 29.9229 40.9558 29.9229H34.8544V43.3784C34.8544 43.5796 34.6493 43.7836 34.4413 43.7836H27.4098C27.2018 43.7836 26.9967 43.5796 26.9967 43.3784V29.9229H20.8982Z" fill="#232323"/>
<path d="M55.7209 41.5849H48.2762L47.5858 43.3416C47.4471 43.6788 47.2738 43.7808 46.8607 43.7808H39.2427C39.0347 43.7808 38.9653 43.6448 38.9653 43.5428C38.9653 43.4408 39.0347 43.3076 39.104 43.1376L47.7187 23.9616C47.8458 23.6811 48.1289 23.4998 48.4409 23.4998H55.5447C55.8567 23.4998 56.1398 23.6811 56.2669 23.9616L64.8815 43.1376C64.9509 43.2736 65.0202 43.4436 65.0202 43.5428C65.0202 43.6419 64.9509 43.7808 64.7458 43.7808H57.1278C56.7147 43.7808 56.5413 43.6788 56.4056 43.3416L55.7151 41.5849H55.7209ZM50.4487 36.0061H53.5167L53.3433 35.5329C52.8262 34.1814 52.1358 31.6116 52.1358 31.6116H51.8613C51.8613 31.6116 51.1709 34.1814 50.6538 35.5329L50.4487 36.0061Z" fill="#232323"/>
<path d="M63.0442 29.9229C62.8362 29.9229 62.5618 29.6538 62.5618 29.4498V23.9729C62.5618 23.7718 62.8391 23.4998 63.0442 23.4998H83.1018C83.3098 23.4998 83.5842 23.7718 83.5842 23.9729V29.4498C83.5842 29.6538 83.3098 29.9229 83.1018 29.9229H77.0004V43.3784C77.0004 43.5796 76.7953 43.7836 76.5873 43.7836H69.5558C69.3478 43.7836 69.1427 43.5796 69.1427 43.3784V29.9229H63.0442Z" fill="#232323"/>
</g>
<defs>
<clipPath id="clip0_361_4139">
<rect width="104" height="102" fill="white"/>
</clipPath>
</defs>
</svg>
