<svg width="190" height="29" viewBox="0 0 190 29" fill="none" xmlns="http://www.w3.org/2000/svg">
<path d="M20.4384 20.0895C20.3682 20.0193 20.3167 19.9257 20.2933 19.8181C19.7084 17.2309 16.5641 15.9069 16.0072 15.6917C16.3254 15.4203 17.6356 14.232 18.0941 12.6319C18.1316 12.5103 18.1924 12.4027 18.2719 12.3184L18.9691 11.6213L18.3281 10.9804C18.2439 10.8962 18.183 10.7886 18.1456 10.6529C17.439 8.10777 13.5554 7.40599 11.8896 7.48085C10.907 7.52296 9.49392 7.65395 8.31946 8.04227C7.13564 5.96033 5.60558 5.65155 5.59154 5.64687L5.41841 5.61412L5.54475 5.73576C6.49929 6.63404 7.21987 7.9487 7.65503 8.89844C7.81879 9.25401 7.90302 9.63297 7.90302 10.0213V14.101C7.90302 14.4706 7.75797 14.8168 7.49594 15.0788L6.32148 16.2531L7.49594 17.4274C7.75797 17.6894 7.90302 18.0356 7.90302 18.4052V20.0661H7.46318C5.93311 20.0661 4.69315 18.8216 4.69315 17.2964V13.4974C4.69315 13.1325 4.83352 12.791 5.09087 12.5337L5.79742 11.8272L5.09087 11.1207C4.83352 10.8634 4.69315 10.5219 4.69315 10.157V4.43513C4.69315 3.34036 7.09821 1.50638 7.12161 1.49234L7.23391 1.40813L7.09353 1.39877C7.07482 1.39877 5.19849 1.29584 4.06147 2.91461L3.6965 3.41521L3.30813 2.91461C2.17111 1.29584 0.294784 1.39877 0.276068 1.39877L0.135694 1.40813L0.247993 1.49234C0.271389 1.51106 2.67645 3.34036 2.67645 4.43513V10.1616C2.67645 10.5266 2.53608 10.8681 2.27873 11.1254L1.57218 11.8319L2.27873 12.5383C2.53608 12.7957 2.67645 13.1372 2.67645 13.5021V18.8076C2.67645 19.2707 2.52204 19.7245 2.23662 20.0801C1.83421 20.5947 1.1651 21.2965 0.252672 21.741L0 21.8626L0.280747 21.8392C0.299463 21.8392 2.25065 21.6474 3.67778 20.2485C4.65104 21.2591 6.01266 21.8439 7.42107 21.8486H7.89366V23.079C7.89366 23.2896 7.85155 23.4954 7.76732 23.6826C7.39768 24.5294 6.61626 26.1014 5.53539 27.1213L5.40905 27.2429L5.58218 27.2102C5.59622 27.2102 7.07482 26.9107 8.24927 24.9271C9.11491 25.3856 11.3047 26.3821 13.8736 26.2511C17.1162 26.0826 19.685 24.2627 20.2606 21.7176C20.2839 21.6147 20.3354 21.5211 20.4056 21.4509L21.0981 20.7585L20.4337 20.0941L20.4384 20.0895ZM15.9558 11.1956L15.5253 11.626L16.1055 12.2062C16.288 12.3886 16.3582 12.6553 16.288 12.8939C15.3849 16.0004 10.4204 15.2378 9.91036 15.1489V9.14172C10.3783 9.0388 14.7673 8.14988 16.0634 10.3301C16.2318 10.6108 16.185 10.9663 15.9558 11.1956ZM9.90568 21.8579H11.1456C11.651 21.8626 12.1376 22.0077 12.5447 22.279C13.0734 22.6299 13.5039 23.1071 13.8221 23.6872L13.9016 23.8276L13.9204 23.6685C13.9204 23.6545 14.0888 22.1059 12.9143 21.1749L12.6383 20.9503L12.9143 20.7585C14.0888 19.8275 13.9204 18.2789 13.9204 18.2648L13.9016 18.1058L13.8221 18.2461C13.5039 18.8216 13.0781 19.2941 12.5541 19.645C12.1423 19.921 11.651 20.0708 11.141 20.0708H9.901V17.5865C10.4719 17.4461 17.1443 15.8835 18.3094 19.6824C18.3702 19.8836 18.3187 20.0941 18.1737 20.2439L17.659 20.7585L18.2345 21.334C18.3702 21.4696 18.4263 21.6755 18.3795 21.8673C17.8648 23.9025 15.5861 24.3516 13.7659 24.375C13.7192 24.375 13.677 24.375 13.6302 24.375C11.8522 24.375 10.1817 23.996 9.90568 23.9305V21.8673V21.8579Z" fill="#ECAA1F"/>
<path d="M31.3313 0H30.5593V28.2442H31.3313V0Z" fill="black"/>
<path d="M43.2022 25.4277V14.1665H45.1019V23.6265H50.2443V25.4324H43.2022V25.4277Z" fill="black"/>
<path d="M61.7783 23.8699C60.6413 24.9834 59.2329 25.5355 57.5578 25.5355C55.8826 25.5355 54.4742 24.9787 53.3372 23.8699C52.2002 22.7564 51.6293 21.3716 51.6293 19.7107C51.6293 18.0498 52.2002 16.665 53.3372 15.5562C54.4742 14.4427 55.8826 13.8906 57.5578 13.8906C59.2329 13.8906 60.6413 14.4474 61.7783 15.5562C62.9154 16.6697 63.4862 18.0545 63.4862 19.7107C63.4862 21.3669 62.9154 22.7564 61.7783 23.8699ZM60.3886 16.8241C59.6213 16.0287 58.6761 15.631 57.5624 15.631C56.4488 15.631 55.5036 16.0287 54.7363 16.8241C53.9689 17.6194 53.5852 18.5832 53.5852 19.7154C53.5852 20.8476 53.9689 21.8114 54.7363 22.6067C55.5036 23.4021 56.4488 23.7997 57.5624 23.7997C58.6761 23.7997 59.6213 23.4021 60.3886 22.6067C61.156 21.8114 61.5397 20.8476 61.5397 19.7154C61.5397 18.5832 61.156 17.6194 60.3886 16.8241Z" fill="black"/>
<path d="M74.688 14.1619H76.5877V25.4231H74.5242L68.1419 17.2076V25.4231H66.2422V14.1619H68.1419L74.6833 22.5738V14.1619H74.688Z" fill="black"/>
<path d="M102.323 25.4277H97.3911V14.1665H101.775C102.538 14.1665 103.198 14.2601 103.75 14.4425C104.302 14.625 104.714 14.873 104.981 15.1817C105.495 15.7619 105.753 16.4169 105.753 17.1467C105.753 17.8766 105.472 18.6813 104.915 19.1117C104.709 19.2614 104.569 19.355 104.494 19.3924C104.419 19.4298 104.283 19.4907 104.092 19.5796C104.789 19.7293 105.346 20.0427 105.757 20.5246C106.169 21.0018 106.38 21.596 106.38 22.3071C106.38 23.0183 106.113 23.7855 105.575 24.3844C104.943 25.0815 103.858 25.4324 102.318 25.4324L102.323 25.4277ZM99.2954 18.8357H101.715C103.09 18.8357 103.778 18.3678 103.778 17.4321C103.778 16.4964 103.61 16.5104 103.277 16.2718C102.945 16.0379 102.43 15.9163 101.729 15.9163H99.2954V18.831V18.8357ZM99.2954 23.6686H102.276C102.973 23.6686 103.507 23.561 103.881 23.3364C104.251 23.1165 104.438 22.7001 104.438 22.0872C104.438 21.086 103.638 20.5901 102.037 20.5901H99.3001V23.6686H99.2954Z" fill="black"/>
<path d="M117.039 14.1619V15.9491H111.026V18.9293H116.426V20.6229H111.026V23.6359H117.23V25.4231H109.126V14.1619H117.039Z" fill="black"/>
<path d="M121.61 22.8639L120.482 25.4277H118.452L123.416 14.1665H125.447L130.412 25.4277H128.381L127.253 22.8639H121.615H121.61ZM126.476 21.1094L124.432 16.4683L122.387 21.1094H126.481H126.476Z" fill="black"/>
<path d="M137.468 23.7015C138.123 23.7015 138.689 23.5939 139.161 23.3693C139.634 23.1494 140.13 22.7985 140.645 22.312L141.871 23.5705C140.677 24.8898 139.232 25.5542 137.528 25.5542C135.825 25.5542 134.412 25.0068 133.289 23.912C132.166 22.8172 131.605 21.4324 131.605 19.7528C131.605 18.0732 132.176 16.679 133.322 15.5655C134.464 14.4474 135.909 13.8906 137.655 13.8906C139.4 13.8906 140.86 14.5363 142.03 15.8229L140.823 17.1422C140.284 16.6276 139.779 16.2673 139.302 16.0615C138.825 15.8556 138.263 15.7574 137.617 15.7574C136.48 15.7574 135.521 16.127 134.749 16.8615C133.977 17.596 133.589 18.5364 133.589 19.6826C133.589 20.8289 133.972 21.7833 134.74 22.5506C135.507 23.3178 136.419 23.7015 137.472 23.7015H137.468Z" fill="black"/>
<path d="M144.542 25.4277V14.1665H146.442V19.0462H152.034V14.1665H153.933V25.4277H152.034V20.8194H146.442V25.4277H144.542Z" fill="black"/>
<path d="M84.6826 18.9759V20.5947H87.869V23.0462C87.1484 23.5094 86.2547 23.7386 85.1879 23.7386C84.1211 23.7386 83.2086 23.3784 82.4553 22.6532C81.702 21.928 81.3276 20.9689 81.3276 19.7712C81.3276 18.5735 81.716 17.6051 82.488 16.8706C83.2601 16.136 84.2193 15.7664 85.3563 15.7664C86.4934 15.7664 86.4653 15.8366 86.9098 15.9816C87.3543 16.1267 87.7988 16.3887 88.2387 16.763L89.254 15.3126C88.1778 14.3675 86.8303 13.895 85.2113 13.895C83.5923 13.895 82.2073 14.4518 81.0609 15.5699C79.9145 16.6881 79.3437 18.0823 79.3437 19.7572C79.3437 21.4321 79.9052 22.817 81.0282 23.9164C82.1512 25.0112 83.5455 25.5586 85.2113 25.5586C86.8771 25.5586 88.7066 24.9738 89.7734 23.8041V18.9806H84.6872L84.6826 18.9759Z" fill="black"/>
<path d="M44.9055 7.89249C45.2096 7.89249 45.4716 7.84102 45.6962 7.7381C45.9208 7.63517 46.1454 7.47142 46.3887 7.24685L46.9596 7.83167C46.4028 8.44923 45.729 8.75801 44.9335 8.75801C44.1381 8.75801 43.4783 8.5007 42.9589 7.99074C42.4349 7.48078 42.1729 6.83514 42.1729 6.05383C42.1729 5.27252 42.4396 4.6222 42.973 4.09821C43.5064 3.57889 44.1802 3.31689 44.9944 3.31689C45.8085 3.31689 46.487 3.61632 47.0344 4.21985L46.473 4.83741C46.2203 4.59881 45.9863 4.43038 45.7617 4.33213C45.5371 4.23856 45.2751 4.1871 44.9756 4.1871C44.4422 4.1871 43.9977 4.36021 43.6374 4.70174C43.2771 5.04327 43.0946 5.48305 43.0946 6.0164C43.0946 6.54975 43.2724 6.99421 43.6327 7.35446C43.993 7.7147 44.4141 7.89249 44.9055 7.89249Z" fill="black"/>
<path d="M49.7858 7.49968L49.2617 8.6927H48.3165L50.6327 3.43872H51.5779L53.894 8.6927H52.9488L52.4248 7.49968H49.7951H49.7858ZM52.0551 6.68094L51.1006 4.51478L50.1461 6.68094H52.0551Z" fill="black"/>
<path d="M55.616 8.69734V3.44336H56.505V7.85521H58.9007V8.69734H55.616Z" fill="black"/>
<path d="M60.8706 3.44336H61.7596V8.69734H60.8706V3.44336Z" fill="black"/>
<path d="M65.1006 4.27146V5.71244H67.4308V6.53118H65.1006V8.69734H64.2115V3.44336H67.7115L67.7022 4.27146H65.0959H65.1006Z" fill="black"/>
<path d="M74.1453 7.97223C73.6166 8.49154 72.9568 8.74886 72.1754 8.74886C71.394 8.74886 70.7389 8.49154 70.2055 7.97223C69.6721 7.45291 69.41 6.80728 69.41 6.03532C69.41 5.26336 69.6767 4.61305 70.2055 4.09841C70.7342 3.5791 71.394 3.32178 72.1754 3.32178C72.9568 3.32178 73.6119 3.5791 74.1453 4.09841C74.6787 4.61773 74.9407 5.26336 74.9407 6.03532C74.9407 6.80728 74.674 7.45759 74.1453 7.97223ZM73.4996 4.68323C73.1393 4.31362 72.6995 4.12648 72.1801 4.12648C71.6607 4.12648 71.2209 4.31362 70.8606 4.68323C70.5003 5.05283 70.3225 5.50197 70.3225 6.03064C70.3225 6.55931 70.5003 7.00845 70.8606 7.37806C71.2209 7.74766 71.656 7.9348 72.1801 7.9348C72.7041 7.9348 73.1393 7.74766 73.4996 7.37806C73.8599 7.00845 74.0377 6.55931 74.0377 6.03064C74.0377 5.50197 73.8599 5.05283 73.4996 4.68323Z" fill="black"/>
<path d="M81.2576 5.15102C81.2576 6.01655 80.8785 6.56393 80.1252 6.7885L81.5009 8.69734H80.3732L79.1192 6.93354H77.9541V8.69734H77.0651V3.44336H79.0209C79.8211 3.44336 80.3966 3.57904 80.7428 3.85039C81.0891 4.12174 81.2622 4.55217 81.2622 5.15102H81.2576ZM80.0784 5.89491C80.2609 5.74051 80.3498 5.49255 80.3498 5.14634C80.3498 4.80013 80.2562 4.5662 80.0737 4.43988C79.8866 4.31356 79.559 4.24806 79.0818 4.24806H77.9541V6.12415H79.0584C79.559 6.12415 79.9006 6.04462 80.0784 5.89023V5.89491Z" fill="black"/>
<path d="M87.4714 3.44336H88.3604V8.69734H87.3965L84.4206 4.86563V8.69734H83.5316V3.44336H84.4206L87.4714 7.36396V3.44336Z" fill="black"/>
<path d="M90.8169 3.44336H91.7059V8.69734H90.8169V3.44336Z" fill="black"/>
<path d="M94.9018 7.49968L94.3777 8.6927H93.4326L95.7487 3.43872H96.6939L99.0101 8.6927H98.0649L97.5408 7.49968H94.9112H94.9018ZM97.1712 6.68094L96.2166 4.51478L95.2621 6.68094H97.1712Z" fill="black"/>
<path d="M105.383 4.1358C105.126 4.1358 104.915 4.18726 104.747 4.29487C104.583 4.40248 104.499 4.55687 104.499 4.77208C104.499 4.98729 104.583 5.14636 104.747 5.25865C104.91 5.37093 105.266 5.49257 105.804 5.62357C106.342 5.75457 106.749 5.93703 107.021 6.17096C107.292 6.40488 107.432 6.75109 107.432 7.20959C107.432 7.66808 107.259 8.03769 106.913 8.32776C106.567 8.61315 106.113 8.75818 105.551 8.75818C104.728 8.75818 104.003 8.47747 103.366 7.91137L103.923 7.24234C104.457 7.70551 105.004 7.93476 105.575 7.93476C106.146 7.93476 106.09 7.87394 106.253 7.7523C106.422 7.63066 106.506 7.46691 106.506 7.26573C106.506 7.06455 106.426 6.90548 106.267 6.7932C106.108 6.68092 105.837 6.57799 105.453 6.48442C105.069 6.39085 104.775 6.30663 104.573 6.2271C104.372 6.14756 104.194 6.04931 104.04 5.92299C103.731 5.68907 103.572 5.32882 103.572 4.84226C103.572 4.35569 103.75 3.98141 104.101 3.71941C104.452 3.45741 104.892 3.32642 105.411 3.32642C105.93 3.32642 106.08 3.38256 106.412 3.49016C106.745 3.60245 107.03 3.75684 107.269 3.95802L106.796 4.62705C106.642 4.48669 106.431 4.36973 106.164 4.28083C105.898 4.19194 105.636 4.14516 105.378 4.14516L105.383 4.1358Z" fill="black"/>
<path d="M111.513 4.25763V8.69754H110.624V4.25763H109.033V3.44824H113.104V4.25763H111.513Z" fill="black"/>
<path d="M115.396 7.49968L114.872 8.6927H113.927L116.243 3.43872H117.188L119.505 8.6927H118.559L118.035 7.49968H115.406H115.396ZM117.666 6.68094L116.711 4.51478L115.757 6.68094H117.666Z" fill="black"/>
<path d="M122.799 4.25763V8.69754H121.91V4.25763H120.319V3.44824H124.39V4.25763H122.799Z" fill="black"/>
<path d="M130.042 3.4434V4.27618H127.239V5.6657H129.756V6.45637H127.239V7.85992H130.131V8.6927H126.35V3.43872H130.042V3.4434Z" fill="black"/>
<path d="M136.504 7.49496C136.742 7.77567 137.07 7.91603 137.482 7.91603C137.893 7.91603 138.216 7.77567 138.46 7.49496C138.698 7.21425 138.82 6.83529 138.82 6.3534V3.44336H139.709V6.39083C139.709 7.14875 139.503 7.72888 139.087 8.13592C138.67 8.54295 138.137 8.7488 137.486 8.7488C136.836 8.7488 136.303 8.54295 135.886 8.13592C135.47 7.72888 135.264 7.14407 135.264 6.39083V3.44336H136.153V6.3534C136.153 6.83529 136.274 7.21425 136.513 7.49496H136.504Z" fill="black"/>
<path d="M146.035 3.44336H146.924V8.69734H145.96L142.984 4.86563V8.69734H142.095V3.44336H142.984L146.035 7.36396V3.44336Z" fill="black"/>
<path d="M149.381 3.44336H150.27V8.69734H149.381V3.44336Z" fill="black"/>
<path d="M155.122 8.69734H154.13L152.02 3.44336H153.012L154.626 7.36396L156.24 3.44336H157.232L155.122 8.69734Z" fill="black"/>
<path d="M162.674 3.4434V4.27618H159.871V5.6657H162.389V6.45637H159.871V7.85992H162.763V8.6927H158.982V3.43872H162.674V3.4434Z" fill="black"/>
<path d="M169.089 5.15102C169.089 6.01655 168.71 6.56393 167.952 6.7885L169.328 8.69734H168.2L166.946 6.93354H165.781V8.69734H164.892V3.44336H166.848C167.648 3.44336 168.223 3.57904 168.57 3.85039C168.916 4.12174 169.089 4.55217 169.089 5.15102ZM167.91 5.89491C168.092 5.74051 168.181 5.49255 168.181 5.14634C168.181 4.80013 168.088 4.5662 167.905 4.43988C167.718 4.31356 167.391 4.24806 166.913 4.24806H165.786V6.12415H166.89C167.391 6.12415 167.732 6.04462 167.91 5.89023V5.89491Z" fill="black"/>
<path d="M172.959 4.1358C172.701 4.1358 172.491 4.18726 172.322 4.29487C172.159 4.40248 172.074 4.55687 172.074 4.77208C172.074 4.98729 172.159 5.14636 172.322 5.25865C172.486 5.37093 172.842 5.49257 173.38 5.62357C173.918 5.75457 174.325 5.93703 174.596 6.17096C174.868 6.40488 175.008 6.75109 175.008 7.20959C175.008 7.66808 174.835 8.03769 174.489 8.32776C174.143 8.61315 173.689 8.75818 173.127 8.75818C172.304 8.75818 171.578 8.47747 170.942 7.91137L171.499 7.24234C172.032 7.70551 172.58 7.93476 173.151 7.93476C173.721 7.93476 173.665 7.87394 173.829 7.7523C173.997 7.63066 174.082 7.46691 174.082 7.26573C174.082 7.06455 174.002 6.90548 173.843 6.7932C173.684 6.68092 173.413 6.57799 173.029 6.48442C172.645 6.39085 172.35 6.30663 172.149 6.2271C171.948 6.14756 171.77 6.04931 171.616 5.92299C171.307 5.68907 171.148 5.32882 171.148 4.84226C171.148 4.35569 171.326 3.98141 171.677 3.71941C172.028 3.45741 172.467 3.32642 172.987 3.32642C173.506 3.32642 173.656 3.38256 173.988 3.49016C174.32 3.60245 174.606 3.75684 174.844 3.95802L174.372 4.62705C174.217 4.48669 174.007 4.36973 173.74 4.28083C173.473 4.19194 173.211 4.14516 172.954 4.14516L172.959 4.1358Z" fill="black"/>
<path d="M177.1 3.44336H177.989V8.69734H177.1V3.44336Z" fill="black"/>
<path d="M182.429 4.25763V8.69754H181.54V4.25763H179.949V3.44824H184.02V4.25763H182.429Z" fill="black"/>
<path d="M188.049 8.69754H187.146V6.62496L185.19 3.44824H186.159L187.595 5.83897L189.031 3.44824H190L188.044 6.62496V8.69754H188.049Z" fill="black"/>
</svg>
