<svg width="141" height="48" viewBox="0 0 141 48" fill="none" xmlns="http://www.w3.org/2000/svg">
<path d="M141 0H0V34.0009H141V0Z" fill="#0F0B42"/>
<path d="M24.316 20.1859C25.3516 20.1859 26.2053 19.7779 26.8643 18.9557L28.2201 20.3491C27.1468 21.5605 25.8789 22.1631 24.4227 22.1631C22.9665 22.1631 21.7614 21.7049 20.8199 20.7822C19.8783 19.8595 19.4076 18.6983 19.4076 17.2986C19.4076 15.8989 19.8909 14.7252 20.8512 13.7837C21.8116 12.8422 22.9853 12.3777 24.3787 12.3777C25.7722 12.3777 27.2284 12.9677 28.2766 14.1477L26.9648 15.6353C26.2994 14.8068 25.4646 14.3925 24.4729 14.3925C23.4812 14.3925 22.9979 14.6499 22.433 15.1708C21.8681 15.6918 21.5856 16.3885 21.5856 17.2672C21.5856 18.146 21.8492 18.8552 22.3828 19.3888C22.9163 19.9223 23.5628 20.1859 24.316 20.1859Z" fill="white"/>
<path d="M35.7584 12.5847H37.8674V22.05H35.7584V18.3279H31.9924V22.05H29.8834V12.5847H31.9924V16.539H35.7584V12.5847Z" fill="white"/>
<path d="M46.9372 22.05L46.0585 20.0038H42.0916L41.2129 22.05H38.9658L43.052 12.5847H45.0982L49.1843 22.05H46.9372ZM44.0813 15.403L42.8888 18.1522H45.2551L44.0751 15.403H44.0813Z" fill="white"/>
<path d="M57.9591 15.7293C57.9591 17.2483 57.3566 18.2275 56.1577 18.6668L58.5554 22.05H55.9569L53.8605 19.0309H52.398V22.05H50.289V12.5847H53.8793C55.348 12.5847 56.4025 12.8358 57.0239 13.3316C57.6516 13.8275 57.9654 14.6246 57.9654 15.7293H57.9591ZM55.4108 16.8529C55.6744 16.6206 55.8062 16.244 55.8062 15.7356C55.8062 15.2272 55.6681 14.8757 55.3982 14.6874C55.1283 14.4991 54.6513 14.405 53.9797 14.405H52.398V17.2106H53.9421C54.6639 17.2106 55.1535 17.0914 55.4171 16.8592L55.4108 16.8529Z" fill="white"/>
<path d="M60.1246 22.05V12.5847H62.2336V20.167H66.2695V22.05H60.1246Z" fill="white"/>
<path d="M67.8136 12.5847H69.9226V22.05H67.8136V12.5847Z" fill="white"/>
<path d="M79.0802 12.5847V14.4677H74.3664V16.4198H78.6032V18.2212H74.3664V20.1858H79.2246V22.0563H72.2512V12.591H79.0739L79.0802 12.5847Z" fill="white"/>
<path d="M91.2006 13.4321C91.8659 13.997 92.1986 14.8632 92.1986 16.0306C92.1986 17.1981 91.8596 18.0517 91.1755 18.5978C90.4913 19.1376 89.4557 19.4075 88.0559 19.4075H86.7943V22.05H84.6791V12.5847H88.0246C89.4745 12.5847 90.5352 12.8672 91.2006 13.4321ZM89.6502 17.1604C89.9013 16.878 90.0268 16.4637 90.0268 15.9176C90.0268 15.3716 89.8636 14.9824 89.531 14.7502C89.1983 14.5179 88.6899 14.405 87.9932 14.405H86.788V17.5873H88.2066C88.9096 17.5873 89.3866 17.4429 89.644 17.1604H89.6502Z" fill="white"/>
<path d="M100.672 12.5847V14.4677H95.9583V16.4198H100.195V18.2212H95.9583V20.1858H100.817V22.0563H93.8431V12.591H100.666L100.672 12.5847Z" fill="white"/>
<path d="M104.915 14.4741C104.714 14.6436 104.608 14.8633 104.608 15.1394C104.608 15.4156 104.733 15.6353 104.978 15.7985C105.229 15.9617 105.8 16.15 106.698 16.3759C107.595 16.5956 108.292 16.9283 108.788 17.3739C109.284 17.8133 109.535 18.4598 109.535 19.3072C109.535 20.1545 109.215 20.845 108.581 21.3722C107.947 21.8995 107.106 22.1631 106.07 22.1631C104.57 22.1631 103.22 21.6107 102.022 20.4997L103.283 18.9557C104.306 19.847 105.248 20.2989 106.114 20.2989C106.98 20.2989 106.804 20.2173 107.03 20.0478C107.25 19.8784 107.363 19.6524 107.363 19.3699C107.363 19.0875 107.244 18.8615 107.012 18.6921C106.779 18.5226 106.315 18.3531 105.618 18.1836C104.52 17.92 103.71 17.5811 103.202 17.1605C102.693 16.74 102.436 16.0809 102.436 15.1834C102.436 14.2858 102.756 13.5954 103.402 13.1058C104.049 12.6162 104.852 12.3777 105.819 12.3777C106.786 12.3777 107.081 12.4844 107.715 12.7041C108.349 12.9175 108.895 13.225 109.365 13.6268L108.298 15.1708C107.476 14.5494 106.629 14.2356 105.75 14.2356C104.871 14.2356 105.122 14.3172 104.915 14.4867V14.4741Z" fill="white"/>
<path d="M115.265 14.4176V22.0563H113.156V14.4176H110.476V12.5911H117.952V14.4176H115.272H115.265Z" fill="white"/>
<path d="M119.49 12.5847H121.599V22.05H119.49V12.5847Z" fill="white"/>
<path d="M1.12981 39.5808H2.12781V46.5856H6.56544V47.4518H1.12354V39.5808H1.12981Z" fill="#0F0B42"/>
<path d="M10.1055 39.5808H15.8487V40.447H11.1035V43.0581H15.3779V43.8992H11.1035V46.5856H15.9616V47.4518H10.1055V39.5808Z" fill="#0F0B42"/>
<path d="M19.0059 47.4518L22.5145 39.5808H23.4247L26.9333 47.4518H25.8286L24.9876 45.5186H20.9516L20.1106 47.4518H19.0059ZM21.3345 44.6524H24.6172L22.9727 40.8864L21.3345 44.6524Z" fill="#0F0B42"/>
<path d="M30.4044 39.5809H33.5051C34.6725 39.5809 35.6391 39.9512 36.3923 40.6919C37.1518 41.4325 37.5284 42.374 37.5284 43.5101C37.5284 44.6462 37.1455 45.6066 36.3861 46.3409C35.6266 47.0753 34.6662 47.4394 33.5051 47.4394H30.4044V39.5684V39.5809ZM33.5113 46.5857C34.3901 46.5857 35.1119 46.297 35.6831 45.7195C36.2543 45.1421 36.5367 44.4077 36.5367 43.5164C36.5367 42.6251 36.2543 41.8907 35.6831 41.3133C35.1119 40.7358 34.3901 40.4471 33.5113 40.4471H31.4086V46.5857H33.5113Z" fill="#0F0B42"/>
<path d="M50.3078 39.5808C51.0799 39.5808 51.7013 39.7754 52.172 40.1645C52.6428 40.5537 52.8813 41.0558 52.8813 41.671C52.8813 42.2861 52.7808 42.4053 52.5737 42.7129C52.3666 43.0204 52.0841 43.2527 51.7264 43.4159C52.1657 43.5665 52.5172 43.805 52.7683 44.1377C53.0194 44.4704 53.1449 44.8595 53.1449 45.3052C53.1449 45.7508 52.9064 46.4475 52.4231 46.8492C51.946 47.251 51.3184 47.4518 50.5463 47.4518H46.7678V39.5808H50.3078ZM47.7658 40.447V43.0581H50.2953C50.7723 43.0581 51.1615 42.9326 51.4502 42.6878C51.7389 42.443 51.8833 42.1229 51.8833 41.7463C51.8833 41.3697 51.7389 41.0621 51.4502 40.8173C51.1615 40.5725 50.7786 40.4533 50.2953 40.4533H47.7658V40.447ZM47.7658 43.8678V46.5856H50.5401C51.0171 46.5856 51.4062 46.4601 51.695 46.2027C51.99 45.9454 52.1343 45.619 52.1343 45.2236C52.1343 44.8281 51.99 44.5017 51.695 44.2444C51.4 43.9871 51.0171 43.8615 50.5401 43.8615H47.7658V43.8678Z" fill="#0F0B42"/>
<path d="M55.8564 39.5808H57.0803L59.4404 42.9514L61.813 39.5808H63.0244L59.9425 43.9055V47.4455H58.9445V43.918L55.8501 39.5808H55.8564Z" fill="#0F0B42"/>
<path d="M71.8997 39.5808H77.6429V40.447H72.8977V43.0581H77.1722V43.8992H72.8977V46.5856H77.7559V47.4518H71.8997V39.5808Z" fill="#0F0B42"/>
<path d="M83.9384 43.3846L81.0951 39.5872H82.3065L84.5975 42.6879L86.8885 39.5872H88.1124L85.2691 43.3846L88.3384 47.4519H87.1145L84.5975 44.0687L82.0805 47.4519H80.8566L83.9384 43.3846Z" fill="#0F0B42"/>
<path d="M91.1693 47.4518L94.6779 39.5808H95.5881L99.0967 47.4518H97.992L97.1509 45.5186H93.115L92.2739 47.4518H91.1693ZM93.4979 44.6524H96.7806L95.1361 40.8864L93.4916 44.6524H93.4979Z" fill="#0F0B42"/>
<path d="M102.568 47.4518V39.5808H103.974L106.83 45.732L109.698 39.5808H111.104V47.4518H110.125V40.9115L107.269 47.0752H106.403L103.547 40.9115V47.4518H102.568Z" fill="#0F0B42"/>
<path d="M118.705 39.5808C119.483 39.5808 120.111 39.8005 120.588 40.2336C121.065 40.6667 121.304 41.2253 121.304 41.9095C121.304 42.5936 121.065 43.1585 120.582 43.5916C120.105 44.0247 119.477 44.2381 118.718 44.2381H116.289V47.4518H115.291V39.5808H118.705ZM118.705 43.3719C119.182 43.3719 119.571 43.2339 119.86 42.964C120.155 42.6878 120.299 42.3426 120.299 41.9157C120.299 41.4889 120.155 41.1374 119.86 40.8675C119.565 40.5914 119.182 40.4595 118.705 40.4595H116.289V43.3845H118.705V43.3719Z" fill="#0F0B42"/>
<path d="M125.045 39.5808H126.043V46.5856H130.48V47.4518H125.038V39.5808H125.045Z" fill="#0F0B42"/>
<path d="M134.014 39.5808H139.757V40.447H135.012V43.0581H139.286V43.8992H135.012V46.5856H139.87V47.4518H134.014V39.5808Z" fill="#0F0B42"/>
</svg>
