<svg width="166" height="29" viewBox="0 0 166 29" fill="none" xmlns="http://www.w3.org/2000/svg">
<path d="M39.5951 3.83838H35.0248V24.6321H39.5951V3.83838Z" fill="#002549"/>
<path d="M49.6057 3.83838H45.0355V24.6321H59.9741V20.4685H49.6057V3.83838Z" fill="#002549"/>
<path d="M67.8947 3.83838H63.3245V24.6321H78.2631V20.4685H67.8947V3.83838Z" fill="#002549"/>
<path d="M86.2813 3.83838H81.7111V24.6321H86.2813V3.83838Z" fill="#002549"/>
<path d="M105.676 16.6383L95.9422 3.83838H91.7217V24.6321H96.235V11.4093L106.302 24.6321H110.198V3.83838H105.676V16.6383Z" fill="#002549"/>
<path d="M125.6 3.48071C119.184 3.48071 114.524 8.3193 114.524 14.2313V14.2882C114.524 20.2003 119.127 24.9819 125.543 24.9819C131.959 24.9819 136.619 20.1433 136.619 14.2313V14.1744C136.619 8.26237 132.016 3.48071 125.6 3.48071ZM131.837 14.2964C131.837 17.8582 129.284 20.7695 125.6 20.7695C121.916 20.7695 119.306 17.8013 119.306 14.2313V14.1744C119.306 10.6125 121.859 7.70126 125.543 7.70126C129.227 7.70126 131.837 10.6695 131.837 14.2313V14.2964Z" fill="#002549"/>
<path d="M145.621 3.83838H141.043V24.6321H145.621V3.83838Z" fill="#002549"/>
<path d="M159.405 12.182C155.811 11.2631 154.916 10.8158 154.916 9.44961V9.39269C154.916 8.38431 155.835 7.57924 157.591 7.57924C159.348 7.57924 161.153 8.35178 162.999 9.62852L165.374 6.18052C163.268 4.48905 160.682 3.5376 157.648 3.5376C153.403 3.5376 150.37 6.03414 150.37 9.80743V9.86435C150.37 13.9954 153.07 15.1502 157.258 16.2236C160.73 17.1182 161.446 17.7118 161.446 18.8666V18.9235C161.446 20.1433 160.316 20.8833 158.445 20.8833C156.071 20.8833 154.111 19.8993 152.241 18.3542L149.541 21.5908C152.037 23.819 155.217 24.9168 158.364 24.9168C162.845 24.9168 166 22.5992 166 18.4762V18.4193C166 14.8005 163.617 13.288 159.405 12.182Z" fill="#002549"/>
<path d="M15.329 20.8018V7.66041H19.7121V0H0V7.66041H4.37505V20.7937H0V28.4623H19.704V20.8018H15.329ZM18.6062 27.3644H1.0897V21.8915H4.37505C4.97683 21.8915 5.47288 21.4036 5.47288 20.7937V7.66041C5.47288 7.05864 4.98496 6.56258 4.37505 6.56258H1.0897V1.09783H18.6062V6.57072H15.3208C14.7191 6.57072 14.223 7.05864 14.223 7.66855V20.8018C14.223 21.4036 14.7109 21.8997 15.3208 21.8997H18.6062V27.3644Z" fill="#002549"/>
<path d="M15.273 6.56167H18.559V1.08521H1.03107V6.56167H4.31705C4.91894 6.56167 5.41509 7.04992 5.41509 7.66022V20.8021C5.41509 21.4043 4.92707 21.9007 4.31705 21.9007H1.03107V27.3771H18.5509V21.9007H15.2649C14.663 21.9007 14.1669 21.4124 14.1669 20.8021V7.65208C14.175 7.04992 14.663 6.56167 15.273 6.56167Z" fill="#FF5F05"/>
</svg>
