<svg width="107" height="58" viewBox="0 0 107 58" fill="none" xmlns="http://www.w3.org/2000/svg">
<path d="M17.8707 41.6986L17.6422 41.7862C17.5356 41.5386 17.3527 41.4434 16.9223 41.4434H15.4179V46.3795C15.4179 46.6766 15.574 46.7718 15.8026 46.7718V47.0385H13.6468V46.7718C13.8334 46.8023 14.0086 46.6728 14.0391 46.4862C14.0391 46.4786 14.0391 46.471 14.0391 46.4633C14.0391 46.4329 14.0391 46.3986 14.0391 46.3681V41.4434H12.5651C12.1042 41.4434 11.9405 41.531 11.8224 41.7862L11.5748 41.6986L11.8795 40.2703C12.07 40.3045 12.2642 40.3198 12.4585 40.3198H17.0328C17.2042 40.316 17.3794 40.3007 17.547 40.2703L17.8707 41.6986Z" fill="#E87500"/>
<path d="M25.0655 47.0384H22.925V46.7718C23.1535 46.7718 23.2906 46.6575 23.2906 46.3871V44.0333H20.6016V46.3871C20.6016 46.6499 20.7273 46.7718 20.9673 46.7718V47.0384H18.8534V46.7718C19.1124 46.7718 19.219 46.6575 19.219 46.3871V40.9406C19.219 40.6739 19.0857 40.5749 18.8458 40.5749V40.3159H20.9863V40.5749C20.7578 40.5749 20.6207 40.6625 20.6207 40.9406V42.9097H23.3096V40.9406C23.3096 40.6625 23.1763 40.5749 22.944 40.5749V40.3159H25.0845V40.5749C24.8332 40.5749 24.7189 40.6625 24.7189 40.9406V46.3871C24.7189 46.6575 24.8522 46.7718 25.0845 46.7718L25.0655 47.0384Z" fill="#E87500"/>
<path d="M31.3615 45.5796L31.0187 47.0841C30.8359 47.0574 30.6569 47.0384 30.474 47.0346H26.2615V46.7679C26.5015 46.7679 26.6272 46.6346 26.6272 46.3756V40.9786C26.6272 40.7158 26.4939 40.5749 26.2615 40.5749V40.3159H30.4893C30.6645 40.3121 30.8359 40.2968 31.0073 40.2664L31.312 41.7061L31.0911 41.7823C30.9996 41.5461 30.7559 41.4052 30.5083 41.4395H28.0326V42.7649H30.2722C30.4359 42.7916 30.5883 42.6773 30.6112 42.5135C30.6112 42.4945 30.6112 42.4754 30.6112 42.4564H30.874V44.2161H30.6226C30.6226 44.0142 30.5274 43.8733 30.2798 43.8733H28.025V45.8919H30.474C30.7597 45.9376 31.0301 45.7624 31.1101 45.4882L31.3577 45.5834L31.3615 45.5796Z" fill="#E87500"/>
<path d="M41.1157 40.5749C40.8948 40.5749 40.7501 40.693 40.7501 40.971V45.3587C40.7425 45.5835 40.7806 45.8044 40.8644 46.01C39.9807 46.6956 39.078 47.1831 38.0725 47.1831C37.0099 47.1831 35.9891 46.7718 35.2274 46.0329C35.2997 45.8234 35.3378 45.6025 35.334 45.3816V41.0205C35.334 40.7044 35.2007 40.5787 34.9608 40.5787V40.3197H37.1051V40.5787C36.8651 40.5787 36.7318 40.6968 36.7318 41.0205V45.0883C36.7318 45.6368 37.2079 46.0138 38.1068 46.0138C39.0057 46.0138 39.4323 45.572 39.4323 45.1112V40.9672C39.4323 40.6701 39.2989 40.5559 39.0666 40.5559V40.2969H41.1272L41.1157 40.5787V40.5749Z" fill="#E87500"/>
<path d="M48.5047 40.5746C48.3142 40.5556 48.1467 40.6965 48.1314 40.8831V47.0343H47.0574C47.004 46.8743 46.9279 46.722 46.8288 46.5849L43.957 42.5323H43.938V46.3792C43.9151 46.5658 44.0484 46.741 44.2351 46.7639H44.3112V47.0305H42.2964V46.7639C42.5363 46.7639 42.6658 46.6572 42.6658 46.3792V40.9326C42.6773 40.7422 42.5325 40.5784 42.3459 40.567H42.3002V40.308H44.037C44.0941 40.4718 44.1741 40.6279 44.2769 40.7689L46.8441 44.3415V40.906C46.8441 40.7041 46.7565 40.5632 46.4784 40.5632V40.3042H48.4971L48.5123 40.567L48.5047 40.5746Z" fill="#E87500"/>
<path d="M51.8336 47.0381H49.6931V46.7715C49.914 46.7715 50.0587 46.6649 50.0587 46.3868V40.9669C50.0587 40.6889 49.9254 40.5822 49.6931 40.5822V40.3232H51.8336V40.5822C51.6431 40.567 51.4794 40.7117 51.4679 40.8984C51.4679 40.9212 51.4679 40.9403 51.4679 40.9631V46.3868C51.4679 46.6572 51.6013 46.7715 51.8336 46.7715V47.0343V47.0381Z" fill="#E87500"/>
<path d="M59.352 40.5746C59.1654 40.5746 59.0093 40.7194 58.9178 41.0164L57.1315 46.2002C57.0782 46.3259 57.0477 46.4592 57.0363 46.5963C57.0249 46.6801 57.0858 46.7563 57.1734 46.7677H57.1963V47.0343H54.9491V46.7677C55.0329 46.7829 55.1129 46.7258 55.1281 46.642C55.1281 46.6306 55.1281 46.623 55.1281 46.6115C55.1015 46.4211 55.0481 46.2383 54.9758 46.0631L53.2275 41.1269C53.1018 40.7841 52.9876 40.5822 52.7743 40.5822V40.3232H54.9262V40.5822C54.7625 40.5822 54.6673 40.6775 54.6673 40.7955C54.6749 40.8946 54.6939 40.9898 54.7244 41.085L56.1755 45.5527H56.1946L57.52 41.1536C57.5543 41.0431 57.5772 40.925 57.5848 40.8108C57.5848 40.6851 57.52 40.5899 57.3334 40.5899V40.3309H59.3444L59.352 40.5822V40.5746Z" fill="#E87500"/>
<path d="M65.3928 45.5796L65.05 47.0841C64.8672 47.0574 64.6844 47.0384 64.5016 47.0346H60.2967V46.7679C60.5366 46.7679 60.6623 46.6346 60.6623 46.3756V40.9786C60.6623 40.7158 60.529 40.5749 60.2967 40.5749V40.3159H64.5244C64.6996 40.3121 64.871 40.2968 65.0424 40.2664L65.3471 41.7061L65.1262 41.7823C65.0348 41.5461 64.791 41.4052 64.5397 41.4395H62.0716V42.7649H64.3073C64.5587 42.7649 64.6501 42.6202 64.6501 42.4564H64.8901V44.2161H64.6387C64.6387 44.0142 64.5435 43.8733 64.2959 43.8733H62.0602V45.8919H64.5092C64.7949 45.9414 65.0653 45.7662 65.1414 45.4882L65.3928 45.5834V45.5796Z" fill="#E87500"/>
<path d="M72.0505 47.0382H70.207C69.7919 46.2307 69.4453 45.389 69.1749 44.5244H68.1922V46.3869C68.1922 46.6649 68.3255 46.7715 68.5655 46.7715V47.0382H66.4516V46.7715C66.642 46.7868 66.8058 46.642 66.821 46.4554C66.821 46.4326 66.821 46.4135 66.821 46.3907V40.9441C66.8325 40.7537 66.6877 40.5937 66.4973 40.5785H66.4554V40.3195C67.141 40.289 68.3293 40.2395 68.8359 40.2395C70.7669 40.2395 71.8905 40.7499 71.8905 42.3C71.9058 43.1913 71.3383 43.9911 70.4889 44.2692C70.7707 45.0538 71.1326 45.8079 71.563 46.524C71.681 46.6916 71.8753 46.7868 72.081 46.7754L72.0467 47.0382H72.0505ZM68.9121 41.3631C68.6873 41.3631 68.4017 41.3821 68.1541 41.3936V43.3894C68.3522 43.3894 68.7483 43.4084 68.9882 43.4084C70.0204 43.4084 70.4584 42.9742 70.4584 42.3381C70.4584 41.7021 70.0966 41.3593 68.9121 41.3593" fill="#E87500"/>
<path d="M75.3337 47.2022C74.8081 47.1793 74.2863 47.1222 73.7683 47.0384C73.5893 47.046 73.4141 47.0879 73.2503 47.1641L72.9647 45.2064L73.2808 45.1264C73.4522 45.5606 73.9321 46.0672 75.1814 46.0786C76.2516 46.0786 76.5563 45.6749 76.5563 45.2064C76.5563 44.7379 76.2669 44.5817 75.7489 44.3799L74.6634 43.9571C73.8483 43.641 73.1741 43.1116 73.1741 42.0451C73.1741 40.9787 74.2977 40.1636 75.5546 40.1636C76.0155 40.1864 76.4725 40.2359 76.9296 40.3083C77.0857 40.3159 77.2419 40.2893 77.3905 40.2321L77.619 41.9232L77.2762 41.988C77.0286 41.5957 76.5373 41.2681 75.6346 41.2681C74.7319 41.2681 74.5796 41.6338 74.5796 41.9537C74.5796 42.2736 74.7776 42.4641 75.3071 42.6659L76.4611 43.1039C77.2762 43.4239 77.977 43.9914 77.977 45.1188C78.0037 46.4252 77.0134 47.2022 75.3337 47.2022Z" fill="#E87500"/>
<path d="M81.2335 47.0381H79.0892V46.7715C79.3139 46.7715 79.4548 46.6649 79.4548 46.3868V40.9669C79.4548 40.6889 79.3177 40.5822 79.0892 40.5822V40.3232H81.2335V40.5822C81.0431 40.567 80.8793 40.7117 80.8641 40.8984C80.8641 40.9212 80.8641 40.9441 80.8641 40.9669V46.3906C80.8641 46.661 80.9974 46.7753 81.2297 46.7753V47.0381H81.2335Z" fill="#E87500"/>
<path d="M88.4664 41.6986L88.2378 41.7862C88.1312 41.5386 87.9484 41.4434 87.518 41.4434H86.0211V46.3795C86.0211 46.6766 86.1773 46.7718 86.4058 46.7718V47.0385H84.2463V46.7718C84.4329 46.7947 84.6043 46.6652 84.6309 46.4748C84.6309 46.4443 84.6309 46.41 84.6309 46.3795V41.4434H83.1798C82.7151 41.4434 82.5552 41.531 82.4371 41.7862L82.1895 41.6986L82.4942 40.2703C82.6847 40.3045 82.8789 40.3198 83.0693 40.3198H87.6399C87.8151 40.316 87.9865 40.3007 88.1579 40.2703L88.4664 41.6986Z" fill="#E87500"/>
<path d="M95.4097 40.5748C95.1888 40.5748 95.0365 40.7005 94.8536 41.0166L92.9797 44.2693V46.3832C92.9797 46.6612 93.113 46.7679 93.3454 46.7679V47.0345H91.2163V46.7679C91.4562 46.7679 91.5819 46.6536 91.5819 46.3832V44.2693L89.727 41.0319C89.5366 40.6891 89.4109 40.571 89.171 40.571V40.312H91.4105V40.571C91.3153 40.5596 91.2315 40.6281 91.2163 40.7234V40.7462C91.2277 40.8071 91.2505 40.8643 91.281 40.9176L92.3513 42.9782H92.3779L93.4368 40.99C93.4787 40.9176 93.5091 40.8376 93.5244 40.7538C93.5244 40.6662 93.4939 40.5786 93.3416 40.5786V40.3196H95.425L95.4135 40.571L95.4097 40.5748Z" fill="#E87500"/>
<path d="M3.39743 58.0002C1.55398 58.0002 0 56.7433 0 54.4733C0 52.2032 1.58445 50.9578 3.39743 50.9578C5.2104 50.9578 6.83294 52.1994 6.83294 54.4733C6.8139 56.6443 5.35514 58.0002 3.39743 58.0002ZM3.39743 52.1347C2.36525 52.1347 1.4778 52.9307 1.4778 54.4771C1.4778 56.0234 2.35001 56.8423 3.39743 56.8423C4.44484 56.8423 5.34752 56.0234 5.34752 54.4885C5.34752 52.9536 4.46388 52.1347 3.39743 52.1347Z" fill="#E87500"/>
<path d="M13.0146 52.4847L12.7899 52.5647C12.6718 52.3209 12.4052 52.18 12.1386 52.2219H9.73526V53.6349H11.971C12.2338 53.6349 12.3138 53.4902 12.3138 53.3264H12.5652V55.0861H12.3138C12.3138 54.9033 12.2186 54.7585 11.9482 54.7585H9.74669V57.12C9.74669 57.4285 9.90285 57.5542 10.1314 57.5542V57.8208H7.9718V57.5542C8.19271 57.5542 8.33744 57.4094 8.33744 57.12V51.7801C8.37172 51.5934 8.24984 51.4144 8.06321 51.3801C8.03274 51.3801 8.00227 51.3801 7.97561 51.3801V51.1211H12.0967C12.3024 51.1211 12.5119 51.1059 12.7137 51.0754L13.0146 52.4885V52.4847Z" fill="#E87500"/>
<path d="M22.6775 52.4964L22.4489 52.584C22.3423 52.3364 22.1595 52.2412 21.7291 52.2412H20.2322V57.1774C20.2322 57.4745 20.3884 57.5697 20.6169 57.5697V57.8363H18.4573V57.5697C18.644 57.5925 18.8154 57.463 18.842 57.2726C18.842 57.2421 18.842 57.2079 18.842 57.1774V52.2412H17.3871C16.9262 52.2412 16.7624 52.3288 16.6482 52.584L16.3968 52.4964L16.7015 51.0681C16.8919 51.1024 17.0862 51.1176 17.2804 51.1176H21.8548C22.03 51.1138 22.2014 51.0986 22.3728 51.0681L22.6775 52.4964Z" fill="#E87500"/>
<path d="M28.7296 56.3774L28.3869 57.8819C28.2078 57.8553 28.025 57.84 27.8422 57.8324H23.6297V57.5658C23.8697 57.5658 23.9953 57.4325 23.9953 57.1735V51.7765C23.9953 51.5175 23.862 51.3727 23.6297 51.3727V51.1137H27.8574C28.0326 51.1099 28.204 51.0947 28.3754 51.0642L28.6839 52.5039L28.4592 52.5801C28.3678 52.344 28.1241 52.203 27.8765 52.2373H25.4046V53.5628H27.6441C27.8079 53.5894 27.9603 53.4752 27.9831 53.3114C27.9831 53.2923 27.9869 53.2733 27.9831 53.2543H28.2345V55.0139H27.9831C27.9831 54.812 27.8879 54.6864 27.6403 54.6864H25.4008V56.7012H27.8498C28.1355 56.7507 28.4097 56.5755 28.4859 56.2975L28.7258 56.3774H28.7296Z" fill="#E87500"/>
<path d="M35.5778 57.8364H33.2278V57.5698C33.3877 57.5698 33.4487 57.505 33.4487 57.4136C33.4411 57.3375 33.4106 57.2651 33.3611 57.2041L32.4508 55.5816H32.4317L31.5481 57.2118C31.5062 57.2689 31.4795 57.3336 31.4681 57.406C31.4681 57.4936 31.5176 57.566 31.6585 57.566V57.8326H29.518V57.566C29.7694 57.566 29.9217 57.4898 30.1122 57.1622L31.7271 54.4618L30.1122 51.8414C29.8913 51.4986 29.7694 51.3691 29.5066 51.3691V51.1101H31.8109V51.3691C31.6547 51.3691 31.609 51.4262 31.609 51.5138C31.6319 51.5976 31.6662 51.6814 31.7157 51.7538L32.6679 53.3954L33.5706 51.7157C33.6048 51.6548 33.6277 51.5862 33.6391 51.5138C33.6391 51.4262 33.582 51.3691 33.4487 51.3691V51.1101H35.5511V51.3691C35.2997 51.3691 35.1664 51.4567 34.9569 51.8109L33.342 54.5037L34.976 57.1851C35.075 57.4136 35.3035 57.5584 35.5511 57.5507L35.574 57.8326L35.5778 57.8364Z" fill="#E87500"/>
<path d="M43.001 57.8361H40.8605V57.5695C41.0547 57.5695 41.1119 57.4819 41.1119 57.36C41.1119 57.2762 41.0928 57.1962 41.0586 57.1201L40.9253 56.7239C40.4987 56.8039 40.0645 56.842 39.6303 56.842C39.1999 56.8344 38.7695 56.7963 38.3429 56.7239L38.2096 57.1658C38.1944 57.2381 38.1867 57.3105 38.1829 57.3867C38.1829 57.4933 38.2515 57.5428 38.4419 57.5695V57.8361H36.4233V57.5695C36.5871 57.5695 36.7318 57.4933 36.8651 57.1086L38.6705 51.8449C38.7047 51.7573 38.7276 51.6697 38.739 51.5783C38.739 51.4716 38.7009 51.3764 38.5752 51.3764V51.1174H40.8148V51.3764C40.7272 51.3612 40.6472 51.4221 40.632 51.5059V51.5402C40.6472 51.6507 40.6739 51.7535 40.7196 51.8563L42.5706 57.1353C42.6887 57.4552 42.8334 57.5695 42.9934 57.5695L43.0086 57.8361H43.001ZM39.6036 52.6143H39.5846L38.6895 55.6194C39.0056 55.6803 39.3294 55.7146 39.6531 55.7146C39.9616 55.7146 40.2701 55.6803 40.5748 55.6194L39.6074 52.6143H39.6036Z" fill="#E87500"/>
<path d="M46.2119 58.0003C45.6863 57.9774 45.1645 57.9203 44.6503 57.8365C44.4713 57.8403 44.2923 57.886 44.1323 57.9622L43.8428 56.0045L44.159 55.9245C44.3304 56.3587 44.8103 56.8653 46.0634 56.8767C47.1298 56.8767 47.4383 56.473 47.4383 56.0045C47.4383 55.536 47.1488 55.3798 46.6309 55.178L45.5454 54.7552C44.7303 54.4391 44.0561 53.9097 44.0561 52.8432C44.0561 51.7767 45.1797 50.9617 46.4366 50.9617C46.8975 50.9845 47.3545 51.034 47.8116 51.1064C47.9677 51.114 48.1239 51.0874 48.2724 51.0302L48.501 52.7213L48.1734 52.7861C47.922 52.3938 47.4345 52.0662 46.5318 52.0662C45.6291 52.0662 45.4768 52.4357 45.4768 52.7518C45.4768 53.0679 45.6749 53.2622 46.2043 53.464L47.3583 53.902C48.1734 54.222 48.8742 54.7895 48.8742 55.9169C48.8818 57.2233 47.8916 58.0003 46.2119 58.0003Z" fill="#E87500"/>
<path d="M58.8836 57.8361H56.7393V57.5695C56.9297 57.5695 56.9907 57.4819 56.9907 57.36C56.9907 57.2762 56.9716 57.1962 56.9412 57.1201L56.8079 56.7239C56.3813 56.8039 55.9471 56.842 55.5129 56.842C55.0825 56.8344 54.6521 56.7963 54.2255 56.7239L54.0922 57.1658C54.0732 57.2381 54.0656 57.3105 54.0617 57.3867C54.0617 57.4933 54.1303 57.5428 54.3245 57.5695V57.8361H52.3173V57.5695C52.4773 57.5695 52.622 57.4933 52.7553 57.1086L54.5645 51.8449C54.5988 51.7573 54.6216 51.6697 54.6292 51.5783C54.6292 51.4716 54.5912 51.3764 54.4693 51.3764V51.1174H56.6974V51.3764C56.6098 51.365 56.526 51.4298 56.5146 51.5174V51.5402C56.5298 51.6507 56.5565 51.7535 56.6022 51.8563L58.4571 57.1353C58.5713 57.4552 58.7161 57.5695 58.8798 57.5695L58.8913 57.8361H58.8836ZM55.4824 52.6143L54.5873 55.6194C54.9035 55.6803 55.2234 55.7146 55.5472 55.7146C55.8595 55.7146 56.168 55.6803 56.4727 55.6194L55.4824 52.6143Z" fill="#E87500"/>
<path d="M64.8101 52.4964L64.5816 52.584C64.475 52.3364 64.2921 52.2412 63.8617 52.2412H62.3649V57.1774C62.3649 57.4745 62.5211 57.5697 62.7496 57.5697V57.8363H60.59V57.5697C60.7766 57.5925 60.9518 57.463 60.9747 57.2726C60.9747 57.2421 60.9747 57.2079 60.9747 57.1774V52.2412H59.5235C59.0589 52.2412 58.8989 52.3288 58.7808 52.584L58.5333 52.4964L58.838 51.0681C59.0284 51.1024 59.2227 51.1176 59.4169 51.1176H63.9874C64.1626 51.1138 64.334 51.0986 64.5054 51.0681L64.8139 52.4964H64.8101Z" fill="#E87500"/>
<path d="M70.8508 57.9161C69.9862 57.9161 68.9312 57.8781 68.3523 57.8362V57.5695C68.5351 57.581 68.6951 57.4439 68.7141 57.261V51.765C68.7141 51.4565 68.5808 51.3803 68.3484 51.3803V51.1213C68.9921 51.0908 69.8758 51.0527 70.9232 51.0527C73.4598 51.0527 74.4844 52.2449 74.4844 54.4045C74.4844 56.3812 73.5208 57.9161 70.8508 57.9161ZM70.8508 52.1687C70.5614 52.1687 70.31 52.1687 70.131 52.1877V56.7659C70.3138 56.7659 70.5918 56.7849 70.8508 56.7849C72.2905 56.7849 73.0675 55.8442 73.0675 54.3816C73.0675 52.919 72.2334 52.1649 70.8508 52.1649" fill="#E87500"/>
<path d="M81.6944 57.8361H79.5539V57.5695C79.7443 57.5695 79.8014 57.4819 79.8014 57.36C79.8014 57.2762 79.7824 57.1962 79.7519 57.1201L79.6186 56.7239C79.192 56.8039 78.7578 56.842 78.3236 56.842C77.8932 56.8344 77.4628 56.7963 77.0362 56.7239L76.9029 57.1658C76.8839 57.2381 76.8763 57.3105 76.8763 57.3867C76.8763 57.4933 76.941 57.5428 77.1353 57.5695V57.8361H75.1471V57.5695C75.3071 57.5695 75.4518 57.4933 75.5889 57.1086L77.3943 51.8449C77.4286 51.7573 77.4514 51.6697 77.4628 51.5783C77.4628 51.4716 77.4209 51.3764 77.2991 51.3764V51.1174H79.5348V51.3764C79.4472 51.365 79.3672 51.4298 79.352 51.5174V51.5402C79.3672 51.6507 79.3977 51.7573 79.4396 51.8563L81.2906 57.1353C81.4087 57.4552 81.5496 57.5695 81.7134 57.5695L81.6982 57.8361H81.6944ZM78.2931 52.6143L77.3981 55.6194C77.7142 55.6803 78.0341 55.7146 78.3579 55.7146C78.6702 55.7146 78.9787 55.6803 79.2834 55.6194L78.2931 52.6143Z" fill="#E87500"/>
<path d="M87.7389 56.3964L87.3961 57.8856C87.1905 57.859 86.981 57.8399 86.7715 57.8361H82.6504V57.5695C82.8903 57.5695 83.0198 57.4552 83.0198 57.1772V51.7611C83.0427 51.5745 82.9094 51.3993 82.7228 51.3764H82.6542V51.1174H84.8138V51.3764C84.6119 51.365 84.4405 51.5174 84.4253 51.7192C84.4253 51.7383 84.4253 51.7573 84.4253 51.7764V56.6973H86.9048C87.1714 56.7316 87.4266 56.5754 87.518 56.324L87.7427 56.3964H87.7389Z" fill="#E87500"/>
<path d="M93.8634 56.3965L93.5206 57.8857C93.3149 57.8591 93.1054 57.84 92.8959 57.8362H88.7748V57.5696C89.0148 57.5696 89.1405 57.4553 89.1405 57.1773V51.7612C89.1633 51.5746 89.03 51.4032 88.8434 51.3803H88.7787V51.1213H90.9382V51.3803C90.7364 51.3689 90.565 51.5213 90.5497 51.7231C90.5497 51.7422 90.5497 51.7612 90.5497 51.7803V56.7012H93.0102C93.2768 56.7355 93.532 56.5793 93.6234 56.3279L93.871 56.3965H93.8634Z" fill="#E87500"/>
<path d="M101.119 57.8361H98.9786V57.5695C99.1728 57.5695 99.23 57.4819 99.23 57.36C99.2262 57.2762 99.2109 57.1962 99.1805 57.1201L99.0433 56.7239C98.6168 56.8039 98.1826 56.842 97.7484 56.842C97.318 56.8344 96.8876 56.7963 96.461 56.7239L96.3277 57.1658C96.3125 57.2381 96.3048 57.3105 96.301 57.3867C96.301 57.4933 96.3696 57.5428 96.56 57.5695V57.8361H94.5528V57.5695C94.7166 57.5695 94.8613 57.4933 94.9946 57.1086L96.7924 51.8449C96.8266 51.7573 96.8495 51.6697 96.8609 51.5783C96.8609 51.4716 96.8228 51.3764 96.6971 51.3764V51.1174H98.9557V51.3764C98.8681 51.365 98.7843 51.4298 98.7729 51.5174V51.5402C98.7882 51.6507 98.8148 51.7535 98.8605 51.8563L100.712 57.1353C100.83 57.4552 100.974 57.5695 101.134 57.5695L101.123 57.8361H101.119ZM97.7217 52.6143H97.7027L96.8076 55.6194C97.1237 55.6803 97.4475 55.7146 97.7712 55.7146C98.0797 55.7146 98.3882 55.6803 98.6929 55.6194L97.7255 52.6143H97.7217Z" fill="#E87500"/>
<path d="M104.326 58.0003C103.801 57.9774 103.279 57.9203 102.765 57.8365C102.586 57.8403 102.407 57.886 102.247 57.9622L101.957 56.0045L102.273 55.9245C102.445 56.3587 102.925 56.8653 104.178 56.8767C105.244 56.8767 105.553 56.473 105.553 56.0045C105.553 55.536 105.263 55.3798 104.745 55.178L103.663 54.7552C102.848 54.4391 102.174 53.9097 102.174 52.8432C102.174 51.7767 103.298 50.9617 104.558 50.9617C105.019 50.9845 105.476 51.034 105.933 51.1064C106.09 51.114 106.246 51.0874 106.394 51.0302L106.623 52.7213L106.295 52.7861C106.048 52.3938 105.556 52.0662 104.654 52.0662C103.751 52.0662 103.599 52.4357 103.599 52.7518C103.599 53.0679 103.801 53.2622 104.326 53.464L105.48 53.902C106.295 54.222 106.996 54.7895 106.996 55.9169C106.996 57.0443 106.01 58.0003 104.326 58.0003Z" fill="#E87500"/>
<path d="M67.8875 4.44484L67.1867 4.63909C66.8477 3.92685 66.3907 3.54216 65.2747 3.54216H54.7739V32.4812C54.7739 33.6467 55.2843 34.0657 55.9851 34.0657L56.1222 34.6484H49.3122L49.4493 34.0657C50.1234 34.0657 50.6909 33.6124 50.6909 32.4812V3.53835H40.2206C39.1351 3.53835 38.5333 3.9916 38.2743 4.63528L37.5735 4.44103L38.5866 0C39.1389 0.137116 39.7064 0.190439 40.2739 0.159969H65.4461C65.9184 0.167587 66.3907 0.110454 66.8477 0L67.8761 4.44103L67.8875 4.44484ZM64.1207 30.5045C61.2146 30.5045 57.5924 30.3978 56.6898 30.295V29.6361C57.2839 29.678 57.8019 29.2209 57.84 28.6153C57.84 28.6153 57.84 28.6115 57.84 28.6077C57.84 28.5772 57.84 28.5468 57.84 28.5201V7.86893C57.8743 7.27095 57.4248 6.76057 56.8383 6.72629C56.785 6.72629 56.7316 6.72629 56.6745 6.72629V6.04072C57.7943 5.93788 61.5193 5.79695 64.0445 5.79695C69.4491 5.79695 72.34 8.70686 72.34 17.4708C72.34 26.2348 69.9252 30.5159 64.113 30.5159V30.5045H64.1207ZM64.8558 9.35435C64.3644 9.35435 62.3153 9.35435 62.1058 9.38863V26.9318C62.3153 26.9661 64.3987 26.9661 64.6463 26.9661C66.8858 26.9661 67.9371 24.2962 67.9371 17.467C67.9371 10.6379 66.6078 9.35435 64.8558 9.35435ZM48.8094 6.75296V6.06738C48.8094 6.06738 46.048 6.08642 43.8389 6.06738C43.8389 6.06738 43.359 6.63488 43.359 8.0289V25.2941C43.359 26.669 42.3764 27.3546 41.2223 27.3546C40.0683 27.3546 39.1237 26.7985 39.1237 25.2941V8.04032C39.1237 7.17573 39.615 6.72629 40.2777 6.72629V6.06738H35.593C35.1207 6.60822 34.8693 7.31665 34.8959 8.04032V25.7206C34.9378 26.4024 34.8541 27.0842 34.6484 27.7317C36.2519 29.7541 38.6743 30.9196 41.2261 30.9044C43.7628 30.8511 46.2956 30.6644 48.8132 30.3483V29.6703C48.219 29.7122 47.7049 29.2552 47.6668 28.6534C47.6668 28.6534 47.6668 28.6458 47.6668 28.642C47.6668 28.6153 47.6668 28.5848 47.6668 28.5544V7.8994C47.6363 7.29761 48.0895 6.78723 48.6799 6.75676C48.7218 6.75676 48.7675 6.75676 48.8094 6.75676V6.75296Z" fill="#E87500"/>
</svg>
