<svg width="167" height="42" viewBox="0 0 167 42" fill="none" xmlns="http://www.w3.org/2000/svg">
<path d="M41.7054 20.5372C41.9948 19.7394 42.0904 19.606 42.2364 19.606C42.3824 19.606 42.4881 19.7268 42.7674 20.4743C43.1298 21.3904 46.9175 31.3566 48.3897 35.0259C49.258 37.1727 49.9577 37.5603 50.466 37.7037C50.7776 37.8029 51.103 37.8522 51.4299 37.8497C51.5759 37.8497 51.6816 37.8723 51.6816 37.9931C51.6816 38.1139 51.4652 38.1869 51.1984 38.1869C50.836 38.1869 49.0743 38.1869 47.4107 38.1391C46.9527 38.1139 46.6859 38.1139 46.6859 37.9705C46.6859 37.8723 46.7589 37.8245 46.8546 37.7994C47.0005 37.7515 47.144 37.5351 47.0005 37.15L44.7556 31.2131C44.7411 31.1681 44.7119 31.1292 44.6726 31.1027C44.6334 31.0763 44.5864 31.0637 44.5392 31.0671H39.3396C39.2188 31.0671 39.1484 31.1401 39.088 31.2609L37.6409 35.5393C37.4415 36.0569 37.3276 36.6035 37.3036 37.1576C37.3036 37.6383 37.807 37.8572 38.2197 37.8572H38.4714C38.64 37.8572 38.723 37.9051 38.723 38.0007C38.723 38.1467 38.5771 38.1945 38.3606 38.1945C37.7818 38.1945 36.7449 38.1215 36.4781 38.1215C36.2114 38.1215 34.8851 38.1945 33.7525 38.1945C33.4379 38.1945 33.2945 38.1467 33.2945 38.0007C33.2945 37.9051 33.3901 37.8572 33.5109 37.8572C33.6796 37.8572 34.0143 37.8321 34.2106 37.8069C35.3204 37.6635 35.8037 36.7474 36.224 35.5419L41.7054 20.5372ZM44.2221 30.1888C44.3429 30.1888 44.3429 30.1158 44.3177 30.0202L42.0275 23.5044C41.9067 23.142 41.7859 23.142 41.6651 23.5044L39.541 30.0202C39.4932 30.141 39.541 30.1888 39.614 30.1888H44.2221ZM54.372 26.9322C54.372 23.1571 54.372 22.4902 54.3242 21.7201C54.2763 20.8971 54.0725 20.512 53.2873 20.3434C53.0166 20.2944 52.7419 20.27 52.4668 20.2704C52.3712 20.2704 52.273 20.2226 52.273 20.127C52.273 19.981 52.3938 19.9332 52.6606 19.9332C53.7453 19.9332 55.2654 20.0062 55.3862 20.0062C55.653 20.0062 57.4852 19.9332 58.2351 19.9332C59.7452 19.9332 61.371 20.0792 62.6495 20.9953C63.1558 21.3798 63.5686 21.8738 63.8571 22.4403C64.1456 23.0069 64.3023 23.6313 64.3155 24.267C64.3155 26.0513 63.5605 27.8382 61.3961 29.8415C63.3743 32.3758 65.0152 34.5226 66.4145 36.0175C67.7181 37.3942 68.755 37.6584 69.359 37.7566C69.6702 37.8067 69.985 37.8312 70.3003 37.8296C70.4211 37.8296 70.5167 37.9 70.5167 37.973C70.5167 38.119 70.3732 38.1668 69.9379 38.1668H68.224C66.8725 38.1668 66.271 38.046 65.6418 37.7088C64.6049 37.1526 63.7593 35.9697 62.3852 34.1602C61.3785 32.8339 60.2359 31.2156 59.7552 30.589C59.7172 30.5425 59.6692 30.5052 59.6147 30.4799C59.5602 30.4546 59.5007 30.442 59.4406 30.443L56.4734 30.3952C56.3526 30.3952 56.3048 30.4682 56.3048 30.589V31.1829C56.3048 33.5008 56.3048 35.406 56.4231 36.4202C56.4961 37.1198 56.6421 37.6509 57.3644 37.7465C57.7249 37.7975 58.0877 37.8303 58.4516 37.8447C58.595 37.8447 58.6454 37.9151 58.6454 37.9881C58.6454 38.1089 58.5246 38.1819 58.2578 38.1819C56.9315 38.1819 55.4114 38.1089 55.2906 38.1089C55.2654 38.1089 53.7453 38.1819 53.0255 38.1819C52.7613 38.1819 52.6405 38.1341 52.6405 37.9881C52.6405 37.9151 52.6883 37.8447 52.8343 37.8447C53.0777 37.8355 53.3196 37.8026 53.5566 37.7465C54.0398 37.6509 54.1606 37.1198 54.2587 36.4202C54.377 35.4135 54.377 33.5008 54.377 31.1829L54.372 26.9322ZM56.3048 29.0311C56.3028 29.0904 56.3176 29.1489 56.3474 29.2001C56.3772 29.2513 56.4209 29.2931 56.4734 29.3205C56.8358 29.537 57.9457 29.7056 59.0053 29.7056C59.6418 29.7403 60.2737 29.5806 60.8173 29.2476C61.6604 28.6687 62.2896 27.3651 62.2896 25.5304C62.2896 22.5103 60.6965 20.7058 58.1143 20.7058C57.5713 20.6945 57.0287 20.7426 56.4961 20.8493C56.4372 20.8704 56.3868 20.91 56.3523 20.9622C56.3178 21.0143 56.3011 21.0763 56.3048 21.1387V29.0311ZM72.3891 26.9322C72.3891 23.1571 72.3891 22.4902 72.3438 21.7201C72.2985 20.8971 72.1148 20.512 71.3573 20.3434C71.1001 20.2944 70.8389 20.27 70.5771 20.2704C70.4865 20.2704 70.3959 20.2226 70.3959 20.127C70.3959 19.981 70.5092 19.9332 70.7608 19.9332C71.7927 19.9332 73.1467 20.0062 73.2775 20.0062C73.4839 20.0062 74.8153 19.9332 75.5023 19.9332C75.754 19.9332 75.8698 19.981 75.8698 20.127C75.8698 20.2226 75.7766 20.2704 75.686 20.2704C75.493 20.2779 75.301 20.3023 75.1122 20.3434C74.4931 20.4642 74.3094 20.8745 74.2641 21.7201C74.2188 22.4902 74.2188 23.1672 74.2188 26.9322V28.3793H74.3044C74.6945 27.9213 78.8344 23.4793 79.67 22.5405C80.3118 21.8384 80.9082 21.2117 80.9082 20.8015C80.9216 20.6962 80.8994 20.5894 80.8451 20.4982C80.7909 20.407 80.7076 20.3366 80.6087 20.2981C80.4955 20.2503 80.4024 20.2 80.4024 20.1043C80.4024 20.0087 80.5181 19.9357 80.6792 19.9357C81.1372 19.9357 81.847 20.0087 82.3981 20.0087C82.5114 20.0087 84.0239 19.9357 84.5977 19.9357C84.8494 19.9357 84.9425 19.9835 84.9425 20.1043C84.9425 20.2251 84.8972 20.273 84.7135 20.273C84.2703 20.2982 83.8369 20.4138 83.44 20.6127C82.4988 21.0481 81.9954 21.6521 80.9636 22.689C80.3898 23.2678 76.4008 27.3701 75.9302 27.9741C76.5266 28.6738 79.9166 33.8607 80.8579 34.7692C82.7832 36.6517 83.1733 37.0343 84.2731 37.52C84.7243 37.7093 85.206 37.8159 85.695 37.8346C85.8561 37.8346 85.992 37.8824 85.992 37.978C85.992 38.0737 85.8787 38.1718 85.4886 38.1718H84.3184C83.6766 38.1718 83.2412 38.1718 82.7379 38.124C81.5223 38.0032 80.9485 37.4722 79.9695 36.6517C78.9376 35.7583 75.4545 30.2316 74.3522 28.8071H74.2389V31.1829C74.2389 33.5008 74.2389 35.406 74.3522 36.4202C74.4226 37.1198 74.5585 37.6509 75.2481 37.7465C75.5437 37.7968 75.8421 37.8296 76.1416 37.8447C76.28 37.8447 76.3253 37.9151 76.3253 37.9881C76.3253 38.1089 76.2095 38.1819 75.9578 38.1819C74.8354 38.1819 73.504 38.1089 73.3203 38.1089C73.1366 38.1089 71.8103 38.1819 71.1207 38.1819C70.869 38.1819 70.7533 38.1341 70.7533 37.9881C70.7533 37.9151 70.7986 37.8447 70.937 37.8447C71.1688 37.8355 71.399 37.8026 71.6241 37.7465C72.0846 37.6509 72.1979 37.1198 72.291 36.4202C72.4042 35.4135 72.4042 33.5008 72.4042 31.1829L72.3891 26.9322ZM94.8231 20.5372C95.1126 19.7394 95.2082 19.596 95.3542 19.596C95.5001 19.596 95.6058 19.7168 95.8852 20.4642C96.2476 21.3803 100.035 31.3465 101.508 35.0159C102.376 37.1626 103.075 37.5502 103.584 37.6937C103.895 37.7928 104.221 37.8421 104.548 37.8396C104.694 37.8396 104.799 37.8623 104.799 37.9831C104.799 38.1039 104.583 38.1769 104.316 38.1769C103.954 38.1769 102.192 38.1769 100.541 38.129C100.083 38.1039 99.8163 38.1039 99.8163 37.9604C99.8163 37.8623 99.8893 37.8145 99.9849 37.7893C100.131 37.7415 100.274 37.525 100.131 37.14L97.886 31.2031C97.8715 31.158 97.8422 31.1191 97.803 31.0927C97.7637 31.0662 97.7167 31.0537 97.6695 31.0571H92.4574C92.3366 31.0571 92.2662 31.1301 92.2057 31.2509L90.7586 35.5293C90.5593 36.0469 90.4454 36.5934 90.4214 37.1475C90.4214 37.6282 90.9247 37.8472 91.3375 37.8472H91.5892C91.7578 37.8472 91.8408 37.895 91.8408 37.9906C91.8408 38.1366 91.6974 38.1844 91.4784 38.1844C90.8996 38.1844 89.8627 38.1114 89.5959 38.1114C89.3291 38.1114 88.0028 38.1844 86.8703 38.1844C86.5557 38.1844 86.4123 38.1366 86.4123 37.9906C86.4123 37.895 86.5079 37.8472 86.6287 37.8472C86.7973 37.8472 87.1321 37.822 87.3284 37.7968C88.4382 37.6534 88.9214 36.7373 89.3543 35.5318L94.8231 20.5372ZM97.3398 30.1888C97.4606 30.1888 97.4607 30.1158 97.438 30.0202L95.1453 23.5044C95.0245 23.142 94.9037 23.142 94.7829 23.5044L92.6588 30.0202C92.6109 30.141 92.6588 30.1888 92.7317 30.1888H97.3398ZM126.197 37.8623C125.859 37.6937 125.834 37.6106 125.834 36.9462C125.834 35.7407 125.93 34.7743 125.955 34.3867C125.98 34.135 126.028 34.0016 126.149 34.0016C126.269 34.0016 126.317 34.0746 126.317 34.2684C126.31 34.5671 126.334 34.8658 126.39 35.1593C126.753 36.9462 128.343 37.6207 129.962 37.6207C132.277 37.6207 133.412 35.9571 133.412 34.4119C133.412 32.7458 132.712 31.7819 130.644 30.068L129.551 29.1695C126.992 27.0706 126.413 25.5757 126.413 23.9348C126.413 21.3677 128.343 19.606 131.409 19.606C132.164 19.5985 132.918 19.683 133.654 19.8577C133.929 19.9274 134.212 19.967 134.497 19.976C134.69 19.976 134.748 20.0263 134.748 20.1471C134.748 20.2679 134.653 21.0632 134.653 22.7041C134.653 23.0892 134.605 23.2603 134.484 23.2603C134.363 23.2603 134.315 23.1395 134.29 22.9457C134.247 22.5303 134.141 22.1239 133.976 21.7402C133.832 21.4734 133.18 20.4592 130.956 20.4592C129.29 20.4592 127.988 21.4986 127.988 23.2603C127.988 24.6344 128.615 25.5027 130.93 27.3147L131.607 27.8432C134.454 30.0881 135.131 31.5856 135.131 33.5159C135.126 34.2972 134.937 35.0664 134.581 35.7618C134.225 36.4572 133.711 37.0593 133.08 37.52C132.04 38.2448 130.739 38.5267 129.436 38.5267C128.319 38.5554 127.211 38.3281 126.197 37.8623ZM144.269 20.5372C144.558 19.7394 144.657 19.596 144.8 19.596C144.944 19.596 145.052 19.7168 145.331 20.4642C145.693 21.3803 149.481 31.3465 150.953 35.0159C151.824 37.1626 152.524 37.5502 153.03 37.6937C153.342 37.7927 153.668 37.8419 153.996 37.8396C154.14 37.8396 154.248 37.8623 154.248 37.9831C154.248 38.1039 154.031 38.1769 153.767 38.1769C153.405 38.1769 151.643 38.1769 149.977 38.129C149.519 38.1039 149.255 38.1039 149.255 37.9604C149.255 37.8623 149.325 37.8145 149.423 37.7893C149.567 37.7415 149.713 37.525 149.567 37.14L147.324 31.2031C147.309 31.158 147.279 31.1194 147.24 31.093C147.2 31.0666 147.153 31.054 147.105 31.0571H141.908C141.851 31.0555 141.794 31.074 141.748 31.1093C141.702 31.1445 141.67 31.1946 141.657 31.2509L140.21 35.5293C140.008 36.0464 139.894 36.5931 139.87 37.1475C139.87 37.6282 140.373 37.8472 140.786 37.8472H141.038C141.209 37.8472 141.289 37.895 141.289 37.9906C141.289 38.1366 141.146 38.1844 140.929 38.1844C140.348 38.1844 139.311 38.1114 139.047 38.1114C138.783 38.1114 137.454 38.1844 136.319 38.1844C136.004 38.1844 135.861 38.1366 135.861 37.9906C135.861 37.895 135.956 37.8472 136.077 37.8472C136.311 37.8421 136.545 37.8253 136.777 37.7968C137.887 37.6534 138.37 36.7373 138.805 35.5318L144.269 20.5372ZM146.786 30.1888C146.904 30.1888 146.904 30.1158 146.881 30.0202L144.589 23.5044C144.468 23.142 144.347 23.142 144.226 23.5044L142.102 30.0202C142.054 30.141 142.102 30.1888 142.175 30.1888H146.786ZM155.919 37.8623C155.582 37.6937 155.556 37.6106 155.556 36.9462C155.556 35.7407 155.655 34.7743 155.677 34.3867C155.702 34.135 155.75 34.0016 155.871 34.0016C155.992 34.0016 156.04 34.0746 156.04 34.2684C156.032 34.5671 156.057 34.8658 156.113 35.1593C156.475 36.9462 158.066 37.6207 159.684 37.6207C161.999 37.6207 163.134 35.9571 163.134 34.4119C163.134 32.7458 162.435 31.7819 160.366 30.068L159.274 29.1695C156.714 27.0706 156.135 25.5757 156.135 23.9348C156.135 21.3677 158.066 19.606 161.131 19.606C161.887 19.5985 162.641 19.683 163.376 19.8577C163.653 19.9276 163.936 19.9672 164.222 19.976C164.413 19.976 164.473 20.0263 164.473 20.1471C164.473 20.2679 164.378 21.0632 164.378 22.7041C164.378 23.0892 164.33 23.2603 164.209 23.2603C164.088 23.2603 164.04 23.1395 164.015 22.9457C163.971 22.5306 163.866 22.1244 163.703 21.7402C163.557 21.4734 162.905 20.4592 160.683 20.4592C159.017 20.4592 157.716 21.4986 157.716 23.2603C157.716 24.6344 158.342 25.5027 160.658 27.3147L161.335 27.8432C164.181 30.0881 164.858 31.5856 164.858 33.5159C164.853 34.2972 164.665 35.0664 164.309 35.7618C163.952 36.4572 163.438 37.0593 162.807 37.52C161.768 38.2448 160.467 38.5267 159.163 38.5267C158.045 38.5562 156.935 38.3289 155.919 37.8623ZM108.504 34.8926C108.547 36.8732 108.756 37.4999 109.35 37.6937C109.704 37.7878 110.07 37.836 110.437 37.8371C110.545 37.8371 110.61 37.8849 110.61 37.9831C110.61 38.1265 110.48 38.1743 110.22 38.1743C108.982 38.1743 108.114 38.1039 107.918 38.1039C107.721 38.1039 106.81 38.1743 105.834 38.1743C105.615 38.1743 105.486 38.1517 105.486 37.9831C105.486 37.8849 105.552 37.8371 105.66 37.8371C105.962 37.8375 106.262 37.7891 106.549 37.6937C107.092 37.5225 107.2 36.8229 107.2 34.6283L107.223 20.8015C107.223 19.8602 107.288 19.5934 107.462 19.5934C107.636 19.5934 108.006 20.1245 108.217 20.3661C108.542 20.7763 111.778 24.6621 115.123 28.6436C117.272 31.2005 119.653 34.1451 120.335 34.9353L120.109 22.684C120.086 21.1135 119.935 20.5825 119.26 20.3912C118.911 20.3137 118.554 20.2732 118.196 20.2704C118.045 20.2704 118.022 20.1975 118.022 20.1018C118.022 19.9559 118.196 19.9307 118.458 19.9307C119.434 19.9307 120.471 20.0037 120.723 20.0037C120.974 20.0037 121.679 19.9307 122.57 19.9307C122.809 19.9307 122.96 19.9559 122.96 20.1018C122.96 20.1975 122.874 20.2704 122.721 20.2704C122.545 20.268 122.369 20.2926 122.2 20.3434C121.483 20.512 121.397 21.0431 121.397 22.4902L121.354 36.6316C121.354 38.2222 121.309 38.343 121.158 38.343C121.007 38.343 120.723 38.0913 119.573 36.8002C119.333 36.5486 116.208 33.0251 113.905 30.2568C111.388 27.2367 108.932 24.2015 108.237 23.3308L108.504 34.8926ZM38.3632 11.5022C38.3632 9.6348 38.3632 9.30008 38.338 8.91754C38.3128 8.535 38.2197 8.31856 37.8346 8.23551C37.7002 8.21076 37.5637 8.19897 37.4269 8.20028C37.3791 8.20028 37.3313 8.17511 37.3313 8.12729C37.3313 8.07947 37.3917 8.03166 37.5226 8.03166C38.0612 8.03166 38.7809 8.06689 38.8992 8.06689C39.0175 8.06689 39.7146 8.02914 40.077 8.02914C40.2079 8.02914 40.2683 8.05431 40.2683 8.12478C40.2683 8.19524 40.2205 8.19776 40.1727 8.19776C40.072 8.20034 39.9717 8.21214 39.8732 8.23299C39.551 8.28081 39.4554 8.48467 39.4302 8.91502C39.4076 9.29756 39.4076 9.63229 39.4076 11.4997V13.1733C39.4076 14.8973 39.7901 15.6397 40.3035 16.1304C40.5413 16.3612 40.8253 16.5391 41.1367 16.6523C41.4482 16.7655 41.7801 16.8115 42.1105 16.7873C42.467 16.7852 42.8189 16.7073 43.143 16.5589C43.4671 16.4105 43.756 16.195 43.9905 15.9266C44.5392 15.2446 44.6826 14.2278 44.6826 12.9946V11.5022C44.6826 9.6348 44.6826 9.30008 44.66 8.91754C44.6373 8.535 44.5392 8.31856 44.1566 8.23551C44.023 8.21076 43.8873 8.19896 43.7514 8.20028C43.7036 8.20028 43.6558 8.17511 43.6558 8.12729C43.6558 8.07947 43.7137 8.03166 43.8471 8.03166C44.3857 8.03166 45.0425 8.06689 45.1054 8.06689C45.1684 8.06689 45.7497 8.03166 46.1121 8.03166C46.243 8.03166 46.3034 8.05682 46.3034 8.12729C46.3034 8.19776 46.2556 8.20028 46.2078 8.20028C46.1071 8.20286 46.0068 8.21465 45.9083 8.23551C45.5861 8.30598 45.4905 8.48718 45.4653 8.91754C45.4427 9.30008 45.4427 9.6348 45.4427 11.5022V12.7807C45.4427 14.0743 45.2992 15.5088 44.3404 16.3595C43.6644 16.9621 42.7814 17.2796 41.8765 17.2453C41.4688 17.2453 40.2608 17.1975 39.4126 16.3947C38.8262 15.8335 38.3707 14.9954 38.3707 13.2488L38.3632 11.5022ZM51.8829 15.4509C51.9056 16.4299 52.0264 16.742 52.3485 16.8376C52.5447 16.885 52.7457 16.9095 52.9475 16.9106C53.0079 16.9106 53.0432 16.9333 53.0432 16.9811C53.0432 17.0289 52.9702 17.0767 52.8267 17.0767C52.1447 17.0767 51.6665 17.0415 51.5684 17.0415C51.4702 17.0415 50.9593 17.0767 50.4207 17.0767C50.2999 17.0767 50.2295 17.0767 50.2295 16.9811C50.2295 16.9333 50.2647 16.9106 50.3251 16.9106C50.4914 16.9104 50.6567 16.8858 50.8159 16.8376C51.1153 16.7546 51.1758 16.4073 51.1758 15.3276V8.47208C51.1758 8.00649 51.2135 7.8731 51.3091 7.8731C51.4048 7.8731 51.6061 8.12478 51.7269 8.25816C51.9056 8.4595 53.69 10.3873 55.5322 12.3604C56.7176 13.6188 58.0212 15.0885 58.4038 15.4836L58.2729 9.40578C58.2603 8.62812 58.1773 8.36386 57.8048 8.26823C57.6116 8.23063 57.4152 8.21125 57.2184 8.21034C57.1353 8.21034 57.1227 8.17259 57.1227 8.12478C57.1227 8.07696 57.2184 8.04172 57.3744 8.04172C57.913 8.04172 58.4893 8.07696 58.6202 8.07696C58.7511 8.07696 59.1462 8.04172 59.6269 8.04172C59.7577 8.04172 59.8433 8.05431 59.8433 8.12478C59.8433 8.19524 59.793 8.21034 59.7099 8.21034C59.6131 8.20905 59.5166 8.22091 59.423 8.24558C59.0279 8.32863 58.9801 8.59288 58.9801 9.31015L58.9524 16.3116C58.9524 17.1019 58.9272 17.1623 58.8442 17.1623C58.7611 17.1623 58.5925 17.0289 57.9709 16.3947C57.84 16.2764 56.1161 14.5172 54.8476 13.1532C53.4584 11.6431 52.1069 10.1507 51.7244 9.71786L51.8829 15.4509ZM66.4673 13.6087C66.4673 14.7563 66.4673 15.7001 66.5277 16.2034C66.5629 16.5507 66.6359 16.815 66.9933 16.8628C67.1619 16.8855 67.4237 16.9106 67.5319 16.9106C67.6401 16.9106 67.6275 16.9459 67.6275 16.9811C67.6275 17.0163 67.5671 17.0767 67.4362 17.0767C66.7769 17.0767 66.0244 17.0415 65.964 17.0415C65.9036 17.0415 65.1511 17.0767 64.7912 17.0767C64.6603 17.0767 64.5999 17.0541 64.5999 16.9811C64.5999 16.9459 64.6251 16.9106 64.6955 16.9106C64.8167 16.9059 64.9372 16.8898 65.0554 16.8628C65.2945 16.815 65.3549 16.5507 65.4027 16.2034C65.4631 15.7001 65.4631 14.7563 65.4631 13.6087V11.5022C65.4631 9.6348 65.4631 9.30008 65.438 8.91754C65.4128 8.535 65.2945 8.30598 65.0303 8.24809C64.9095 8.21653 64.7852 8.20047 64.6603 8.20028C64.6125 8.20028 64.5647 8.17511 64.5647 8.12729C64.5647 8.07947 64.6251 8.03166 64.7559 8.03166C65.1511 8.03166 65.9036 8.06689 65.964 8.06689C66.0244 8.06689 66.7769 8.03166 67.1368 8.03166C67.2676 8.03166 67.328 8.05682 67.328 8.12729C67.328 8.19776 67.2802 8.20028 67.2324 8.20028C67.1317 8.20286 67.0314 8.21465 66.9329 8.23551C66.6108 8.2934 66.5151 8.48718 66.49 8.91754C66.4673 9.30008 66.4673 9.6348 66.4673 11.5022V13.6087ZM75.8949 15.617C76.5895 14.0139 78.1927 9.82859 78.4544 8.97794C78.5111 8.83175 78.5475 8.67848 78.5626 8.52242C78.5657 8.46655 78.5526 8.41099 78.5249 8.36235C78.4972 8.31372 78.4562 8.27406 78.4066 8.24809C78.2589 8.20934 78.1061 8.19322 77.9536 8.20028C77.8806 8.20028 77.8202 8.20028 77.8202 8.12729C77.8202 8.05431 77.8932 8.03166 78.0719 8.03166C78.5501 8.03166 79.1012 8.06689 79.2447 8.06689C79.3151 8.06689 79.8311 8.03166 80.1784 8.03166C80.3092 8.03166 80.3822 8.05682 80.3822 8.11471C80.3822 8.17259 80.3344 8.20028 80.2363 8.20028C80.0354 8.19428 79.8368 8.24393 79.6624 8.34373C79.5089 8.44943 79.3277 8.65329 79.0056 9.46618C78.8747 9.80342 78.2757 11.2279 77.6642 12.7102C76.9343 14.4568 76.4058 15.7479 76.1214 16.3368C75.7867 17.0541 75.7389 17.2453 75.6181 17.2453C75.4973 17.2453 75.4167 17.0767 75.1877 16.4903L72.2683 9.16921C72.0167 8.49725 71.8254 8.36638 71.4076 8.24809C71.2583 8.21345 71.1053 8.19739 70.9521 8.20028C70.8816 8.20028 70.8565 8.16253 70.8565 8.11471C70.8565 8.06689 70.9773 8.03166 71.1685 8.03166C71.7423 8.03166 72.4269 8.06689 72.5678 8.06689C72.7088 8.06689 73.2272 8.03166 73.6802 8.03166C73.8966 8.03166 74.0049 8.05682 74.0049 8.11471C74.0049 8.17259 73.9671 8.20028 73.8841 8.20028C73.7309 8.19431 73.5778 8.21387 73.4311 8.25816C73.3818 8.27823 73.3401 8.3134 73.3121 8.35862C73.2841 8.40384 73.2711 8.45678 73.275 8.50983C73.3433 8.85668 73.4514 9.19448 73.5972 9.51652L75.8949 15.617ZM84.7487 11.5022C84.7487 9.6348 84.7487 9.30008 84.7236 8.91754C84.6984 8.535 84.6053 8.31856 84.2202 8.23551C84.0857 8.21076 83.9492 8.19897 83.8125 8.20028C83.7647 8.20028 83.7169 8.17511 83.7169 8.12729C83.7169 8.07947 83.7773 8.03166 83.9081 8.03166C84.185 8.03166 84.5071 8.03166 84.7689 8.04424L85.2596 8.06689H88.0003C88.1736 8.05992 88.3461 8.03973 88.5162 8.00649C88.5741 8.00649 88.6219 7.94609 88.6824 7.94609C88.7428 7.94609 88.7302 7.99391 88.7302 8.05431C88.7302 8.11471 88.6698 8.28081 88.6345 8.61554C88.6345 8.73634 88.5993 9.26233 88.5741 9.40578C88.5741 9.46618 88.5389 9.53665 88.4911 9.53665C88.4433 9.53665 88.3954 9.47625 88.3954 9.38062C88.3958 9.23426 88.372 9.08885 88.325 8.95026C88.2394 8.75899 88.1211 8.61553 87.4743 8.54507C87.2705 8.5199 85.9643 8.50732 85.8359 8.50732C85.7881 8.50732 85.763 8.54507 85.763 8.62812V11.92C85.763 12.003 85.7755 12.0408 85.8359 12.0408C85.9895 12.0408 87.4617 12.0408 87.7361 12.0156C88.0104 11.9904 88.1916 11.9678 88.2998 11.8495C88.408 11.7312 88.4307 11.6935 88.4785 11.6935C88.5263 11.6935 88.5389 11.7161 88.5389 11.7891C88.5389 11.8621 88.4785 12.0634 88.4433 12.4586C88.4206 12.6976 88.3954 13.1406 88.3954 13.2136C88.3954 13.2866 88.3954 13.4426 88.3124 13.4426C88.2293 13.4426 88.2293 13.3948 88.2293 13.3344C88.2354 13.2008 88.2183 13.0671 88.179 12.9392C88.1312 12.7706 88.0255 12.5693 87.5574 12.5215C87.2352 12.4837 86.0473 12.4611 85.846 12.4611C85.8348 12.4599 85.8235 12.4612 85.8129 12.465C85.8023 12.4687 85.7926 12.4748 85.7846 12.4828C85.7767 12.4907 85.7706 12.5004 85.7669 12.511C85.7631 12.5216 85.7618 12.5329 85.763 12.5441V13.5986C85.763 14.0038 85.7504 15.393 85.763 15.6447C85.7982 16.4677 85.9794 16.6237 87.1522 16.6237C87.5394 16.6449 87.9273 16.6006 88.2998 16.4929C88.6119 16.362 88.7553 16.1229 88.8384 15.6321C88.861 15.4987 88.8862 15.4509 88.9466 15.4509C89.007 15.4509 89.0171 15.5466 89.0171 15.6321C88.9847 16.0213 88.9326 16.4085 88.861 16.7923C88.778 17.1019 88.6824 17.1019 88.2168 17.1019C87.3183 17.1019 86.6614 17.0792 86.2034 17.0667C85.7453 17.0541 85.4484 17.0314 85.2697 17.0314H84.7915C84.5398 17.0314 84.2882 17.0541 84.0969 17.0541C83.966 17.0541 83.9056 17.0314 83.9056 16.9584C83.9056 16.9232 83.9308 16.888 84.0013 16.888C84.1224 16.8832 84.2429 16.8672 84.3611 16.8402C84.6002 16.7923 84.6606 16.5281 84.7085 16.1808C84.7689 15.6774 84.7689 14.7337 84.7689 13.586L84.7487 11.5022ZM94.6193 11.5022C94.6193 9.6348 94.6193 9.30008 94.5941 8.91754C94.5689 8.535 94.4733 8.31856 94.0908 8.23551C93.9563 8.21076 93.8198 8.19897 93.6831 8.20028C93.6352 8.20028 93.5874 8.17511 93.5874 8.12729C93.5874 8.07947 93.6478 8.03166 93.7787 8.03166C94.3173 8.03166 95.0723 8.06689 95.1302 8.06689C95.2636 8.06689 96.1721 8.03166 96.542 8.03166C97.2971 8.03166 98.0974 8.10464 98.7316 8.55765C98.9834 8.74913 99.1886 8.99504 99.332 9.27701C99.4754 9.55897 99.5532 9.8697 99.5596 10.186C99.5596 11.0718 99.1871 11.9477 98.11 12.9544C99.0915 14.2127 99.9044 15.2748 100.599 16.0172C101.246 16.6992 101.759 16.8301 102.059 16.8779C102.213 16.9038 102.37 16.9165 102.527 16.9157C102.585 16.9157 102.632 16.9509 102.632 16.9861C102.632 17.0591 102.562 17.0818 102.346 17.0818H101.485C100.813 17.0818 100.516 17.0239 100.204 16.8553C99.6879 16.5809 99.2702 15.9945 98.5881 15.0936C98.0848 14.4342 97.5236 13.6339 97.2845 13.3319C97.2657 13.3088 97.2419 13.2904 97.2148 13.2782C97.1877 13.266 97.1581 13.2602 97.1284 13.2614L95.6562 13.2362C95.5958 13.2362 95.5731 13.2715 95.5731 13.3319V13.6213C95.5731 14.7689 95.5731 15.7127 95.6335 16.216C95.6688 16.5633 95.7392 16.8276 96.0991 16.8754C96.2677 16.898 96.5295 16.9232 96.6377 16.9232C96.7459 16.9232 96.7333 16.9584 96.7333 16.9937C96.7333 17.0289 96.6729 17.0893 96.542 17.0893C95.8852 17.0893 95.1302 17.0541 95.0698 17.0541C95.0698 17.0541 94.3148 17.0893 93.9448 17.0893C93.8139 17.0893 93.7535 17.0667 93.7535 16.9937C93.7535 16.9584 93.7787 16.9232 93.8492 16.9232C93.9703 16.9184 94.0908 16.9024 94.2091 16.8754C94.4481 16.8276 94.5085 16.5633 94.5564 16.216C94.6168 15.7127 94.6168 14.7689 94.6168 13.6213L94.6193 11.5022ZM95.5756 12.5416C95.5743 12.571 95.5814 12.6001 95.5961 12.6255C95.6109 12.6509 95.6326 12.6716 95.6587 12.6851C96.0617 12.8301 96.4891 12.895 96.917 12.8763C97.2326 12.8944 97.5462 12.8153 97.8155 12.6498C98.2333 12.3629 98.5454 11.7161 98.5454 10.8076C98.5454 9.31266 97.7551 8.4142 96.4766 8.4142C96.2071 8.40748 95.9377 8.43198 95.6738 8.48718C95.6442 8.49713 95.6188 8.51662 95.6015 8.54258C95.5842 8.56854 95.576 8.59951 95.5781 8.63063L95.5756 12.5416ZM105.446 16.9207C105.278 16.8376 105.267 16.7898 105.267 16.4677C105.267 15.8687 105.315 15.3905 105.325 15.2093C105.338 15.0759 105.363 15.0181 105.421 15.0181C105.479 15.0181 105.507 15.0533 105.507 15.1489C105.503 15.2974 105.515 15.4458 105.542 15.5919C105.721 16.4778 106.511 16.8125 107.304 16.8125C108.451 16.8125 109.012 15.987 109.012 15.2219C109.012 14.3964 108.668 13.9157 107.638 13.0676L107.1 12.6247C105.841 11.5827 105.544 10.8428 105.544 10.0274C105.544 8.7464 106.501 7.8731 108.021 7.8731C108.395 7.86773 108.769 7.90831 109.133 7.99391C109.27 8.02902 109.41 8.04927 109.551 8.05431C109.647 8.05431 109.672 8.07696 109.672 8.13736C109.672 8.19776 109.624 8.59288 109.624 9.39572C109.624 9.58699 109.601 9.67004 109.541 9.67004C109.48 9.67004 109.455 9.61215 109.443 9.514C109.422 9.30862 109.37 9.10756 109.289 8.91754C109.216 8.78415 108.894 8.28333 107.794 8.28333C106.969 8.28333 106.322 8.78667 106.322 9.67004C106.322 10.3521 106.632 10.7824 107.782 11.6834L108.116 11.9477C109.528 13.0601 109.863 13.8025 109.863 14.7588C109.862 15.1454 109.77 15.5263 109.595 15.871C109.42 16.2158 109.167 16.5149 108.856 16.7445C108.319 17.0926 107.689 17.2682 107.049 17.2479C106.497 17.2634 105.948 17.1515 105.446 16.9207ZM116.61 13.6087C116.61 14.7563 116.61 15.7001 116.668 16.2034C116.703 16.5507 116.776 16.815 117.136 16.8628C117.302 16.8855 117.567 16.9106 117.675 16.9106C117.783 16.9106 117.771 16.9459 117.771 16.9811C117.771 17.0163 117.71 17.0767 117.579 17.0767C116.92 17.0767 116.167 17.0415 116.107 17.0415C116.047 17.0415 115.292 17.0767 114.934 17.0767C114.803 17.0767 114.743 17.0541 114.743 16.9811C114.743 16.9459 114.766 16.9106 114.839 16.9106C114.959 16.906 115.079 16.89 115.196 16.8628C115.448 16.815 115.495 16.5507 115.543 16.2034C115.604 15.7001 115.604 14.7563 115.604 13.6087V11.5022C115.604 9.6348 115.604 9.30008 115.581 8.91754C115.558 8.535 115.438 8.30598 115.173 8.24809C115.053 8.21653 114.928 8.20047 114.803 8.20028C114.756 8.20028 114.705 8.17511 114.705 8.12729C114.705 8.07947 114.766 8.03166 114.896 8.03166C115.292 8.03166 116.047 8.06689 116.107 8.06689C116.167 8.06689 116.92 8.03166 117.28 8.03166C117.411 8.03166 117.471 8.05682 117.471 8.12729C117.471 8.19776 117.423 8.20028 117.375 8.20028C117.275 8.20273 117.174 8.21453 117.076 8.23551C116.751 8.2934 116.656 8.48718 116.633 8.91754C116.61 9.30008 116.61 9.6348 116.61 11.5022V13.6087ZM125.988 13.6087C125.988 14.7563 125.988 15.7001 126.048 16.2034C126.083 16.5507 126.156 16.815 126.516 16.8628C126.682 16.8855 126.946 16.9106 127.055 16.9106C127.125 16.9106 127.15 16.9459 127.15 16.9811C127.15 17.0163 127.09 17.0767 126.957 17.0767C126.3 17.0767 125.547 17.0415 125.487 17.0415C125.426 17.0415 124.671 17.0767 124.314 17.0767C124.183 17.0767 124.123 17.0541 124.123 16.9811C124.123 16.9459 124.145 16.9106 124.218 16.9106C124.339 16.906 124.458 16.89 124.576 16.8628C124.827 16.815 124.875 16.5507 124.923 16.2034C124.983 15.7001 124.983 14.7563 124.983 13.6087V8.54507L123.222 8.57023C122.482 8.58282 122.195 8.66587 122.004 8.95277C121.923 9.06853 121.854 9.19255 121.8 9.32273C121.765 9.42088 121.727 9.44353 121.679 9.44353C121.631 9.44353 121.619 9.4083 121.619 9.33531C121.619 9.21703 121.87 8.18769 121.883 8.09206C121.895 7.99642 121.953 7.86304 122.004 7.86304C122.172 7.9332 122.349 7.98141 122.53 8.00649C122.874 8.04424 123.33 8.06689 123.473 8.06689H127.961C128.246 8.07305 128.53 8.05283 128.811 8.00649C128.99 7.98384 129.098 7.94861 129.146 7.94861C129.194 7.94861 129.206 8.01907 129.206 8.09206C129.206 8.44943 129.169 9.27491 129.169 9.4083C129.169 9.54169 129.134 9.56182 129.086 9.56182C129.038 9.56182 129.003 9.52659 128.99 9.36048V9.2271C128.955 8.86972 128.668 8.59288 127.52 8.57023L126.01 8.54507L125.988 13.6087ZM135.609 13.9787C135.627 13.5423 135.532 13.1086 135.332 12.7203C135.249 12.529 133.646 9.89654 133.226 9.2724C133.012 8.93032 132.736 8.63083 132.413 8.38903C132.263 8.28573 132.09 8.22012 131.909 8.19776C131.849 8.19776 131.789 8.17259 131.789 8.11219C131.789 8.05179 131.836 8.02914 131.945 8.02914C132.171 8.02914 133.07 8.06437 133.13 8.06437C133.19 8.06437 133.666 8.02914 134.137 8.02914C134.268 8.02914 134.293 8.06437 134.293 8.11219C134.293 8.16001 134.22 8.17259 134.112 8.22041C134.069 8.23842 134.032 8.26793 134.005 8.30569C133.978 8.34345 133.961 8.38798 133.958 8.43433C133.97 8.60067 134.022 8.76153 134.112 8.90244C134.305 9.24975 136.1 12.3352 136.314 12.6775C136.543 12.1742 138.063 9.55427 138.302 9.15411C138.424 8.9728 138.494 8.7611 138.503 8.54255C138.503 8.37645 138.455 8.24306 138.312 8.20783C138.169 8.17259 138.133 8.14743 138.133 8.08954C138.133 8.03166 138.204 8.01656 138.325 8.01656C138.637 8.01656 139.019 8.05179 139.115 8.05179C139.21 8.05179 140.049 8.01656 140.275 8.01656C140.358 8.01656 140.431 8.04172 140.431 8.08954C140.431 8.13736 140.371 8.18518 140.275 8.18518C140.08 8.19315 139.891 8.25029 139.724 8.35128C139.475 8.51191 139.259 8.71965 139.09 8.96284C138.255 10.1852 137.492 11.455 136.804 12.7656C136.661 13.1478 136.6 13.5561 136.626 13.9636V14.9929C136.626 15.1842 136.626 15.685 136.661 16.1883C136.686 16.5356 136.792 16.7999 137.152 16.8477C137.32 16.8704 137.582 16.8955 137.69 16.8955C137.799 16.8955 137.786 16.9308 137.786 16.966C137.786 17.0012 137.726 17.0616 137.595 17.0616C136.938 17.0616 136.183 17.0264 136.122 17.0264C136.062 17.0264 135.31 17.0616 134.95 17.0616C134.819 17.0616 134.758 17.039 134.758 16.966C134.758 16.9308 134.784 16.8955 134.854 16.8955C134.973 16.8954 135.092 16.8845 135.209 16.8628C135.448 16.815 135.556 16.5507 135.579 16.2034C135.617 15.7001 135.617 15.1967 135.617 15.008L135.609 13.9787ZM151.258 7.86304C153.948 7.86304 155.959 9.56182 155.959 12.3503C155.959 15.0306 154.069 17.2453 151.177 17.2453C147.906 17.2453 146.534 14.6959 146.534 12.5416C146.534 10.6037 147.954 7.86304 151.258 7.86304ZM151.51 16.7898C152.584 16.7898 154.812 16.1682 154.812 12.6851C154.812 9.81349 153.078 8.28081 151.172 8.28081C149.177 8.28081 147.679 9.59705 147.679 12.217C147.679 14.9954 149.355 16.7898 151.51 16.7898ZM161.425 11.5022C161.425 9.6348 161.425 9.30008 161.403 8.91754C161.38 8.535 161.282 8.31856 160.887 8.23551C160.753 8.21076 160.618 8.19896 160.482 8.20028C160.434 8.20028 160.386 8.17511 160.386 8.12729C160.386 8.07947 160.446 8.03166 160.577 8.03166C160.852 8.03166 161.174 8.03166 161.438 8.04424L161.929 8.06689C162.18 8.07947 164.597 8.06689 164.873 8.06689C165.05 8.06873 165.226 8.05186 165.399 8.01656C165.47 7.99391 165.518 7.94609 165.565 7.94609C165.613 7.94609 165.638 7.99391 165.638 8.05431C165.638 8.11471 165.578 8.28081 165.543 8.61554C165.543 8.73634 165.508 9.26233 165.482 9.40578C165.482 9.46618 165.447 9.53665 165.387 9.53665C165.326 9.53665 165.304 9.47625 165.304 9.3932C165.296 9.23678 165.259 9.08314 165.196 8.94019C165.105 8.81134 164.982 8.70816 164.84 8.64069C164.697 8.57321 164.54 8.54374 164.383 8.55513L162.538 8.5199C162.467 8.5199 162.432 8.55513 162.432 8.65077V11.9451C162.432 12.0156 162.432 12.0508 162.515 12.0508H164.584C164.873 12.0257 165.027 11.9904 165.135 11.8344C165.183 11.7765 165.221 11.7161 165.268 11.7161C165.316 11.7161 165.326 11.7514 165.326 11.8118C165.326 11.8722 165.268 12.0861 165.231 12.4812C165.208 12.7203 165.183 13.1985 165.183 13.2815C165.183 13.3646 165.183 13.5105 165.1 13.5105C165.017 13.5105 165.017 13.4627 165.017 13.4023C165.008 13.2567 164.983 13.1124 164.944 12.972C164.89 12.8498 164.804 12.7449 164.694 12.669C164.584 12.593 164.455 12.5489 164.322 12.5416C164.023 12.5064 162.719 12.5064 162.515 12.5064C162.455 12.5064 162.432 12.529 162.432 12.6121V13.6313C162.432 14.779 162.432 15.7227 162.493 16.2261C162.528 16.5734 162.598 16.8376 162.958 16.8855C163.127 16.9081 163.389 16.9333 163.497 16.9333C163.605 16.9333 163.592 16.9685 163.592 17.0037C163.592 17.039 163.532 17.0994 163.401 17.0994C162.742 17.0994 161.989 17.0641 161.929 17.0641C161.868 17.0641 161.116 17.0994 160.756 17.0994C160.625 17.0994 160.565 17.0767 160.565 17.0037C160.565 16.9685 160.59 16.9333 160.66 16.9333C160.782 16.9285 160.902 16.9125 161.02 16.8855C161.272 16.8376 161.32 16.5734 161.368 16.2261C161.425 15.7227 161.425 14.779 161.425 13.6313V11.5022Z" fill="black"/>
<path d="M21.5918 36.4531C21.5918 36.4531 23.1673 36.2341 24.4483 35.9296C25.5858 35.6578 26.6806 35.2778 26.6806 35.2778L25.8677 33.6998L26.5799 31.7393C26.5799 31.7393 25.2234 32.1268 24.0305 32.381C23.2321 32.5456 22.4257 32.6683 21.6145 32.7485L21.5918 36.4531ZM7.45794 36.4531C7.45794 36.4531 5.87996 36.2341 4.60147 35.9296C3.46139 35.6578 2.36914 35.2778 2.36914 35.2778L3.18204 33.6998L2.46729 31.7393C2.46729 31.7393 3.8238 32.1268 5.01672 32.381C5.81593 32.5457 6.62322 32.6684 7.43529 32.7485L7.45794 36.4531Z" fill="white" stroke="black" stroke-width="1.84"/>
<path d="M14.5273 3.02856C14.5273 3.02856 17.6531 6.55196 21.252 7.62157C22.7407 8.05753 24.2838 8.27955 25.8349 8.28095C26.5425 8.28846 27.2494 8.23881 27.949 8.13246C27.949 8.13246 28.0471 14.6759 28.0471 19.3847C28.0471 27.4155 23.8417 32.7484 20.0993 36.3222C16.7823 39.4882 14.9099 40.2004 14.5324 40.3238C14.5324 40.3238 12.2925 39.5008 8.95282 36.3096C5.21046 32.7359 1 27.5313 1 19.3721C1 14.759 1.10319 8.11988 1.10319 8.11988C1.80274 8.22605 2.5097 8.2757 3.21723 8.26836C4.7678 8.27106 6.31089 8.05328 7.80016 7.62157C11.3991 6.55951 14.5273 3.02856 14.5273 3.02856Z" fill="#8F1028" stroke="black" stroke-width="1.99"/>
<path d="M6.17188 19.593H22.8778V35.257H6.17188V19.593Z" fill="black"/>
<path d="M6.24738 16.7396C6.24738 16.7396 8.14498 13.6617 8.36645 10.7197C8.45202 9.54939 8.36645 8.25328 8.50235 7.07797C8.676 5.51006 9.99225 2.79956 9.99225 2.79956H19.0625C19.0625 2.79956 20.3787 5.50251 20.5549 7.07797C20.6858 8.25328 20.6052 9.54939 20.6908 10.7197C20.9022 13.6617 22.7998 16.7396 22.7998 16.7396H6.24738Z" fill="white" stroke="black" stroke-width="1.99"/>
<path d="M8.36139 20.6279H20.6857V36.9337H8.36139V20.6279Z" fill="black"/>
<path d="M20.3964 20.9172V36.6442H8.65087V20.9172H20.3964ZM20.9777 20.3384H8.07202V37.223H20.9777V20.3384Z" fill="white"/>
<path d="M9.85638 2.93795V2.14771H19.1934V2.94047L9.85638 2.93795Z" fill="black"/>
<path d="M19.0625 2.2781V2.80912H9.98469V2.28061H19.0625M19.3141 2.02894H9.72546V3.08093H19.3242V2.01636L19.3141 2.02894Z" fill="black"/>
<path d="M19.8024 1.83303H9.24479L8.87231 1H20.1774L19.8024 1.83303ZM9.98974 2.27849L9.53421 1.83303H19.5155L19.0675 2.27849H9.98974Z" fill="black" stroke="black" stroke-width="1.04"/>
<path d="M6.26752 19.7697C5.9944 19.3737 5.68611 19.003 5.3464 18.6624C4.86838 18.2094 4.30909 17.8508 3.69796 17.6053L3.08136 16.2061H25.9583L25.3568 17.6079C24.7631 17.8613 24.2187 18.2174 23.7486 18.6599C23.4096 18.9842 23.1143 19.3514 22.8703 19.7521L6.26752 19.7697Z" fill="black"/>
<path d="M25.8325 16.2887L25.2939 17.5471C24.7011 17.8031 24.1577 18.1608 23.6882 18.6041C23.3572 18.9231 23.0664 19.2815 22.8225 19.6712L6.31282 19.6888C6.04023 19.2992 5.73367 18.9346 5.39674 18.5991C4.9204 18.1451 4.3629 17.7848 3.75332 17.537L3.21726 16.2787H25.8325M26.0841 16.1125H2.96307L3.62749 17.6603C4.23992 17.9027 4.80096 18.2588 5.28097 18.7098C5.63142 19.0607 5.94667 19.4451 6.22222 19.8574L22.9206 19.8398C23.1603 19.4272 23.4587 19.0516 23.8065 18.7249C24.2789 18.2836 24.8248 17.9284 25.4197 17.6754L26.0841 16.1276V16.1125Z" fill="black"/>
<path d="M7.9613 25.2888H21.0885V26.22H7.9613V25.2888Z" fill="white"/>
<path d="M20.9726 25.3945V26.0941H8.07448V25.3945H20.9726ZM21.2042 25.1655H7.84546V26.3257H21.2017V25.1655H21.2042ZM19.7193 10.4226C19.6488 9.43853 19.7193 8.34628 19.6061 7.35721C19.5029 6.43106 18.9266 5.09217 18.5994 4.39252C18.5255 4.45016 18.437 4.48603 18.3438 4.49609C18.2506 4.50615 18.1565 4.49 18.072 4.44945C17.9875 4.40891 17.916 4.34558 17.8656 4.26661C17.8151 4.18763 17.7877 4.09614 17.7865 4.00243C17.7826 3.9673 17.7826 3.93186 17.7865 3.89673H11.2405C11.2442 3.93439 11.2442 3.97232 11.2405 4.00998C11.2405 4.14348 11.1875 4.2715 11.0931 4.3659C10.9987 4.46029 10.8707 4.51332 10.7372 4.51332C10.6275 4.51301 10.5211 4.47578 10.4352 4.40762C10.0979 5.12237 9.52914 6.43861 9.42847 7.36224C9.31774 8.35131 9.38569 9.44357 9.31522 10.4276C9.13402 12.9091 7.86811 15.5013 7.86811 15.5013H21.1488C21.1488 15.5013 19.898 12.904 19.7193 10.4226Z" fill="black"/>
<path d="M17.4921 9.7429C17.4921 9.35192 17.4151 8.96476 17.2654 8.60355C17.1158 8.24233 16.8965 7.91411 16.62 7.63765C16.3436 7.36118 16.0154 7.14188 15.6542 6.99226C15.2929 6.84263 14.9058 6.76563 14.5148 6.76562C14.1238 6.76563 13.7367 6.84263 13.3754 6.99226C13.0142 7.14188 12.686 7.36118 12.4095 7.63765C12.1331 7.91411 11.9138 8.24233 11.7642 8.60355C11.6145 8.96476 11.5375 9.35192 11.5375 9.7429H10.8832L11.2859 10.7647H11.7061L12.8462 13.6564H12.2221V14.4114H16.8528V13.6564H16.1909L17.2782 10.7798H17.7538L18.1565 9.75296L17.4921 9.7429Z" fill="white" stroke="white" stroke-width="0.4"/>
<path d="M16.5684 9.74285C16.5689 10.1497 16.4487 10.5476 16.223 10.8861C15.9972 11.2247 15.6761 11.4886 15.3003 11.6445C14.9245 11.8005 14.5108 11.8414 14.1118 11.7621C13.7127 11.6829 13.3461 11.487 13.0584 11.1993C12.7706 10.9116 12.5748 10.545 12.4955 10.1459C12.4162 9.74679 12.4572 9.33316 12.6131 8.95735C12.7691 8.58153 13.033 8.26043 13.3715 8.03469C13.71 7.80894 14.1079 7.68871 14.5148 7.68921C15.0594 7.68921 15.5818 7.90558 15.9669 8.29071C16.3521 8.67584 16.5684 9.19819 16.5684 9.74285Z" fill="black"/>
<path d="M8.87231 1L9.24479 1.83303H9.53169L9.9847 2.27849H19.0625L19.5105 1.83303H19.8024L20.1774 1H8.87231Z" fill="white" stroke="black" stroke-width="1.99"/>
<path d="M3.79357 17.4213L3.34308 16.3718H25.7066L25.2561 17.4213H3.79357Z" fill="white"/>
<path d="M25.3266 16.6213L25.09 17.1724H3.94963L3.71305 16.6213H25.319M26.0741 16.1179H2.96307L3.62749 17.6657H25.4197L26.0841 16.1179H26.0741Z" fill="black"/>
<path d="M8.7691 25.2761V25.1427C8.7691 23.9473 9.66757 22.9708 10.7825 22.9708C11.2018 22.9835 11.6067 23.1269 11.9406 23.3809C12.2745 23.6349 12.5207 23.9869 12.6448 24.3877C12.7554 23.9715 13.0004 23.6035 13.3418 23.3409C13.6831 23.0784 14.1017 22.936 14.5324 22.936C14.963 22.936 15.3816 23.0784 15.723 23.3409C16.0644 23.6035 16.3094 23.9715 16.4199 24.3877C16.5454 23.9846 16.7945 23.6312 17.1318 23.3774C17.4692 23.1235 17.8778 22.9822 18.2999 22.9733C19.4047 22.9733 20.3133 23.9473 20.3133 25.1452V25.2686L8.7691 25.2761Z" fill="white"/>
<path d="M14.5299 23.1042C15.5668 23.1042 16.4199 24.0203 16.4199 25.1427C16.4199 24.0127 17.2605 23.0966 18.2999 23.0966C19.3393 23.0966 20.1774 24.0127 20.1774 25.1452H8.89495C8.89495 24.0152 9.73553 23.0992 10.7724 23.0992C11.8093 23.0992 12.6449 24.0203 12.6449 25.1427C12.6449 24.0127 13.4854 23.0966 14.5223 23.0966M14.5223 22.845C14.1256 22.8526 13.739 22.9719 13.407 23.1891C13.0749 23.4063 12.8108 23.7127 12.6449 24.0731C12.4768 23.7146 12.2116 23.4103 11.8792 23.195C11.5469 22.9797 11.1608 22.8619 10.7649 22.855C9.59208 22.855 8.63824 23.8844 8.63824 25.1503V25.402H20.414V25.1503C20.414 23.8919 19.4601 22.8525 18.2873 22.8525C17.8933 22.8619 17.5097 22.9812 17.1798 23.1968C16.8498 23.4125 16.5867 23.716 16.4199 24.0731C16.2526 23.7146 15.9878 23.4103 15.6558 23.1949C15.3239 22.9795 14.9381 22.8618 14.5425 22.855L14.5223 22.845Z" fill="black"/>
<path d="M9.5191 31.7641V25.2559C9.5191 25.2559 9.5191 23.844 10.7598 23.844C12.0006 23.844 11.9981 25.2559 11.9981 25.2559V31.7641H9.5191ZM11.0342 23.8339H10.483L10.3572 22.4573H11.16L11.0342 23.8339ZM13.2942 31.7641V25.2559C13.2942 25.2559 13.2942 23.844 14.5349 23.844C15.7757 23.844 15.7731 25.2559 15.7731 25.2559V31.7641H13.2942ZM14.8092 23.8339H14.2581L14.1322 22.4573H14.9351L14.8092 23.8339ZM17.0692 31.7641V25.2559C17.0692 25.2559 17.0692 23.844 18.31 23.844C19.5507 23.844 19.5482 25.2559 19.5482 25.2559V31.7641H17.0692ZM18.5843 23.8339H18.0331L17.9073 22.4573H18.7101L18.5843 23.8339Z" fill="white" stroke="black" stroke-width="0.99"/>
<path d="M6.0058 33.6694V37.4068C6.0058 37.4068 9.4386 38.1467 14.4947 38.1467C19.5508 38.1467 22.9785 37.4068 22.9785 37.4068V33.6694C22.9785 33.6694 19.5659 34.359 14.4217 34.359C9.27753 34.359 6.0058 33.6694 6.0058 33.6694Z" fill="white" stroke="black" stroke-width="1.84" stroke-linecap="round"/>
<path d="M12.1818 37.3641L11.9452 37.334C11.8471 37.3214 11.7112 37.3088 11.6281 37.3038H11.5954C11.5174 37.3038 11.2883 37.2811 11.1776 37.2786H10.9687C10.931 37.2786 10.9108 37.261 10.9134 37.2308V37.1427L10.9511 37.1225H11.0618C11.3135 37.1225 11.3714 37.0923 11.3865 37.0747C11.4016 37.0571 11.4293 36.964 11.4368 36.8482L11.5199 35.8239C11.5413 35.6948 11.5413 35.563 11.5199 35.4338C11.5199 35.4137 11.4821 35.4011 11.4419 35.4011H11.2078C11.155 35.3684 11.155 35.3206 11.16 35.2677V35.2426H11.1852C11.3718 35.2357 11.5546 35.1885 11.7212 35.1041L11.7539 35.089C11.78 35.0731 11.8092 35.0628 11.8395 35.0588H11.9377L11.7917 36.8658C11.7724 36.9496 11.7786 37.0372 11.8093 37.1175C11.8471 37.1729 12.061 37.2106 12.1415 37.2207H12.2195V37.349L12.1793 37.3616L12.1818 37.3641Z" fill="black"/>
<path d="M11.8395 35.0764H11.8999L11.759 36.8381C11.7385 36.9264 11.7464 37.0189 11.7816 37.1024C11.8345 37.1879 12.1491 37.2181 12.1843 37.2282V37.2886C12.1843 37.2886 12.1843 37.3037 12.1717 37.3037L11.9376 37.2735C11.8269 37.2584 11.6608 37.2433 11.5878 37.2383C11.5148 37.2332 11.2808 37.2131 11.17 37.2106H10.9435V37.1326C10.9435 37.1326 10.9435 37.1175 10.9586 37.115H11.0643C11.1852 37.115 11.3689 37.115 11.4142 37.0571C11.4595 36.9992 11.462 36.9413 11.4721 36.8054L11.5551 35.7811C11.5742 35.6462 11.569 35.509 11.54 35.3759C11.5274 35.3432 11.4872 35.3256 11.4343 35.3256H11.2028C11.1826 35.308 11.1826 35.2778 11.1852 35.2249C11.376 35.2176 11.5631 35.1695 11.7338 35.084C11.7664 35.0657 11.801 35.0513 11.837 35.0412M11.837 34.9783C11.8013 34.9827 11.767 34.9947 11.7363 35.0135L11.7086 35.0286C11.5442 35.1111 11.364 35.1575 11.1801 35.1645L11.1348 35.2098V35.2601C11.1279 35.2869 11.1277 35.3149 11.1343 35.3417C11.1408 35.3685 11.154 35.3932 11.1726 35.4137L11.1902 35.4288H11.4419C11.4598 35.4226 11.4793 35.4226 11.4972 35.4288C11.5185 35.5528 11.5185 35.6797 11.4972 35.8038L11.4142 36.8281C11.4182 36.8991 11.4044 36.9701 11.3739 37.0344C11.3739 37.0344 11.3211 37.0722 11.0694 37.0722H10.9561C10.9374 37.0734 10.9198 37.0816 10.9068 37.0951C10.8938 37.1086 10.8862 37.1264 10.8857 37.1452V37.2081C10.8846 37.2179 10.8856 37.2278 10.8885 37.2372C10.8913 37.2466 10.8961 37.2553 10.9025 37.2628C10.9088 37.2704 10.9166 37.2765 10.9254 37.281C10.9342 37.2854 10.9438 37.288 10.9536 37.2886H11.1801C11.2934 37.2886 11.5299 37.3113 11.5979 37.3163H11.6382C11.7187 37.3163 11.8546 37.3339 11.9477 37.349L12.1843 37.3767C12.1942 37.3777 12.2042 37.3768 12.2138 37.374C12.2234 37.3711 12.2323 37.3664 12.24 37.36C12.2477 37.3537 12.2541 37.3459 12.2588 37.3371C12.2635 37.3283 12.2664 37.3187 12.2673 37.3087V37.1905L12.2095 37.1703C12.1897 37.1643 12.1695 37.1601 12.1491 37.1577C11.8974 37.12 11.8521 37.0848 11.842 37.0697C11.8156 36.9971 11.8104 36.9186 11.8269 36.8432L11.9678 35.0689V35.0034H11.8445L11.837 34.9783ZM13.4653 37.4749C13.0324 37.4749 12.7682 37.2358 12.7757 36.8809C12.7916 36.7455 12.8451 36.6171 12.93 36.5104C13.0149 36.4037 13.128 36.3228 13.2564 36.2769C13.1509 36.2244 13.0617 36.1442 12.9983 36.0449C12.9349 35.9456 12.8997 35.8309 12.8965 35.7132C12.8973 35.6353 12.9146 35.5585 12.9472 35.4878C12.9798 35.4171 13.027 35.3541 13.0858 35.303C13.1445 35.2518 13.2134 35.2137 13.2879 35.1912C13.3625 35.1686 13.4409 35.1621 13.5181 35.1721C13.8277 35.1721 14.1297 35.3432 14.1222 35.6754C14.1064 35.7845 14.0632 35.8879 13.9968 35.9759C13.9304 36.0639 13.8428 36.1337 13.7421 36.1787C14.0139 36.3549 14.1926 36.5412 14.1851 36.8356C14.1815 36.9226 14.1608 37.0079 14.1239 37.0868C14.0871 37.1656 14.035 37.2364 13.9706 37.2949C13.9062 37.3535 13.8308 37.3986 13.7488 37.4278C13.6668 37.457 13.5799 37.4695 13.493 37.4648L13.4653 37.4749ZM13.4175 36.3725C13.3307 36.4164 13.258 36.4838 13.2077 36.567C13.1575 36.6503 13.1316 36.7459 13.1331 36.8432C13.12 36.952 13.1498 37.0616 13.216 37.1489C13.2822 37.2362 13.3797 37.2944 13.4879 37.3113C13.5375 37.3104 13.5863 37.2994 13.6313 37.2788C13.6763 37.2583 13.7167 37.2287 13.7497 37.1918C13.7828 37.155 13.8079 37.1117 13.8235 37.0647C13.8391 37.0177 13.8448 36.968 13.8403 36.9187C13.8478 36.6594 13.6691 36.526 13.4175 36.365V36.3725ZM13.4955 35.3331C13.3118 35.3331 13.2438 35.5294 13.2287 35.6351C13.2287 35.8289 13.4124 35.9623 13.5785 36.0831C13.6435 36.0388 13.6963 35.979 13.7324 35.9092C13.7684 35.8393 13.7865 35.7615 13.7849 35.683C13.7921 35.6399 13.79 35.5958 13.7788 35.5535C13.7676 35.5113 13.7475 35.472 13.7198 35.4382C13.6922 35.4044 13.6577 35.3768 13.6186 35.3574C13.5794 35.338 13.5366 35.3271 13.493 35.3256V35.2954L13.4955 35.3331Z" fill="black"/>
<path d="M13.5156 35.1945H13.5383C13.8327 35.1945 14.0919 35.3682 14.0844 35.6702C14.067 35.7833 14.0195 35.8898 13.9469 35.9783C13.8743 36.0669 13.7792 36.1343 13.6716 36.1735C13.9636 36.3547 14.1549 36.5334 14.1498 36.8354C14.1407 37.0023 14.0661 37.1589 13.9421 37.2711C13.8182 37.3832 13.6549 37.4419 13.4879 37.4344H13.4678C13.0928 37.4344 12.7983 37.2406 12.8084 36.8732C12.8258 36.7338 12.8844 36.6027 12.9768 36.4969C13.0692 36.3911 13.1911 36.3153 13.3269 36.2792C13.1255 36.1458 12.9166 35.9973 12.9242 35.7029C12.926 35.6296 12.9432 35.5575 12.9748 35.4914C13.0064 35.4252 13.0515 35.3665 13.1073 35.319C13.1632 35.2715 13.2284 35.2363 13.2987 35.2157C13.3691 35.1951 13.443 35.1896 13.5156 35.1995M13.5911 36.1282C13.6638 36.0806 13.7235 36.0156 13.7648 35.9392C13.8061 35.8627 13.8277 35.7772 13.8277 35.6903C13.8357 35.6428 13.8333 35.5941 13.8207 35.5476C13.8081 35.5011 13.7857 35.4578 13.7549 35.4208C13.724 35.3837 13.6856 35.3538 13.6421 35.333C13.5987 35.3122 13.5512 35.301 13.503 35.3002C13.4207 35.3084 13.3444 35.3469 13.289 35.4084C13.2336 35.4698 13.2031 35.5497 13.2035 35.6324C13.2035 35.8539 13.425 36.0024 13.5987 36.1358M13.5055 37.3488C13.5584 37.3463 13.6101 37.3332 13.6578 37.3103C13.7054 37.2874 13.748 37.2551 13.783 37.2155C13.818 37.1758 13.8446 37.1295 13.8614 37.0794C13.8781 37.0292 13.8846 36.9762 13.8805 36.9235C13.8805 36.6416 13.6767 36.4982 13.425 36.3421C13.3295 36.3869 13.2489 36.4581 13.1927 36.5473C13.1365 36.6366 13.1071 36.74 13.1079 36.8455C13.0929 36.9636 13.1252 37.0828 13.1979 37.1771C13.2705 37.2714 13.3775 37.3331 13.4955 37.3488M13.5131 35.1442C13.432 35.1343 13.3497 35.1416 13.2715 35.1655C13.1934 35.1894 13.1212 35.2295 13.0595 35.2831C12.9978 35.3367 12.9481 35.4027 12.9135 35.4767C12.8789 35.5508 12.8603 35.6312 12.8587 35.7129C12.86 35.8275 12.8911 35.9397 12.9489 36.0385C13.0067 36.1374 13.0893 36.2194 13.1884 36.2767C13.0673 36.3302 12.9624 36.4147 12.8842 36.5216C12.806 36.6285 12.7573 36.7541 12.743 36.8857C12.743 37.2582 13.0098 37.4998 13.4628 37.5099H13.4854C13.6683 37.5161 13.8465 37.4507 13.9818 37.3275C14.1172 37.2044 14.1992 37.0332 14.2102 36.8505C14.2071 36.7137 14.1667 36.5802 14.0936 36.4645C14.0205 36.3488 13.9172 36.2552 13.795 36.1936C13.8901 36.1449 13.9717 36.0734 14.0327 35.9857C14.0937 35.8979 14.1322 35.7965 14.1448 35.6903C14.1431 35.614 14.1256 35.5388 14.0935 35.4695C14.0613 35.4003 14.0152 35.3384 13.958 35.2878C13.9008 35.2373 13.8338 35.1991 13.7611 35.1756C13.6884 35.1522 13.6117 35.1441 13.5357 35.1517L13.5131 35.1442ZM13.5861 36.0552C13.4275 35.942 13.2539 35.8036 13.2564 35.64C13.2564 35.5468 13.3319 35.3707 13.493 35.3707C13.5328 35.372 13.5719 35.3817 13.6077 35.3993C13.6435 35.4168 13.6752 35.4418 13.7006 35.4724C13.7261 35.5031 13.7447 35.5389 13.7553 35.5773C13.766 35.6157 13.7683 35.6559 13.7623 35.6953C13.7634 35.765 13.7481 35.8339 13.7175 35.8965C13.6868 35.959 13.6418 36.0134 13.5861 36.0552ZM13.4955 37.3488V37.2859C13.396 37.2686 13.3069 37.2138 13.2465 37.1328C13.1861 37.0518 13.159 36.9508 13.1708 36.8505C13.1693 36.7619 13.192 36.6746 13.2363 36.5979C13.2806 36.5212 13.345 36.458 13.4225 36.4151C13.6742 36.5686 13.8227 36.6919 13.8176 36.9185C13.8221 36.9631 13.8175 37.0082 13.8041 37.051C13.7907 37.0938 13.7687 37.1335 13.7396 37.1676C13.7104 37.2017 13.6746 37.2295 13.6344 37.2494C13.5942 37.2693 13.5503 37.2809 13.5055 37.2834V37.3463L13.4955 37.3488ZM15.2547 37.4746C15.2312 37.4781 15.2073 37.4767 15.1844 37.4706C15.1615 37.4646 15.14 37.454 15.1213 37.4394C15.1053 37.4195 15.0972 37.3944 15.0986 37.3689C15.166 37.0093 15.2882 36.6621 15.461 36.3396C15.5567 36.1332 15.758 35.7155 15.8914 35.494H15.4359C15.3056 35.4831 15.1745 35.4994 15.0508 35.5418C15.0294 35.5552 15.011 35.5728 14.9967 35.5936C14.9824 35.6144 14.9726 35.6379 14.9678 35.6626C14.9626 35.6868 14.955 35.7104 14.9451 35.7331C14.9275 35.7834 14.8721 35.7859 14.7991 35.7859H14.7614L14.7438 35.7482L14.8319 35.2046L16.1657 35.1693V35.3782C15.7681 35.9674 15.5273 36.6482 15.4661 37.3564C15.4661 37.4394 15.3956 37.457 15.2748 37.4595L15.2547 37.4746Z" fill="black"/>
<path d="M16.1355 35.2098V35.386C15.7353 35.9729 15.4942 36.6536 15.4359 37.3616C15.4359 37.412 15.4057 37.4321 15.2748 37.4346H15.2496C15.149 37.4346 15.1238 37.412 15.1263 37.3616C15.1926 37.0052 15.314 36.6613 15.4862 36.3424C15.6251 36.0409 15.7796 35.7468 15.9493 35.4615H15.4459C15.3101 35.4511 15.1737 35.47 15.0458 35.5169C14.9502 35.5899 14.9678 35.6226 14.93 35.7207C14.9149 35.756 14.8696 35.7535 14.7866 35.756L14.8721 35.2375L16.1481 35.2048M16.2085 35.1394H16.1456L14.8696 35.1721H14.8168V35.2249L14.7312 35.7434V35.8189H14.8294C14.9074 35.8189 14.9778 35.8189 15.0055 35.7434C15.0147 35.7196 15.0222 35.6952 15.0282 35.6704C15.0329 35.6492 15.0418 35.6292 15.0543 35.6115C15.0668 35.5938 15.0828 35.5787 15.1012 35.5672C15.2134 35.5323 15.3311 35.5178 15.4485 35.5244H15.8662C15.7329 35.756 15.5516 36.1335 15.4636 36.3222C15.2879 36.6491 15.1648 37.0015 15.0986 37.3667C15.0972 37.3834 15.0991 37.4003 15.1043 37.4163C15.1095 37.4323 15.1178 37.4471 15.1288 37.4598C15.1504 37.4775 15.1754 37.4907 15.2022 37.4984C15.229 37.5062 15.2572 37.5085 15.2849 37.5051H15.31C15.3931 37.5051 15.529 37.5051 15.534 37.3717C15.5921 36.6765 15.8288 36.0081 16.2211 35.4313V35.152L16.2085 35.1394ZM16.9409 37.3591V37.2308L16.9786 37.2056H17.034C17.1145 37.2056 17.3637 37.1553 17.3989 37.0999C17.4342 37.0445 17.4216 36.9816 17.3989 36.8658L17.3184 35.8415C17.3143 35.711 17.2897 35.5819 17.2454 35.459C17.2384 35.4507 17.2294 35.4443 17.2193 35.4404C17.2092 35.4364 17.1983 35.435 17.1875 35.4363H17.1623L17.0315 35.459L16.9233 35.4615C16.8654 35.4363 16.8578 35.391 16.8528 35.3382V35.313H16.878C17.0598 35.2764 17.2315 35.2009 17.3813 35.0916L17.409 35.0714C17.4331 35.0491 17.4626 35.0335 17.4946 35.0261H17.5877L17.7336 36.8331C17.7336 36.959 17.7563 37.0345 17.789 37.0672C17.8217 37.0999 17.8846 37.12 18.1187 37.12H18.2118L18.2294 37.1553V37.2484L18.1892 37.266H17.9526C17.8519 37.266 17.7009 37.2786 17.6279 37.2836H17.5499C17.4493 37.2836 17.2781 37.3088 17.1875 37.3214L17.029 37.3415H16.9585L16.9409 37.3591Z" fill="black"/>
<path d="M17.565 35.0512L17.7085 36.828C17.7085 36.9614 17.7311 37.0419 17.7739 37.0797C17.8167 37.1174 18.0256 37.1401 18.1237 37.1401H18.1967V37.2181H17.9602C17.8494 37.2181 17.6833 37.2332 17.6103 37.2382C17.5373 37.2432 17.3033 37.2634 17.1926 37.281C17.1649 37.281 17.0466 37.2986 16.9686 37.3087V37.2458V37.2281C16.9686 37.2256 17.3561 37.1828 17.409 37.0973C17.4417 37.0495 17.4367 36.974 17.4266 36.8456L17.3436 35.8213C17.3412 35.6852 17.3148 35.5506 17.2655 35.4237C17.2557 35.4114 17.2429 35.4018 17.2284 35.3956C17.2139 35.3895 17.1982 35.387 17.1825 35.3884H17.1498C17.0843 35.3884 17.0063 35.4136 16.9208 35.4287C16.8981 35.4287 16.8931 35.3859 16.888 35.3331C17.0747 35.2943 17.2512 35.2172 17.4065 35.1065C17.4367 35.0864 17.4769 35.0487 17.5021 35.0461H17.565M17.6229 34.9807H17.4971C17.4592 34.9886 17.4244 35.0069 17.3964 35.0336L17.3712 35.0512C17.2213 35.1598 17.0496 35.2345 16.8679 35.2701L16.8176 35.2827V35.3356C16.8176 35.3834 16.8176 35.4513 16.883 35.479H16.9233L17.0239 35.4614C17.0645 35.4516 17.1057 35.4449 17.1473 35.4413H17.2077C17.2518 35.5587 17.274 35.6833 17.2731 35.8087L17.3561 36.833C17.3561 36.9387 17.3712 37.0142 17.3561 37.0444C17.341 37.0746 17.2806 37.0973 17.0114 37.1375L16.951 37.1501C16.9332 37.1543 16.9176 37.1647 16.9069 37.1796C16.8963 37.1944 16.8914 37.2125 16.8931 37.2307V37.2961C16.8943 37.3152 16.9029 37.3332 16.9169 37.3463C16.9309 37.3593 16.9494 37.3666 16.9686 37.3666H17.0441L17.1976 37.3464C17.2907 37.3338 17.4618 37.3187 17.5625 37.3112H17.638C17.716 37.3112 17.862 37.2961 17.9602 37.2936H18.1967C18.2072 37.2929 18.2175 37.2902 18.2269 37.2855C18.2363 37.2808 18.2446 37.2743 18.2514 37.2663C18.2582 37.2583 18.2634 37.2491 18.2665 37.239C18.2697 37.229 18.2707 37.2185 18.2697 37.208V37.0922H18.1313C17.8796 37.0922 17.8368 37.062 17.8268 37.0545C17.7904 36.9874 17.773 36.9117 17.7764 36.8355L17.6355 35.0587V34.9983L17.6229 34.9807ZM165.233 37.6711C165.234 37.4965 165.286 37.3259 165.383 37.181C165.481 37.0361 165.619 36.9232 165.78 36.8568C165.942 36.7903 166.119 36.7731 166.29 36.8075C166.462 36.8419 166.619 36.9262 166.742 37.0499C166.865 37.1735 166.949 37.3309 166.983 37.5022C167.017 37.6735 166.999 37.851 166.933 38.0122C166.866 38.1735 166.752 38.3113 166.607 38.4083C166.462 38.5052 166.291 38.557 166.117 38.557C166 38.5573 165.885 38.5346 165.778 38.4902C165.67 38.4457 165.572 38.3804 165.49 38.2981C165.408 38.2157 165.343 38.1179 165.299 38.0103C165.255 37.9027 165.233 37.7874 165.233 37.6711ZM166.859 37.6711C166.856 37.5224 166.809 37.378 166.725 37.2558C166.64 37.1337 166.521 37.0392 166.383 36.9844C166.244 36.9296 166.093 36.9167 165.948 36.9476C165.802 36.9784 165.669 37.0515 165.565 37.1576C165.461 37.2638 165.391 37.3983 165.363 37.5444C165.335 37.6904 165.35 37.8414 165.408 37.9785C165.466 38.1156 165.562 38.2326 165.686 38.3149C165.81 38.3972 165.955 38.4412 166.104 38.4412C166.205 38.4441 166.306 38.426 166.4 38.3882C166.494 38.3503 166.579 38.2934 166.65 38.2211C166.721 38.1488 166.776 38.0626 166.812 37.9679C166.848 37.8733 166.864 37.7722 166.859 37.6711ZM166.557 38.1744H166.416L166.134 37.7189H165.913V38.1744H165.792V37.1879H166.222C166.474 37.1879 166.572 37.286 166.572 37.4395C166.572 37.5931 166.436 37.6912 166.263 37.7088L166.557 38.1744ZM166.094 37.6233C166.235 37.6233 166.439 37.6484 166.439 37.4471C166.439 37.2936 166.313 37.276 166.187 37.276H165.913V37.6233H166.094Z" fill="black"/>
</svg>
