<svg width="163" height="39" viewBox="0 0 163 39" fill="none" xmlns="http://www.w3.org/2000/svg">
<path d="M19.2346 0C8.62791 0 0 8.62791 0 19.2346C0 29.8412 8.62791 38.4691 19.2346 38.4691C29.8412 38.4691 38.4691 29.8412 38.4691 19.2346C38.4691 8.62791 29.8412 0 19.2346 0ZM7.72432 33.1543V27.8243L7.77007 27.7862L17.9878 19.8255L8.12083 10.4541V4.91063L24.4235 19.8446L24.3129 19.9323L7.72432 33.1543ZM20.6223 31.5073V26.9284L29.9518 19.8255L21.6632 12.044V7.11431L35.217 20.1801L20.6185 31.5073H20.6223Z" fill="#053F6B"/>
<path d="M50.8296 19.833L45.7283 7.97583H42.2093L49.4494 23.8477L49.5142 23.9926H52.1792L59.4842 7.97583H55.9651L50.8296 19.833Z" fill="#142B47"/>
<path d="M65.733 23.9926H77.9219V21.6936H68.6459V17.2595H77.9219V14.8156H68.6725V10.4578H77.9219V7.97583H65.733V23.9926Z" fill="#142B47"/>
<path d="M94.9261 7.81958C86.9578 7.81958 84.1174 12.0935 84.1174 16.0967C84.1174 20.1 86.9578 24.3739 94.9261 24.3739C102.894 24.3739 98.6777 24.0536 100.256 23.4207L100.409 23.3597V20.6604L100.043 20.8663C98.6624 21.6441 97.0306 22.0558 95.3188 22.0558C90.9572 22.0558 87.4076 19.3832 87.4076 16.1005C87.4076 12.8179 90.9572 10.1453 95.3188 10.1453C99.6804 10.1453 98.6586 10.557 100.043 11.3348L100.409 11.5407V8.86042L100.256 8.79942C98.6701 8.15509 96.8743 7.82721 94.9261 7.82721V7.81958Z" fill="#142B47"/>
<path d="M105.674 10.3397H111.126V24.1566H114.447V10.3397H119.899V7.97974H105.674V10.3397Z" fill="#142B47"/>
<path d="M134.295 7.83862C129.232 7.83862 125.11 11.5445 125.11 16.0967C125.11 20.6489 129.232 24.3548 134.295 24.3548C139.358 24.3548 143.48 20.6489 143.48 16.0967C143.48 11.5445 139.358 7.83862 134.295 7.83862ZM134.295 21.6822C130.902 21.6822 128.141 19.1773 128.141 16.0967C128.141 13.0161 130.902 10.5113 134.295 10.5113C137.688 10.5113 140.448 13.0161 140.448 16.0967C140.448 19.1773 137.688 21.6822 134.295 21.6822Z" fill="#142B47"/>
<path d="M158.524 17.0498C159.618 16.9431 160.651 16.4398 161.41 15.6315C162.279 14.7051 162.71 13.4927 162.63 12.2193C162.478 9.84019 160.419 7.97583 157.944 7.97583H149.858V24.1107H152.935V10.5074H157.529C158.677 10.5074 159.656 11.3538 159.759 12.4366C159.816 13.0504 159.626 13.6337 159.214 14.0874C158.81 14.5335 158.23 14.7889 157.632 14.7889H154.441C154.311 14.7889 154.189 14.8614 154.128 14.9758C154.067 15.0901 154.067 15.2312 154.14 15.3418L159.679 24.1146H163L158.532 17.0498H158.524Z" fill="#142B47"/>
<path d="M53.4564 33.162C53.1552 33.2688 52.5605 33.448 51.8552 33.448C51.1498 33.448 50.4178 33.2459 49.9069 32.7617C49.457 32.3271 49.1787 31.6332 49.1787 30.8211C49.1863 29.2655 50.2539 28.1294 52 28.1294C53.7462 28.1294 53.0752 28.2628 53.3001 28.3696L53.1362 28.9186C52.8579 28.7966 52.5109 28.6937 51.9848 28.6937C50.7152 28.6937 49.8879 29.4829 49.8879 30.7906C49.8879 32.0983 50.6847 32.8951 51.8971 32.8951C53.1095 32.8951 52.6405 32.8341 52.7931 32.7541V31.1985H51.7332V30.6571H53.4488V33.162H53.4564Z" fill="#053F6B"/>
<path d="M57.8371 28.1826H58.5081V32.8302H60.7347V33.3944H57.8333V28.1826H57.8371Z" fill="#053F6B"/>
<path d="M68.9928 30.7335C68.9928 32.5255 67.9024 33.4786 66.5718 33.4786C65.2412 33.4786 64.2308 32.4111 64.2308 30.8327C64.2308 29.2542 65.2602 28.0952 66.6518 28.0952C68.0434 28.0952 68.9928 29.1856 68.9928 30.7335ZM64.9476 30.8174C64.9476 31.9307 65.55 32.9296 66.6099 32.9296C67.6698 32.9296 68.2798 31.9459 68.2798 30.764C68.2798 29.5821 67.7384 28.6442 66.6175 28.6442C65.4966 28.6442 64.9476 29.6736 64.9476 30.8174Z" fill="#053F6B"/>
<path d="M73.2171 28.2515C73.5107 28.1905 73.9758 28.1448 74.4448 28.1448C75.1158 28.1448 75.5504 28.2592 75.8745 28.5222C76.1452 28.7243 76.3091 29.0331 76.3091 29.4411C76.3091 29.849 75.9775 30.3828 75.4284 30.5848V30.6001C75.9241 30.7221 76.5036 31.1339 76.5036 31.9078C76.5036 32.6818 76.3244 32.697 76.0613 32.9525C75.6991 33.2842 75.1082 33.4405 74.258 33.4405C73.4078 33.4405 73.4383 33.41 73.2133 33.3795V28.2515H73.2171ZM73.892 30.3866H74.502C75.2149 30.3866 75.6305 30.0168 75.6305 29.5135C75.6305 29.0102 75.1654 28.6633 74.4867 28.6633C73.8081 28.6633 73.9987 28.6862 73.892 28.709V30.3866ZM73.892 32.8838C74.0216 32.9067 74.216 32.9143 74.4562 32.9143C75.1501 32.9143 75.7944 32.6589 75.7944 31.9002C75.7944 31.1415 75.1844 30.8937 74.4486 30.8937H73.892V32.88V32.8838Z" fill="#053F6B"/>
<path d="M81.6049 31.755L81.0635 33.3944H80.3658L82.1386 28.1826H82.9507L84.7274 33.3944H84.0068L83.4502 31.755H81.6011H81.6049ZM83.3129 31.2289L82.802 29.7267C82.6877 29.3874 82.6076 29.0786 82.5313 28.7774H82.5161C82.4398 29.0862 82.3521 29.4027 82.253 29.7191L81.7421 31.2289H83.3129Z" fill="#053F6B"/>
<path d="M88.845 28.1826H89.5198V32.8302H91.7464V33.3944H88.845V28.1826Z" fill="#053F6B"/>
<path d="M100.836 28.1826H101.51V32.8302H103.737V33.3944H100.836V28.1826Z" fill="#053F6B"/>
<path d="M111.987 30.7335C111.987 32.5255 110.897 33.4786 109.566 33.4786C108.236 33.4786 107.222 32.4111 107.222 30.8327C107.222 29.2542 108.251 28.0952 109.643 28.0952C111.034 28.0952 111.987 29.1856 111.987 30.7335ZM107.946 30.8174C107.946 31.9307 108.549 32.9296 109.608 32.9296C110.668 32.9296 111.278 31.9459 111.278 30.764C111.278 29.5821 110.737 28.6442 109.616 28.6442C108.495 28.6442 107.946 29.6736 107.946 30.8174Z" fill="#053F6B"/>
<path d="M120.181 33.162C119.88 33.2688 119.285 33.448 118.579 33.448C117.874 33.448 117.142 33.2459 116.631 32.7617C116.181 32.3271 115.903 31.6332 115.903 30.8211C115.911 29.2655 116.978 28.1294 118.724 28.1294C120.471 28.1294 119.799 28.2628 120.024 28.3696L119.86 28.9186C119.582 28.7966 119.235 28.6937 118.709 28.6937C117.439 28.6937 116.612 29.4829 116.612 30.7906C116.612 32.0983 117.409 32.8951 118.621 32.8951C119.834 32.8951 119.365 32.8341 119.517 32.7541V31.1985H118.457V30.6571H120.173V33.162H120.181Z" fill="#053F6B"/>
<path d="M125.236 28.1826V33.3944H124.561V28.1826H125.236Z" fill="#053F6B"/>
<path d="M129.666 32.5749C129.968 32.7617 130.41 32.9142 130.871 32.9142C131.561 32.9142 131.962 32.552 131.962 32.0259C131.962 31.4997 131.683 31.2595 130.978 30.9888C130.128 30.6876 129.602 30.2454 129.602 29.5133C129.602 28.7813 130.277 28.0989 131.287 28.0989C132.297 28.0989 132.206 28.2209 132.438 28.3543L132.251 28.9033C132.08 28.8118 131.733 28.6555 131.26 28.6555C130.547 28.6555 130.277 29.0825 130.277 29.4371C130.277 29.7917 130.593 30.1653 131.314 30.4436C132.194 30.7829 132.644 31.21 132.644 31.9763C132.644 32.7426 132.049 33.4823 130.818 33.4823C129.586 33.4823 129.766 33.3259 129.487 33.1429L129.659 32.5787L129.666 32.5749Z" fill="#053F6B"/>
<path d="M137.913 28.7545H136.327V28.1826H140.185V28.7545H138.592V33.3944H137.909V28.7545H137.913Z" fill="#053F6B"/>
<path d="M144.791 28.1826V33.3944H144.116V28.1826H144.791Z" fill="#053F6B"/>
<path d="M152.961 33.2232C152.714 33.3452 152.218 33.4786 151.585 33.4786C150.117 33.4786 149.012 32.5445 149.012 30.8327C149.012 29.1208 150.117 28.0952 151.734 28.0952C153.35 28.0952 152.794 28.2325 152.973 28.3278L152.809 28.8768C152.553 28.7548 152.191 28.6595 151.757 28.6595C150.537 28.6595 149.725 29.4411 149.725 30.8098C149.725 32.1785 150.46 32.9067 151.726 32.9067C152.992 32.9067 152.553 32.8228 152.824 32.6894L152.965 33.2232H152.961Z" fill="#053F6B"/>
<path d="M157.06 32.5749C157.361 32.7617 157.803 32.9142 158.265 32.9142C158.955 32.9142 159.355 32.552 159.355 32.0259C159.355 31.4997 159.077 31.2595 158.372 30.9888C157.521 30.6876 156.995 30.2454 156.995 29.5133C156.995 28.7813 157.666 28.0989 158.68 28.0989C159.694 28.0989 159.599 28.2209 159.832 28.3543L159.645 28.9033C159.473 28.8118 159.126 28.6555 158.654 28.6555C157.941 28.6555 157.67 29.0825 157.67 29.4371C157.67 29.7917 157.986 30.1653 158.707 30.4436C159.588 30.7829 160.038 31.21 160.038 31.9763C160.038 32.7426 159.443 33.4823 158.211 33.4823C156.98 33.4823 157.159 33.3259 156.881 33.1429L157.052 32.5787L157.06 32.5749Z" fill="#053F6B"/>
</svg>
