<svg width="186" height="43" viewBox="0 0 186 43" fill="none" xmlns="http://www.w3.org/2000/svg">
<path d="M180.699 17.666H185.561V13.8581H180.699C180.376 13.8581 180.212 13.6933 180.212 13.4117V9.6416H175.878V25.8484C175.878 30.1027 177.743 32.4547 182.605 32.4547H185.561V28.6434H183.25C180.699 28.6434 180.212 27.5103 180.212 25.2407V18.1502C180.215 17.8274 180.376 17.666 180.699 17.666ZM169.44 21.4739L167.819 20.6636C166.037 19.7709 165.591 19.4069 165.591 18.5965C165.591 17.7072 166.278 17.1372 167.534 17.1372C168.63 17.1372 169.924 17.5424 171.425 18.394L173.087 15.0736C171.061 13.7345 169.035 13.3705 167.332 13.3705C163.644 13.3705 161.296 15.6814 161.296 18.7202C161.296 21.3126 162.593 22.9332 165.955 24.5127L167.493 25.2407C169.114 26.0098 169.602 26.5798 169.602 27.3077C169.602 28.403 168.547 28.9284 166.886 28.9284C165.388 28.9284 163.929 28.482 162.391 27.5515L160.688 31.0366C162.796 32.3723 165.145 32.8187 167.088 32.8187C171.14 32.8187 173.976 30.8341 173.976 27.1051C173.976 24.6329 172.682 23.0946 169.44 21.4739ZM150.153 13.3705C144.402 13.3705 140.429 17.3398 140.429 23.0946C140.429 28.846 144.402 32.8187 150.153 32.8187C155.908 32.8187 159.877 28.846 159.877 23.0946C159.874 17.3398 155.905 13.3705 150.153 13.3705ZM150.153 28.9284C146.953 28.9284 144.845 26.6175 144.845 23.0946C144.845 19.5683 146.953 17.2609 150.153 17.2609C153.354 17.2609 155.462 19.5683 155.462 23.0946C155.458 26.6175 153.35 28.9284 150.153 28.9284ZM128.923 13.3705C123.251 13.3705 119.525 17.0171 119.525 23.2972V40.9221H123.859V31.1568C123.859 30.913 123.982 30.7929 124.144 30.7929C124.264 30.7929 124.346 30.8341 124.507 30.9954C125.562 32.0084 127.423 32.8187 129.37 32.8187C134.839 32.8187 138.809 28.846 138.809 23.0946C138.805 17.3398 134.836 13.3705 128.923 13.3705ZM129.081 28.9284C125.881 28.9284 123.773 26.6175 123.773 23.0946C123.773 19.5683 125.881 17.2609 129.081 17.2609C132.281 17.2609 134.39 19.5683 134.39 23.0946C134.39 26.6175 132.281 28.9284 129.081 28.9284ZM96.0666 21.4739L94.4459 20.6636C92.6604 19.7709 92.2175 19.4069 92.2175 18.5965C92.2175 17.7072 92.9042 17.1372 94.1609 17.1372C95.2562 17.1372 96.5507 17.5424 98.0512 18.394L99.7131 15.0736C97.6873 13.7345 95.6614 13.3705 93.9583 13.3705C90.2706 13.3705 87.922 15.6814 87.922 18.7202C87.922 21.3126 89.2165 22.9332 92.5814 24.5127L94.1197 25.2407C95.7404 26.0098 96.228 26.5798 96.228 27.3077C96.228 28.403 95.1738 28.9284 93.512 28.9284C92.0149 28.9284 90.5556 28.482 89.0139 27.5515L87.3142 31.0366C89.419 32.3723 91.7711 32.8187 93.7145 32.8187C97.7662 32.8187 100.602 30.8341 100.602 27.1051C100.599 24.6329 99.3079 23.0946 96.0666 21.4739ZM81.1543 13.8581V15.0324C81.1543 15.2762 81.0341 15.3964 80.8727 15.3964C80.7491 15.3964 80.6701 15.3552 80.5087 15.1938C79.4546 14.1809 77.5901 13.3705 75.6467 13.3705C70.1769 13.3705 66.2042 17.3398 66.2042 23.0946C66.2042 28.846 70.1769 32.8187 75.6467 32.8187C77.5901 32.8187 79.4546 32.0084 80.5087 30.9954C80.6701 30.8341 80.7491 30.7929 80.8727 30.7929C81.0341 30.7929 81.1543 30.913 81.1543 31.1568V32.3311H85.491V13.8581H81.1543ZM75.9282 28.9284C72.7281 28.9284 70.6198 26.6175 70.6198 23.0946C70.6198 19.5683 72.7281 17.2609 75.9282 17.2609C79.1284 17.2609 81.2367 19.5683 81.2367 23.0946C81.2367 26.6175 79.125 28.9284 75.9282 28.9284ZM50.3235 24.6329H64.4221C64.5045 24.1865 64.5835 23.7436 64.5835 22.9744C64.5835 17.4634 60.9369 13.3705 55.2646 13.3705C49.7948 13.3705 45.4615 17.3398 45.4615 23.1358C45.4615 28.846 49.3896 32.8187 55.1856 32.8187C58.6707 32.8187 61.5859 31.4006 63.7319 28.3618L60.6554 25.8896C58.9111 28.2005 57.1702 28.9284 55.3058 28.9284C51.7416 28.9284 50.121 26.4184 49.9184 25.1617C49.8325 24.7565 49.9596 24.6329 50.3235 24.6329ZM50.121 20.5812C50.7287 18.5553 52.7958 17.1372 55.1032 17.1372C57.3728 17.1372 59.3987 18.5553 60.0064 20.5812C60.1266 20.9864 60.0854 21.2714 59.7214 21.2714H50.4025C50.0351 21.2714 49.9939 20.9864 50.121 20.5812Z" fill="#061340"/>
<path d="M119.687 13.8579L113.245 30.9128C111.381 35.8985 109.636 38.1269 103.559 41.0009L101.739 37.3543C105.173 35.5689 106.91 34.295 107.943 32.4614L100.644 13.8579H105.303L109.921 26.377C110.041 26.6585 110.165 26.7409 110.326 26.7409C110.488 26.7409 110.649 26.6585 110.732 26.377L115.106 13.8579H119.687Z" fill="#061340"/>
<path d="M18.0301 25.2407C18.3116 25.4021 18.5554 25.4433 18.8782 25.4433C19.1632 25.4433 19.4859 25.3643 19.7297 25.2407L37.7598 14.8299V12.0727C37.7598 11.0598 37.2345 10.1292 36.3829 9.64167L20.2551 0.363965C19.8533 0.12361 19.3658 0 18.8782 0C18.394 0 17.9477 0.12361 17.5013 0.363965L1.3769 9.64167C0.525352 10.1292 0 11.0598 0 12.0727V30.6693C0 31.6445 0.525352 32.575 1.3769 33.0626L17.5013 42.3815C17.9477 42.6218 18.394 42.7454 18.8782 42.7454C19.3658 42.7454 19.8533 42.6218 20.2551 42.3815L36.3829 33.0626C37.2345 32.575 37.7598 31.6445 37.7598 30.6693V27.9155L19.7297 38.3298C19.5271 38.45 19.2044 38.5324 18.8782 38.5324C18.5966 38.5324 18.3116 38.4912 18.0301 38.3298L9.43909 33.3441V29.0109L18.0301 33.9519C18.3116 34.1133 18.5966 34.1957 18.8782 34.1957C19.2044 34.1957 19.4859 34.1133 19.7297 33.9519L37.7598 23.5411V19.1632L19.7297 29.6186C19.4859 29.7388 19.1632 29.8212 18.8782 29.8212C18.5554 29.8212 18.3116 29.78 18.0301 29.6186L9.43909 24.633V20.2585L18.0301 25.2407Z" fill="#164DFF"/>
</svg>
