<svg width="152" height="31" viewBox="0 0 152 31" fill="none" xmlns="http://www.w3.org/2000/svg">
<path d="M18.9255 30.5045H10.7502C7.23117 30.5045 4.57044 29.5084 2.74656 27.4942C0.92267 25.48 0 22.7796 0 19.3267C0 14.922 1.30891 11.8011 3.92672 10.0082C5.64332 8.81294 7.91781 8.21533 10.7502 8.21533H18.9255V12.7086H11.5012C9.54863 12.7086 8.19676 13.0185 7.42429 13.6161C6.63036 14.258 6.24413 15.4089 6.24413 17.0911H18.9255V21.6729H6.13684C6.13684 23.3108 6.50162 24.4397 7.23117 25.0816C7.93927 25.7235 9.33403 26.0334 11.4583 26.0334H18.9255V30.5045Z" fill="black"/>
<path d="M99.4335 30.5042H84.3491C82.2678 30.5042 80.6584 29.9288 79.4997 28.7556C78.341 27.5825 77.7617 25.9889 77.7617 23.9525C77.7617 21.4956 78.4269 19.7249 79.7787 18.6403C81.1305 17.6 83.2763 17.0688 86.2374 17.0688H93.7261C93.7261 15.3866 93.3827 14.2356 92.6746 13.638C91.9665 13.0182 90.6147 12.7305 88.5977 12.7305H79.1993V8.2373H90.722C93.018 8.2373 94.7775 8.56933 96.0005 9.23335C98.2965 10.5171 99.4555 12.9518 99.4555 16.5597V30.5042H99.4335ZM93.7904 26.1881V21.3407H87.0957C85.937 21.3407 85.1216 21.4514 84.6495 21.6727C83.9414 22.0269 83.5981 22.7351 83.5981 23.7755C83.5981 24.6166 83.8556 25.2363 84.3921 25.6126C84.9285 25.9889 85.6795 26.1881 86.6665 26.1881H93.7904Z" fill="black"/>
<path d="M122.63 19.1052C122.63 21.8719 121.986 24.2624 120.699 26.2545C118.875 29.0877 116.043 30.5043 112.223 30.5043H101.43V0.00341797H106.966V8.23732L111.901 8.21519C115.356 8.21519 118.017 9.10054 119.862 10.9598C121.707 12.8412 122.63 15.5416 122.63 19.1052ZM116.815 19.3929C116.815 17.3344 116.429 15.8072 115.635 14.8111C114.648 13.5495 112.931 12.9297 110.442 12.9297H106.945V25.9668H110.399C112.76 25.9668 114.455 25.3249 115.506 24.0411C116.386 22.9565 116.815 21.4071 116.815 19.3929Z" fill="black"/>
<path d="M130.312 30.5041H124.625V0.0253906H130.312V30.5041Z" fill="black"/>
<path d="M151.19 30.5045H143.014C139.495 30.5045 136.835 29.5084 135.011 27.4942C133.187 25.48 132.264 22.7796 132.264 19.3267C132.264 14.922 133.573 11.8011 136.191 10.0082C137.907 8.81294 140.182 8.21533 143.014 8.21533H151.19V12.7086H143.765C141.813 12.7086 140.461 13.0185 139.688 13.6161C138.895 14.258 138.508 15.4089 138.508 17.0911H151.19V21.6729H138.422C138.422 23.3108 138.787 24.4397 139.517 25.0816C140.225 25.7235 141.641 26.0334 143.744 26.0334H151.211V30.5045H151.19Z" fill="black"/>
<path d="M38.9669 9.0118C38.9669 9.0118 43.0652 15.5856 53.8798 11.7343C53.8798 11.7343 56.5405 10.9153 65.3596 5.35962C65.3596 5.35962 70.8742 1.17626 78.4916 2.88059C78.4916 2.88059 73.5349 -2.47588 64.0936 1.41974C54.6308 5.31535 50.747 11.7564 38.9669 9.0118Z" fill="#34B233"/>
<path d="M70.5308 19.9239C60.8749 23.5096 56.9053 29.3973 44.8676 26.8962C44.8676 26.8962 49.0733 32.9388 60.1025 29.3973C60.1025 29.3973 62.8276 28.6448 71.8397 23.5318C71.8397 23.5318 73.7494 22.1816 77.011 21.4069C77.011 21.3847 77.2899 19.8575 78.2126 18.6401C76.1098 18.5073 73.5134 18.8172 70.5308 19.9239Z" fill="#34B233"/>
<path d="M72.1831 8.6136C64.394 10.4728 60.0167 14.7447 51.3908 17.7771C41.5847 21.23 34.375 14.9439 34.375 14.9439C41.4774 24.4616 51.9916 22.4253 56.0685 21.0308C60.1454 19.6364 65.4454 15.2981 73.2345 13.0847C74.9511 12.5977 76.4746 12.7305 78.2341 12.7305V8.2373C75.9167 8.2373 73.6636 8.25945 72.1831 8.6136Z" fill="#34B233"/>
<path d="M38.087 9.74258C36.7996 8.72441 34.568 8.23745 31.4996 8.23745L20.9854 8.21533V30.5045H26.4571V13.0849H31.0061C32.4652 13.0849 33.4951 13.3947 34.1174 13.9702C34.2676 14.103 34.7397 14.5457 34.9972 14.7007C37.2931 16.25 39.4818 16.9583 40.4044 17.2461V16.3386C40.383 13.1513 39.632 10.96 38.087 9.74258ZM34.8255 16.6706V30.5045H40.4044V20.9868C38.1729 19.9686 36.1559 18.1979 34.8255 16.6706Z" fill="black"/>
</svg>
