<svg width="149" height="42" viewBox="0 0 149 42" fill="none" xmlns="http://www.w3.org/2000/svg">
<path d="M147.1 25.806C146.73 25.806 146.367 25.916 146.059 26.122C145.751 26.3281 145.511 26.6209 145.369 26.9635C145.228 27.3061 145.191 27.6829 145.264 28.0464C145.337 28.4099 145.516 28.7436 145.778 29.0053C146.041 29.267 146.375 29.4449 146.739 29.5165C147.102 29.5881 147.479 29.5502 147.821 29.4076C148.163 29.2649 148.455 29.024 148.66 28.7152C148.866 28.4065 148.974 28.0438 148.973 27.6731C148.975 27.427 148.927 27.1831 148.834 26.9554C148.74 26.7278 148.602 26.5211 148.428 26.3474C148.253 26.1736 148.046 26.0363 147.818 25.9433C147.591 25.8504 147.346 25.8037 147.1 25.806ZM147.1 29.2636C146.78 29.2659 146.465 29.1729 146.198 28.9964C145.93 28.8198 145.72 28.5677 145.596 28.272C145.472 27.9763 145.438 27.6504 145.499 27.3355C145.56 27.0206 145.714 26.731 145.94 26.5034C146.166 26.2758 146.454 26.1204 146.769 26.057C147.083 25.9936 147.409 26.025 147.706 26.1472C148.002 26.2694 148.256 26.4769 148.434 26.7435C148.613 27.01 148.708 27.3235 148.708 27.6443C148.715 27.8592 148.679 28.0734 148.601 28.2738C148.523 28.4743 148.406 28.657 148.255 28.8109C148.105 28.9648 147.926 29.0868 147.727 29.1696C147.529 29.2523 147.315 29.2941 147.1 29.2925V29.2636Z" fill="#001E79"/>
<path d="M147.913 28.2555C147.909 28.1413 147.871 28.031 147.803 27.9385C147.762 27.8823 147.709 27.8353 147.649 27.8006C147.588 27.7658 147.521 27.7441 147.452 27.7368C147.556 27.7264 147.656 27.693 147.746 27.6389C147.812 27.5949 147.865 27.5346 147.9 27.4639C147.935 27.3931 147.952 27.3144 147.948 27.2355C147.958 27.1256 147.933 27.0152 147.876 26.9207C147.819 26.8262 147.733 26.7527 147.631 26.711C147.444 26.6523 147.249 26.6269 147.054 26.6361H146.351V28.6934H146.709V27.8982H146.997C147.134 27.8895 147.272 27.9111 147.4 27.9616C147.602 28.0826 147.59 28.3419 147.596 28.5724C147.587 28.6162 147.587 28.6612 147.596 28.705H147.93C147.911 28.6634 147.901 28.6182 147.901 28.5724C147.913 28.4745 147.913 28.4226 147.913 28.2555ZM147.037 27.6331H146.709V26.8839H147.02C147.458 26.8839 147.596 26.9877 147.596 27.2643C147.596 27.5409 147.354 27.6331 147.037 27.6331Z" fill="#001E79"/>
<path d="M67.9834 7.80328C65.102 7.80328 62.7969 8.9904 61.9037 10.2986V0.000488281H55.6107V29.2926H61.8115V26.9299C62.7854 28.5377 64.9349 29.7594 67.7241 29.7594C73.5905 29.7594 77.7282 25.1492 77.7282 18.741C77.734 12.4481 74.0631 7.80328 67.9834 7.80328ZM66.5888 24.0197C64.0993 24.0197 61.8172 22.2448 61.8172 18.7813C61.8172 15.3179 64.1223 13.5949 66.5888 13.5949C69.0553 13.5949 71.32 15.243 71.32 18.7813C71.32 22.3197 69.0783 24.0197 66.5888 24.0197Z" fill="#001E79"/>
<path d="M97.8633 26.0424V15.7962C97.8633 11.4914 95.3738 7.68799 88.5795 7.68799C82.4134 7.68799 79.6242 11.6585 79.3591 14.6552L84.9317 15.8077C85.0067 14.9259 85.425 14.1087 86.0964 13.5321C86.7679 12.9555 87.6388 12.6656 88.5219 12.7246C90.5504 12.7246 91.605 13.7792 91.605 15.0298C91.605 15.7443 91.2246 16.2976 90.0836 16.4647L85.1449 17.2254C81.6873 17.7325 78.9384 19.8417 78.9384 23.5644C78.9384 26.8953 81.6008 29.938 86.1995 29.938C88.9887 29.938 91.0114 28.7855 92.1121 26.9817C92.0884 27.775 92.16 28.5683 92.3253 29.3445H98.0881C97.9254 28.2515 97.8502 27.1473 97.8633 26.0424ZM91.6165 21.0634C91.6165 24.3136 89.6745 25.2414 87.7727 25.2414C86.0036 25.2414 85.2832 24.1868 85.2832 23.0861C85.2832 21.6108 86.2975 20.9769 87.646 20.781L91.6165 20.1471V21.0634Z" fill="#001E79"/>
<path d="M120.378 16.1246V29.2925H113.964V17.1907C113.964 15.1219 112.864 13.5602 110.541 13.5602C108.432 13.5602 107.084 15.1219 107.084 17.2311V29.2925H100.664V8.30454H106.871V10.7134C108.023 8.73099 110.587 7.75708 112.737 7.75708C118.016 7.76284 120.378 11.5202 120.378 16.1246Z" fill="#001E79"/>
<path d="M129.68 0.000488281V15.364L136.053 8.31616H144.375L136.18 17.139L144.542 29.2984H136.687L131.748 21.9105L129.68 24.1465V29.2984H123.266V0.000488281H129.68Z" fill="#001E79"/>
<path d="M0 31.4076L25.068 41.4924L50.1361 31.4076V0.000488281H0V31.4076Z" fill="#CF2A36"/>
<path d="M19.069 27.1833C17.9741 28.9985 15.5652 29.7592 13.456 29.7592C8.34447 29.7592 5.47461 26.0422 5.47461 21.5703V8.30444H11.8943V20.2161C11.8943 22.2446 12.9893 23.8466 15.2713 23.8466C17.4266 23.8466 18.7751 22.3714 18.7751 20.2622V8.30444H25.1948V25.5351C25.1939 26.7904 25.2631 28.0448 25.4023 29.2924H19.2419C19.1344 28.5944 19.0766 27.8895 19.069 27.1833Z" fill="white"/>
<path d="M33.1762 22.3716C33.2626 23.8065 34.2769 25.2011 36.4725 25.2011C38.1206 25.2011 38.9216 24.3136 38.9216 23.3858C38.9216 22.6251 38.4145 21.9912 36.8528 21.657L34.444 21.0807C29.9721 20.1356 28.1971 17.6 28.1971 14.6437C28.1971 10.8057 31.5741 7.67651 36.265 7.67651C42.3447 7.67651 44.4597 11.4799 44.6671 13.9291L39.3366 14.8973C39.3119 14.5315 39.2145 14.1744 39.0501 13.8468C38.8856 13.5191 38.6574 13.2276 38.3789 12.9893C38.1003 12.751 37.777 12.5707 37.4279 12.459C37.0788 12.3473 36.7108 12.3063 36.3457 12.3386C35.1182 12.3386 34.0406 13.0589 34.0406 14.1539C34.0406 15.0413 34.7609 15.5485 35.6887 15.7156L38.4779 16.2919C42.823 17.1736 44.9322 19.7956 44.9322 22.8729C44.9322 26.4631 42.1891 29.9669 36.5762 29.9669C29.9894 29.9669 27.8802 25.7025 27.7073 23.3801L33.1762 22.3716Z" fill="white"/>
</svg>
