<svg width="126" height="44" viewBox="0 0 126 44" fill="none" xmlns="http://www.w3.org/2000/svg">
<path d="M7.12379 20.7543C5.82524 20.7543 4.56311 20.5237 3.32524 20.0747C2.08738 19.6257 0.98301 18.9582 0 18.0723L2.18447 15.463C3.83495 16.8223 5.50971 17.5019 7.1966 17.5019C8.8835 17.5019 8.54369 17.3684 8.98058 17.0771C9.40534 16.798 9.62379 16.4096 9.62379 15.9121V15.8635C9.62379 15.5359 9.53883 15.2689 9.36893 15.0383C9.19903 14.8077 8.85922 14.6014 8.37379 14.3829C7.88835 14.1645 7.17233 13.9461 6.23786 13.7155C5.71602 13.582 5.25485 13.4606 4.8665 13.3393C4.47816 13.2179 4.07767 13.0723 3.66505 12.9024C3.25243 12.7325 2.90049 12.5626 2.62136 12.3805C2.34223 12.1985 2.07524 11.98 1.80825 11.7373C1.54126 11.4825 1.33495 11.2033 1.17718 10.9121C1.01942 10.6208 0.898058 10.2689 0.800971 9.88052C0.716019 9.49217 0.667476 9.05527 0.667476 8.59411V8.54557C0.667476 7.02858 1.21359 5.80285 2.30583 4.88052C3.41019 3.94605 4.81796 3.48489 6.54126 3.48489C8.26456 3.48489 11.0073 4.20091 12.767 5.62081L10.8495 8.41207C9.24757 7.29557 7.79126 6.74945 6.49272 6.74945C5.19417 6.74945 5.27913 6.88294 4.89078 7.16207C4.51456 7.4412 4.32039 7.781 4.32039 8.2179V8.26644C4.32039 8.80042 4.55097 9.21304 5.02427 9.49217C5.48544 9.77129 6.46845 10.099 7.94903 10.4752C8.84709 10.7058 9.61165 10.9606 10.2306 11.2276C10.8495 11.4946 11.3956 11.8223 11.8689 12.2228C12.3422 12.6111 12.6942 13.0844 12.9248 13.6184C13.1553 14.1524 13.2646 14.7834 13.2646 15.5116V15.5601C13.2646 17.1863 12.7063 18.4606 11.5777 19.3829C10.449 20.3053 8.95631 20.7664 7.11165 20.7664" fill="#2D2D2D"/>
<path d="M18.8592 20.7543C17.4879 20.7543 16.4078 20.3295 15.6432 19.48C14.8786 18.6305 14.4903 17.4654 14.4903 15.9849V7.65961H18.1311V14.8441C18.1311 15.6936 18.3252 16.3489 18.7136 16.7858C19.1019 17.2349 19.6481 17.4533 20.3519 17.4533C21.0558 17.4533 21.6141 17.2349 22.0146 16.7858C22.4151 16.3368 22.6214 15.6936 22.6214 14.8441V7.65961H26.2743V20.5237H22.6214V18.6912C22.1238 19.3344 21.5777 19.8319 20.9951 20.196C20.4126 20.5601 19.7087 20.7421 18.8592 20.7421" fill="#2D2D2D"/>
<path d="M34.7087 17.6596C35.5825 17.6596 36.3228 17.3319 36.9417 16.6766C37.5485 16.0212 37.8519 15.1717 37.8519 14.1159V14.0674C37.8519 13.0237 37.5485 12.1742 36.9417 11.5067C36.3349 10.8392 35.5946 10.5115 34.7087 10.5115C33.8228 10.5115 33.1068 10.8392 32.5 11.5067C31.8932 12.162 31.5898 13.0115 31.5898 14.0674V14.1159C31.5898 15.1596 31.8932 16.0212 32.5 16.6766C33.1068 17.3319 33.847 17.6596 34.7087 17.6596ZM27.9854 24.3586V7.6596H31.6383V9.50426C32.682 8.10862 34.017 7.41688 35.6432 7.41688C37.2694 7.41688 37.1237 7.56251 37.8276 7.85377C38.5194 8.14503 39.1383 8.56979 39.6966 9.11591C40.2427 9.66202 40.6796 10.3659 41.0072 11.2154C41.3349 12.0771 41.4927 13.0237 41.4927 14.0552V14.1038C41.4927 15.1475 41.3349 16.0941 41.0072 16.9436C40.6917 17.8052 40.2548 18.497 39.7087 19.0431C39.1626 19.5892 38.5436 20.0018 37.8398 20.3052C37.148 20.5965 36.4077 20.7421 35.6432 20.7421C34.0412 20.7421 32.7063 20.0989 31.6383 18.8246V24.3465H27.9854V24.3586Z" fill="#2D2D2D"/>
<path d="M49.6845 17.6596C50.5582 17.6596 51.2985 17.3319 51.9175 16.6766C52.5243 16.0212 52.8277 15.1717 52.8277 14.1159V14.0674C52.8277 13.0237 52.5243 12.1742 51.9175 11.5067C51.3107 10.8392 50.5704 10.5115 49.6845 10.5115C48.7985 10.5115 48.0825 10.8392 47.4757 11.5067C46.8689 12.162 46.5655 13.0115 46.5655 14.0674V14.1159C46.5655 15.1596 46.8689 16.0212 47.4757 16.6766C48.0825 17.3319 48.8228 17.6596 49.6845 17.6596ZM42.9612 24.3586V7.6596H46.6141V9.50426C47.6578 8.10862 48.9927 7.41688 50.6189 7.41688C52.2451 7.41688 52.0995 7.56251 52.8034 7.85377C53.4951 8.14503 54.1141 8.56979 54.6723 9.11591C55.2184 9.66202 55.6553 10.3659 55.983 11.2154C56.3107 12.0771 56.4684 13.0237 56.4684 14.0552V14.1038C56.4684 15.1475 56.3107 16.0941 55.983 16.9436C55.6675 17.8052 55.2306 18.497 54.6845 19.0431C54.1383 19.5892 53.5194 20.0018 52.8155 20.3052C52.1238 20.5965 51.3835 20.7421 50.6189 20.7421C49.017 20.7421 47.682 20.0989 46.6141 18.8246V24.3465H42.9612V24.3586Z" fill="#2D2D2D"/>
<path d="M61.6747 3.01155H58.034V20.5237H61.6747V3.01155Z" fill="#2D2D2D"/>
<path d="M67.3423 24.4315C66.1894 24.4315 65.1214 24.1281 64.102 23.5334L65.3156 20.8999C65.8738 21.2397 66.3835 21.3975 66.869 21.3975C67.3544 21.3975 67.4394 21.3368 67.6214 21.2154C67.8034 21.0941 67.9855 20.8756 68.1432 20.5601L63.1068 7.64748H66.966L69.8908 16.4096L72.6942 7.64748H76.4927L71.5413 20.8271C71.0437 22.1499 70.4855 23.0844 69.8665 23.6184C69.2476 24.1645 68.3981 24.4315 67.318 24.4315" fill="#2D2D2D"/>
<path d="M19.4903 43.1815C17.8762 43.1815 16.4078 42.8053 15.085 42.0286C13.7622 41.264 12.7306 40.2203 11.9903 38.8975C11.25 37.5747 10.8738 36.1184 10.8738 34.5286V34.48C10.8738 32.9024 11.2379 31.4461 11.9782 30.1232C12.7063 28.8004 13.75 27.7567 15.0971 26.9679C16.4442 26.1912 17.949 25.8029 19.6238 25.8029C21.2986 25.8029 22.3665 26.0213 23.4102 26.4703C24.4539 26.9194 25.3884 27.5504 26.25 28.3878L23.9078 31.0941C23.216 30.4752 22.5364 30.0019 21.8447 29.6864C21.1529 29.3708 20.4126 29.2009 19.6117 29.2009C18.216 29.2009 17.051 29.7106 16.1287 30.7179C15.2063 31.7252 14.7452 32.963 14.7452 34.4315V34.48C14.7452 35.9485 15.2063 37.1985 16.1165 38.2179C17.0389 39.2495 18.2039 39.7592 19.6117 39.7592C21.0194 39.7592 21.2743 39.6014 21.9296 39.2737C22.585 38.9582 23.2889 38.4485 24.0291 37.7931L26.3835 40.1718C25.4612 41.1669 24.4539 41.9194 23.3981 42.4169C22.3301 42.9145 21.0316 43.1694 19.5024 43.1694" fill="#2D2D2D"/>
<path d="M27.9005 42.8902V25.3781H31.5534V31.8587C32.051 31.2155 32.5971 30.7179 33.1796 30.3417C33.7621 29.9776 34.4782 29.7956 35.3155 29.7956C36.6869 29.7956 37.767 30.2203 38.5316 31.0577C39.2961 31.9072 39.6845 33.0723 39.6845 34.5529V42.8781H36.0437V35.7058C36.0437 34.8563 35.8495 34.2009 35.4612 33.7519C35.0728 33.3029 34.5267 33.0844 33.835 33.0844C33.1432 33.0844 32.5728 33.3029 32.1602 33.7519C31.7597 34.2009 31.5534 34.8563 31.5534 35.7058V42.8781H27.9005V42.8902Z" fill="#2D2D2D"/>
<path d="M46.6747 40.6087C47.5242 40.6087 48.2038 40.3903 48.7257 39.9776C49.2597 39.5529 49.5145 39.0189 49.5145 38.3514V37.7082C48.8349 37.3927 48.0582 37.2228 47.1966 37.2228C46.3349 37.2228 45.7888 37.3684 45.3519 37.6839C44.9029 37.9873 44.6844 38.4242 44.6844 38.9946V39.0432C44.6844 39.5286 44.8665 39.9048 45.2305 40.1839C45.5946 40.4631 46.0801 40.5966 46.6747 40.5966M45.5704 43.133C44.3082 43.133 43.2524 42.781 42.415 42.0893C41.5776 41.3975 41.1529 40.4388 41.1529 39.2009V39.1524C41.1529 37.7932 41.614 36.7737 42.5485 36.082C43.483 35.3903 44.733 35.0504 46.3228 35.0504C47.9126 35.0504 48.4466 35.2325 49.466 35.5844V35.3781C49.466 34.6136 49.2354 34.031 48.7742 33.6305C48.3009 33.2301 47.6213 33.0237 46.7111 33.0237C45.8009 33.0237 44.4296 33.2543 43.1674 33.7276L42.2572 30.9364C43.0461 30.5966 43.8106 30.3296 44.5752 30.1597C45.3398 29.9898 46.2257 29.9048 47.2451 29.9048C49.1869 29.9048 50.631 30.3903 51.5898 31.349C52.5485 32.3077 52.9733 33.6427 52.9733 35.4509V42.9145H49.4538V41.5189C48.4708 42.6111 47.1844 43.1451 45.5704 43.1451V43.133Z" fill="#2D2D2D"/>
<path d="M54.9757 42.8902V30.0262H58.6165V42.8902H54.9757ZM54.8787 28.6184V25.3902H58.7136V28.6184H54.8787Z" fill="#2D2D2D"/>
<path d="M60.7403 42.8902V30.0262H64.3932V31.8466C64.8908 31.2034 65.4369 30.7058 66.0194 30.3296C66.602 29.9655 67.318 29.7834 68.1554 29.7834C69.5267 29.7834 70.6068 30.2082 71.3714 31.0456C72.1359 31.8951 72.5243 33.0601 72.5243 34.5407V42.866H68.8835V35.6936C68.8835 34.8441 68.6893 34.1888 68.301 33.7398C67.9126 33.2907 67.3665 33.0723 66.6748 33.0723C65.983 33.0723 65.4126 33.2907 65 33.7398C64.5995 34.1888 64.3932 34.8441 64.3932 35.6936V42.866H60.7403V42.8902Z" fill="#2D2D2D"/>
<path fill-rule="evenodd" clip-rule="evenodd" d="M81.8529 22.7689C81.5616 23.3514 80.967 23.7519 80.2631 23.7519C79.5592 23.7519 79.1345 23.4607 78.8189 23.0116C78.4306 22.4655 78.4913 21.9315 78.5034 21.3005C78.7704 11.3733 85.3723 2.99949 94.4379 0.0140581C94.5349 -0.0223497 94.6563 0.014058 94.6927 0.0990095C94.7413 0.196097 94.7048 0.341728 94.5956 0.390272C88.1757 3.07231 83.7461 8.3393 82.3869 14.9777C82.2049 15.8757 82.0835 16.7616 82.0228 17.6476C81.9743 18.2422 81.95 18.8247 81.95 19.4315C81.95 19.8806 81.95 20.3296 81.9621 20.7786C81.9743 21.349 82.1078 22.2592 81.8529 22.781" fill="#1A5F90"/>
<path fill-rule="evenodd" clip-rule="evenodd" d="M85.1781 19.298C86.149 13.2665 90.4815 8.32716 96.246 6.33687C96.5858 6.21551 96.6829 6.57959 96.3917 6.71308C92.0591 8.71551 88.9402 13.0238 88.4669 18.1451C88.3698 19.2252 88.3577 20.2325 88.3577 21.3126C88.3577 22.4291 88.3091 23.8126 86.6829 23.8126C85.0567 23.8126 85.6271 23.5335 85.3237 23.1087C84.7048 22.2107 84.996 20.366 85.1659 19.3102" fill="#1A5F90"/>
<path fill-rule="evenodd" clip-rule="evenodd" d="M91.2703 20.7421C91.5858 16.5067 94.6198 12.9752 98.7218 11.7616C98.9402 11.7009 99.1101 11.9315 98.8188 12.0528C96.0154 13.2421 94.0494 16.0213 94.0494 19.2616C94.0494 22.5019 94.0737 20.0383 94.1344 20.4145C94.2315 21.0455 94.4863 21.98 94.2921 22.6232C94.1101 23.2543 93.5154 23.7276 92.8116 23.7276C92.1077 23.7276 91.9256 23.5213 91.6344 23.1936C91.1247 22.5989 91.1975 21.4946 91.246 20.7421" fill="#1A5F90"/>
<path fill-rule="evenodd" clip-rule="evenodd" d="M121.61 22.7689C121.901 23.3514 122.496 23.7519 123.2 23.7519C123.904 23.7519 124.329 23.4606 124.644 23.0116C125.032 22.4655 124.972 21.9315 124.96 21.3004C124.693 11.3732 118.091 2.99945 109.025 0.0140161C108.928 -0.0223917 108.807 0.0140161 108.77 0.0989675C108.722 0.196055 108.758 0.341686 108.867 0.39023C115.287 3.07227 119.717 8.33926 121.076 14.9776C121.258 15.8757 121.38 16.7616 121.44 17.6475C121.489 18.2422 121.513 18.8247 121.513 19.4315C121.513 19.8805 121.513 20.3295 121.501 20.7786C121.489 21.349 121.355 22.2592 121.61 22.781" fill="#1A5F90"/>
<path fill-rule="evenodd" clip-rule="evenodd" d="M118.297 19.298C117.326 13.2665 112.994 8.32716 107.229 6.33687C106.889 6.21551 106.792 6.57959 107.083 6.71308C111.416 8.71551 114.535 13.0238 115.02 18.1451C115.117 19.2252 115.13 20.2325 115.13 21.3126C115.13 22.4291 115.178 23.8126 116.804 23.8126C118.43 23.8126 117.86 23.5335 118.163 23.1087C118.782 22.2107 118.491 20.366 118.321 19.3102" fill="#1A5F90"/>
<path fill-rule="evenodd" clip-rule="evenodd" d="M112.193 20.7421C111.877 16.5067 108.843 12.9752 104.741 11.7616C104.523 11.7009 104.353 11.9315 104.644 12.0528C107.447 13.2421 109.401 16.0213 109.401 19.2616C109.401 22.5019 109.377 20.0383 109.316 20.4145C109.219 21.0455 108.964 21.98 109.147 22.6232C109.329 23.2543 109.923 23.7276 110.627 23.7276C111.331 23.7276 111.513 23.5213 111.804 23.1936C112.314 22.5989 112.241 21.4946 112.193 20.7421Z" fill="#1A5F90"/>
<path fill-rule="evenodd" clip-rule="evenodd" d="M101.452 17.0286C103.285 17.0286 104.765 18.4971 104.765 20.3174C104.765 22.1378 103.285 23.6063 101.452 23.6063C99.6198 23.6063 98.1393 22.1378 98.1393 20.3174C98.1393 18.4971 99.6198 17.0286 101.452 17.0286Z" fill="#1A5F90"/>
<path d="M95.4815 34.4315C95.4815 32.3684 95.5543 30.8635 95.6999 29.9048C95.8456 28.9582 96.0883 28.2058 96.4281 27.6718C96.9135 26.9194 97.5567 26.349 98.3577 25.9849C99.1465 25.6208 100.105 25.4388 101.222 25.4388C102.338 25.4388 103.297 25.6208 104.074 25.9849C104.85 26.349 105.494 26.9194 105.979 27.6718C106.331 28.2058 106.586 28.9582 106.731 29.9169C106.877 30.8757 106.95 32.3684 106.95 34.4315C106.95 36.4946 106.877 37.9873 106.731 38.9461C106.586 39.9048 106.331 40.6451 105.979 41.1912C105.494 41.9436 104.863 42.5019 104.074 42.8781C103.285 43.2422 102.326 43.4364 101.222 43.4364C100.117 43.4364 99.1587 43.2543 98.3577 42.8781C97.5689 42.5019 96.9256 41.9436 96.4281 41.1912C96.0883 40.6572 95.8456 39.9169 95.6999 38.9582C95.5543 38.0116 95.4815 36.4946 95.4815 34.4315ZM102.872 35.9728V32.8781C102.872 30.9728 102.751 29.7956 102.508 29.3465C102.265 28.8975 101.829 28.6791 101.197 28.6791C100.566 28.6791 100.154 28.9097 99.9232 29.3708C99.6805 29.832 99.5713 30.997 99.5713 32.8781V35.9728C99.5713 37.8296 99.6926 38.9946 99.9232 39.4679C100.154 39.9412 100.591 40.1718 101.222 40.1718C101.853 40.1718 102.278 39.9412 102.508 39.48C102.751 39.0189 102.86 37.8538 102.86 35.9728H102.872Z" fill="#1A5F90"/>
<path fill-rule="evenodd" clip-rule="evenodd" d="M78.5398 25.8393H84.4257L89.0009 35.3174V25.8393H92.7145V43.0116H88.3092L82.2534 30.4752V43.0116H78.5398V25.8393Z" fill="#1A5F90"/>
<path fill-rule="evenodd" clip-rule="evenodd" d="M108.127 25.8393H111.853L113.576 38.2907L115.312 25.8393H117.994L119.717 38.2907L121.452 25.8393H125.178L122.799 43.0116H117.63L116.647 37.9509L115.688 43.0116H110.506L108.127 25.8393Z" fill="#1A5F90"/>
</svg>
